NotoSerifTamil-ExtraLight.ufo
<glyph name="exclam" format="2">
  <advance width="284.1515151515151"/>
  <unicode hex="0021"/>
  <outline>
    <contour>
      <point x="129.6060606060606" y="174.21212121212122" type="line"/>
      <point x="155.12121212121212" y="174.21212121212122" type="line"/>
      <point x="164.9090909090909" y="714.0" type="line"/>
      <point x="118.24242424242425" y="714.0" type="line"/>
    </contour>
    <contour>
      <point x="140.78787878787878" y="-5.424242424242424" type="curve" smooth="yes"/>
      <point x="160.60606060606062" y="-5.424242424242424"/>
      <point x="177.0" y="5.272727272727273"/>
      <point x="177.0" y="40.515151515151516" type="curve" smooth="yes"/>
      <point x="177.0" y="75.18181818181819"/>
      <point x="160.60606060606062" y="84.87878787878788"/>
      <point x="140.78787878787878" y="84.87878787878788" type="curve" smooth="yes"/>
      <point x="121.54545454545455" y="84.87878787878788"/>
      <point x="104.57575757575758" y="75.18181818181819"/>
      <point x="104.57575757575758" y="40.515151515151516" type="curve" smooth="yes"/>
      <point x="104.57575757575758" y="5.272727272727273"/>
      <point x="121.54545454545455" y="-5.424242424242424"/>
    </contour>
  </outline>
</glyph>
<glyph name="quotedbl" format="2">
  <advance width="308.72727272727275"/>
  <unicode hex="0022"/>
  <outline>
    <contour>
      <point x="219.84848484848484" y="518.3939393939394" type="line"/>
      <point x="245.36363636363637" y="518.3939393939394" type="line"/>
      <point x="259.6060606060606" y="714.0" type="line"/>
      <point x="204.03030303030303" y="714.0" type="line"/>
    </contour>
    <contour>
      <point x="63.36363636363636" y="518.3939393939394" type="line"/>
      <point x="88.87878787878788" y="518.3939393939394" type="line"/>
      <point x="103.12121212121212" y="714.0" type="line"/>
      <point x="47.54545454545455" y="714.0" type="line"/>
    </contour>
  </outline>
</glyph>
<glyph name="numbersign" format="2">
  <advance width="559.0"/>
  <unicode hex="0023"/>
  <outline>
    <contour>
      <point x="90.03030303030303" y="0.0" type="line"/>
      <point x="124.81818181818181" y="0.0" type="line"/>
      <point x="165.1818181818182" y="215.6060606060606" type="line"/>
      <point x="334.9090909090909" y="215.6060606060606" type="line"/>
      <point x="294.54545454545456" y="0.0" type="line"/>
      <point x="329.3333333333333" y="0.0" type="line"/>
      <point x="369.6969696969697" y="215.6060606060606" type="line"/>
      <point x="502.0" y="215.6060606060606" type="line"/>
      <point x="502.0" y="247.8181818181818" type="line"/>
      <point x="376.1818181818182" y="247.8181818181818" type="line"/>
      <point x="417.90909090909093" y="472.1818181818182" type="line"/>
      <point x="534.0" y="472.1818181818182" type="line"/>
      <point x="534.0" y="504.3939393939394" type="line"/>
      <point x="424.1818181818182" y="504.3939393939394" type="line"/>
      <point x="463.54545454545456" y="714.0" type="line"/>
      <point x="428.75757575757575" y="714.0" type="line"/>
      <point x="389.3939393939394" y="504.3939393939394" type="line"/>
      <point x="219.66666666666666" y="504.3939393939394" type="line"/>
      <point x="259.030303030303" y="714.0" type="line"/>
      <point x="224.03030303030303" y="714.0" type="line"/>
      <point x="184.87878787878788" y="504.3939393939394" type="line"/>
      <point x="57.0" y="504.3939393939394" type="line"/>
      <point x="57.0" y="472.1818181818182" type="line"/>
      <point x="178.6060606060606" y="472.1818181818182" type="line"/>
      <point x="136.66666666666666" y="247.8181818181818" type="line"/>
      <point x="25.0" y="247.8181818181818" type="line"/>
      <point x="25.0" y="215.6060606060606" type="line"/>
      <point x="130.3939393939394" y="215.6060606060606" type="line"/>
    </contour>
    <contour>
      <point x="171.66666666666666" y="247.8181818181818" type="line"/>
      <point x="213.3939393939394" y="472.1818181818182" type="line"/>
      <point x="383.1212121212121" y="472.1818181818182" type="line"/>
      <point x="341.3939393939394" y="247.8181818181818" type="line"/>
    </contour>
  </outline>
</glyph>
<glyph name="percent" format="2">
  <advance width="886.5454545454545"/>
  <unicode hex="0025"/>
  <outline>
    <contour>
      <point x="230.27272727272728" y="0.0" type="line"/>
      <point x="269.4848484848485" y="0.0" type="line"/>
      <point x="652.2727272727273" y="714.0" type="line"/>
      <point x="613.2727272727273" y="714.0" type="line"/>
    </contour>
    <contour>
      <point x="204.27272727272728" y="280.0" type="curve" smooth="yes"/>
      <point x="310.3333333333333" y="280.0"/>
      <point x="352.5151515151515" y="370.57575757575756"/>
      <point x="352.5151515151515" y="503.0" type="curve"/>
      <point x="352.5151515151515" y="638.5757575757576"/>
      <point x="304.8181818181818" y="724.0"/>
      <point x="205.27272727272728" y="724.0" type="curve" smooth="yes"/>
      <point x="100.3030303030303" y="724.0"/>
      <point x="56.03030303030303" y="637.0"/>
      <point x="56.03030303030303" y="503.0" type="curve" smooth="yes"/>
      <point x="56.03030303030303" y="365.8484848484849"/>
      <point x="99.51515151515152" y="280.0"/>
    </contour>
    <contour>
      <point x="202.6969696969697" y="308.3939393939394" type="curve" smooth="yes"/>
      <point x="129.0" y="308.3939393939394"/>
      <point x="97.18181818181819" y="378.54545454545456"/>
      <point x="97.18181818181819" y="503.0" type="curve"/>
      <point x="97.18181818181819" y="612.8484848484849"/>
      <point x="125.06060606060606" y="695.3939393939394"/>
      <point x="203.6969696969697" y="695.3939393939394" type="curve" smooth="yes"/>
      <point x="278.1818181818182" y="695.3939393939394"/>
      <point x="311.1515151515151" y="628.6060606060606"/>
      <point x="311.1515151515151" y="503.0" type="curve" smooth="yes"/>
      <point x="311.1515151515151" y="388.7878787878788"/>
      <point x="283.6969696969697" y="308.3939393939394"/>
    </contour>
    <contour>
      <point x="682.2727272727273" y="-10.0" type="curve" smooth="yes"/>
      <point x="788.3333333333334" y="-10.0"/>
      <point x="830.5151515151515" y="80.57575757575758"/>
      <point x="830.5151515151515" y="213.0" type="curve" smooth="yes"/>
      <point x="830.5151515151515" y="348.57575757575756"/>
      <point x="782.8181818181819" y="434.0"/>
      <point x="683.2727272727273" y="434.0" type="curve" smooth="yes"/>
      <point x="578.3030303030303" y="434.0"/>
      <point x="534.030303030303" y="347.0"/>
      <point x="534.030303030303" y="213.0" type="curve" smooth="yes"/>
      <point x="534.030303030303" y="75.84848484848484"/>
      <point x="577.5151515151515" y="-10.0"/>
    </contour>
    <contour>
      <point x="680.6969696969697" y="18.393939393939394" type="curve" smooth="yes"/>
      <point x="607.0" y="18.393939393939394"/>
      <point x="575.1818181818182" y="88.54545454545455"/>
      <point x="575.1818181818182" y="213.0" type="curve" smooth="yes"/>
      <point x="575.1818181818182" y="322.8484848484849"/>
      <point x="603.060606060606" y="405.3939393939394"/>
      <point x="681.6969696969697" y="405.3939393939394" type="curve" smooth="yes"/>
      <point x="756.1818181818181" y="405.3939393939394"/>
      <point x="789.1515151515151" y="338.6060606060606"/>
      <point x="789.1515151515151" y="213.0" type="curve" smooth="yes"/>
      <point x="789.1515151515151" y="98.78787878787878"/>
      <point x="761.6969696969697" y="18.393939393939394"/>
    </contour>
  </outline>
</glyph>
<glyph name="quotesingle" format="2">
  <advance width="150.66666666666669"/>
  <unicode hex="0027"/>
  <outline>
    <contour>
      <point x="63.36363636363636" y="518.3939393939394" type="line"/>
      <point x="88.87878787878788" y="518.3939393939394" type="line"/>
      <point x="103.12121212121212" y="714.0" type="line"/>
      <point x="47.54545454545455" y="714.0" type="line"/>
    </contour>
  </outline>
</glyph>
<glyph name="parenleft" format="2">
  <advance width="292.42424242424244"/>
  <unicode hex="0028"/>
  <outline>
    <contour>
      <point x="260.42424242424244" y="-116.96969696969697" type="curve"/>
      <point x="260.42424242424244" y="-88.3030303030303" type="line"/>
      <point x="113.18181818181819" y="-16.333333333333332"/>
      <point x="101.12121212121212" y="156.42424242424244"/>
      <point x="101.12121212121212" y="315.42424242424244" type="curve" smooth="yes"/>
      <point x="101.12121212121212" y="474.42424242424244"/>
      <point x="110.81818181818183" y="653.2727272727273"/>
      <point x="260.42424242424244" y="718.1515151515151" type="curve"/>
      <point x="260.42424242424244" y="747.3939393939394" type="line"/>
      <point x="115.81818181818181" y="691.7272727272727"/>
      <point x="57.0" y="580.6363636363636"/>
      <point x="57.0" y="315.42424242424244" type="curve" smooth="yes"/>
      <point x="57.0" y="50.78787878787879"/>
      <point x="115.81818181818181" y="-59.72727272727273"/>
    </contour>
  </outline>
</glyph>
<glyph name="parenright" format="2">
  <advance width="292.42424242424244"/>
  <unicode hex="0029"/>
  <outline>
    <contour>
      <point x="51.696969696969695" y="-116.96969696969697" type="line"/>
      <point x="196.3030303030303" y="-59.72727272727273"/>
      <point x="255.12121212121212" y="50.78787878787879"/>
      <point x="255.12121212121212" y="315.42424242424244" type="curve" smooth="yes"/>
      <point x="255.12121212121212" y="580.6363636363636"/>
      <point x="196.3030303030303" y="691.7272727272727"/>
      <point x="51.696969696969695" y="747.3939393939394" type="curve"/>
      <point x="51.696969696969695" y="718.1515151515151" type="line"/>
      <point x="201.3030303030303" y="653.2727272727273"/>
      <point x="211.0" y="474.42424242424244"/>
      <point x="211.0" y="315.42424242424244" type="curve" smooth="yes"/>
      <point x="211.0" y="156.42424242424244"/>
      <point x="198.93939393939394" y="-16.333333333333332"/>
      <point x="51.696969696969695" y="-88.3030303030303" type="curve"/>
    </contour>
  </outline>
</glyph>
<glyph name="asterisk" format="2">
  <advance width="436.969696969697"/>
  <unicode hex="002A"/>
  <outline>
    <contour>
      <point x="189.8181818181818" y="378.0" type="line"/>
      <point x="243.72727272727272" y="378.0" type="line"/>
      <point x="226.75757575757575" y="550.1818181818181" type="line"/>
      <point x="366.0" y="463.4848484848485" type="line"/>
      <point x="386.8181818181818" y="508.969696969697" type="line"/>
      <point x="228.84848484848484" y="569.0" type="line"/>
      <point x="386.8181818181818" y="629.030303030303" type="line"/>
      <point x="366.0" y="677.0909090909091" type="line"/>
      <point x="226.75757575757575" y="587.8181818181819" type="line"/>
      <point x="242.15151515151516" y="760.0" type="line"/>
      <point x="189.8181818181818" y="760.0" type="line"/>
      <point x="206.36363636363637" y="588.3939393939394" type="line"/>
      <point x="68.12121212121212" y="679.0909090909091" type="line"/>
      <point x="45.72727272727273" y="630.030303030303" type="line"/>
      <point x="202.6969696969697" y="569.0" type="line"/>
      <point x="45.72727272727273" y="507.969696969697" type="line"/>
      <point x="68.12121212121212" y="461.4848484848485" type="line"/>
      <point x="205.36363636363637" y="550.1818181818181" type="line"/>
    </contour>
  </outline>
</glyph>
<glyph name="plus" format="2">
  <advance width="559.0"/>
  <unicode hex="002B"/>
  <outline>
    <contour>
      <point x="261.6060606060606" y="143.0" type="line"/>
      <point x="296.3939393939394" y="143.0" type="line"/>
      <point x="296.3939393939394" y="339.8181818181818" type="line"/>
      <point x="494.0" y="339.8181818181818" type="line"/>
      <point x="494.0" y="374.3939393939394" type="line"/>
      <point x="296.3939393939394" y="374.3939393939394" type="line"/>
      <point x="296.3939393939394" y="572.0" type="line"/>
      <point x="261.6060606060606" y="572.0" type="line"/>
      <point x="261.6060606060606" y="374.3939393939394" type="line"/>
      <point x="65.0" y="374.3939393939394" type="line"/>
      <point x="65.0" y="339.8181818181818" type="line"/>
      <point x="261.6060606060606" y="339.8181818181818" type="line"/>
    </contour>
  </outline>
</glyph>
<glyph name="comma" format="2">
  <advance width="205.87878787878788"/>
  <unicode hex="002C"/>
  <outline>
    <contour>
      <point x="30.0" y="-154.0" type="line"/>
      <point x="119.06060606060606" y="-125.3030303030303"/>
      <point x="153.03030303030303" y="-61.90909090909091"/>
      <point x="153.03030303030303" y="8.909090909090914" type="curve" smooth="yes"/>
      <point x="153.03030303030303" y="61.75757575757576"/>
      <point x="126.48484848484848" y="84.87878787878788"/>
      <point x="96.51515151515152" y="84.87878787878788" type="curve" smooth="yes"/>
      <point x="73.6969696969697" y="84.87878787878788"/>
      <point x="61.45454545454545" y="70.18181818181819"/>
      <point x="61.45454545454545" y="47.93939393939394" type="curve" smooth="yes"/>
      <point x="61.45454545454545" y="15.303030303030303"/>
      <point x="113.96969696969697" y="6.969696969696971"/>
      <point x="113.96969696969697" y="-28.303030303030305" type="curve" smooth="yes"/>
      <point x="113.96969696969697" y="-61.0"/>
      <point x="90.27272727272728" y="-109.9090909090909"/>
      <point x="30.0" y="-127.75757575757575" type="curve"/>
    </contour>
  </outline>
</glyph>
<glyph name="hyphen" format="2">
  <advance width="310.0"/>
  <unicode hex="002D"/>
  <outline>
    <contour>
      <point x="25.0" y="253.9090909090909" type="line"/>
      <point x="285.0" y="253.9090909090909" type="line"/>
      <point x="285.0" y="291.8787878787879" type="line"/>
      <point x="25.0" y="291.8787878787879" type="line"/>
    </contour>
  </outline>
</glyph>
<glyph name="period" format="2">
  <advance width="205.87878787878788"/>
  <unicode hex="002E"/>
  <outline>
    <contour>
      <point x="102.93939393939394" y="-5.424242424242424" type="curve" smooth="yes"/>
      <point x="122.75757575757575" y="-5.424242424242424"/>
      <point x="139.15151515151516" y="5.272727272727273"/>
      <point x="139.15151515151516" y="40.515151515151516" type="curve" smooth="yes"/>
      <point x="139.15151515151516" y="75.18181818181819"/>
      <point x="122.75757575757575" y="84.87878787878788"/>
      <point x="102.93939393939394" y="84.87878787878788" type="curve" smooth="yes"/>
      <point x="83.6969696969697" y="84.87878787878788"/>
      <point x="66.72727272727272" y="75.18181818181819"/>
      <point x="66.72727272727272" y="40.515151515151516" type="curve" smooth="yes"/>
      <point x="66.72727272727272" y="5.272727272727273"/>
      <point x="83.6969696969697" y="-5.424242424242424"/>
    </contour>
  </outline>
</glyph>
<glyph name="zero" format="2">
  <advance width="559.0"/>
  <unicode hex="0030"/>
  <outline>
    <contour>
      <point x="280.0" y="-10.0" type="curve" smooth="yes"/>
      <point x="431.4848484848485" y="-10.0"/>
      <point x="502.969696969697" y="117.30303030303031"/>
      <point x="502.969696969697" y="358.0" type="curve" smooth="yes"/>
      <point x="502.969696969697" y="602.060606060606"/>
      <point x="436.2121212121212" y="724.0"/>
      <point x="281.0" y="724.0" type="curve" smooth="yes"/>
      <point x="121.3030303030303" y="724.0"/>
      <point x="56.03030303030303" y="598.9090909090909"/>
      <point x="56.03030303030303" y="359.0" type="curve" smooth="yes"/>
      <point x="56.03030303030303" y="111.0"/>
      <point x="122.87878787878788" y="-10.0"/>
    </contour>
    <contour>
      <point x="279.2121212121212" y="21.151515151515152" type="curve" smooth="yes"/>
      <point x="153.06060606060606" y="21.151515151515152"/>
      <point x="100.15151515151516" y="129.27272727272728"/>
      <point x="100.15151515151516" y="358.0" type="curve" smooth="yes"/>
      <point x="100.15151515151516" y="573.3333333333334"/>
      <point x="145.1818181818182" y="692.8484848484849"/>
      <point x="280.2121212121212" y="692.8484848484849" type="curve" smooth="yes"/>
      <point x="414.8181818181818" y="692.8484848484849"/>
      <point x="458.8484848484849" y="578.8484848484849"/>
      <point x="458.8484848484849" y="358.0" type="curve" smooth="yes"/>
      <point x="458.8484848484849" y="135.57575757575756"/>
      <point x="406.1515151515151" y="21.151515151515152"/>
    </contour>
  </outline>
</glyph>
<glyph name="one" format="2">
  <advance width="559.0"/>
  <unicode hex="0031"/>
  <outline>
    <contour>
      <point x="125.93939393939394" y="0.0" type="line"/>
      <point x="428.1515151515151" y="0.0" type="line"/>
      <point x="428.1515151515151" y="24.666666666666668" type="line"/>
      <point x="363.3939393939394" y="24.666666666666668" type="line" smooth="yes"/>
      <point x="314.45454545454544" y="24.666666666666668"/>
      <point x="301.8787878787879" y="35.24242424242424"/>
      <point x="301.8787878787879" y="109.27272727272728" type="curve" smooth="yes"/>
      <point x="301.8787878787879" y="718.0" type="line"/>
      <point x="272.54545454545456" y="718.0" type="line"/>
      <point x="234.06060606060606" y="674.6666666666666" type="line" smooth="yes"/>
      <point x="177.5151515151515" y="612.2727272727273"/>
      <point x="140.66666666666666" y="599.7878787878788"/>
      <point x="89.63636363636364" y="589.0" type="curve"/>
      <point x="89.63636363636364" y="573.5454545454545"/>
      <point x="101.18181818181819" y="563.3636363636364"/>
      <point x="126.24242424242425" y="563.3636363636364" type="curve" smooth="yes"/>
      <point x="166.24242424242425" y="563.3636363636364"/>
      <point x="210.54545454545453" y="600.6363636363636"/>
      <point x="258.3939393939394" y="662.6363636363636" type="curve"/>
      <point x="258.3939393939394" y="109.27272727272728" type="line" smooth="yes"/>
      <point x="258.3939393939394" y="35.24242424242424"/>
      <point x="245.8181818181818" y="24.666666666666668"/>
      <point x="196.87878787878788" y="24.666666666666668" type="curve" smooth="yes"/>
      <point x="125.93939393939394" y="24.666666666666668" type="line"/>
    </contour>
  </outline>
</glyph>
<glyph name="two" format="2">
  <advance width="559.0"/>
  <unicode hex="0032"/>
  <outline>
    <contour>
      <point x="66.75757575757575" y="0.0" type="line"/>
      <point x="482.57575757575756" y="0.0" type="line"/>
      <point x="487.57575757575756" y="136.75757575757575" type="line"/>
      <point x="462.9090909090909" y="136.75757575757575" type="line"/>
      <point x="460.4848484848485" y="107.72727272727272" type="line" smooth="yes"/>
      <point x="456.2121212121212" y="55.333333333333336"/>
      <point x="448.3030303030303" y="36.66666666666667"/>
      <point x="394.6060606060606" y="36.66666666666667" type="curve" smooth="yes"/>
      <point x="112.39393939393939" y="36.66666666666667" type="line"/>
      <point x="339.6969696969697" y="285.9090909090909" type="line" smooth="yes"/>
      <point x="417.1212121212121" y="371.1818181818182"/>
      <point x="465.72727272727275" y="435.6363636363636"/>
      <point x="465.72727272727275" y="544.3939393939394" type="curve" smooth="yes"/>
      <point x="465.72727272727275" y="639.0909090909091"/>
      <point x="406.06060606060606" y="724.0"/>
      <point x="272.1818181818182" y="724.0" type="curve" smooth="yes"/>
      <point x="148.6969696969697" y="724.0"/>
      <point x="90.36363636363636" y="657.5454545454545"/>
      <point x="90.36363636363636" y="603.3939393939394" type="curve" smooth="yes"/>
      <point x="90.36363636363636" y="573.6666666666666"/>
      <point x="103.93939393939394" y="559.6666666666666"/>
      <point x="125.15151515151516" y="559.6666666666666" type="curve"/>
      <point x="125.15151515151516" y="643.3939393939394"/>
      <point x="175.66666666666666" y="693.6969696969697"/>
      <point x="272.1818181818182" y="693.6969696969697" type="curve" smooth="yes"/>
      <point x="383.1515151515151" y="693.6969696969697"/>
      <point x="422.24242424242425" y="614.3333333333334"/>
      <point x="422.24242424242425" y="540.6969696969697" type="curve" smooth="yes"/>
      <point x="422.24242424242425" y="439.24242424242425"/>
      <point x="380.72727272727275" y="382.6969696969697"/>
      <point x="288.1212121212121" y="278.6060606060606" type="curve" smooth="yes"/>
      <point x="66.75757575757575" y="32.81818181818182" type="line"/>
    </contour>
  </outline>
</glyph>
<glyph name="three" format="2">
  <advance width="559.0"/>
  <unicode hex="0033"/>
  <outline>
    <contour>
      <point x="266.6969696969697" y="-9.212121212121213" type="curve" smooth="yes"/>
      <point x="378.54545454545456" y="-9.212121212121213"/>
      <point x="488.3939393939394" y="49.303030303030305"/>
      <point x="488.3939393939394" y="194.54545454545456" type="curve" smooth="yes"/>
      <point x="488.3939393939394" y="322.6060606060606"/>
      <point x="410.4848484848485" y="369.8484848484849"/>
      <point x="336.4848484848485" y="377.8484848484849" type="curve"/>
      <point x="404.06060606060606" y="395.1212121212121"/>
      <point x="463.3939393939394" y="457.6666666666667"/>
      <point x="463.3939393939394" y="557.1212121212121" type="curve" smooth="yes"/>
      <point x="463.3939393939394" y="664.4242424242424"/>
      <point x="396.72727272727275" y="724.0"/>
      <point x="277.8181818181818" y="724.0" type="curve" smooth="yes"/>
      <point x="159.84848484848484" y="724.0"/>
      <point x="101.51515151515152" y="659.9090909090909"/>
      <point x="101.51515151515152" y="601.030303030303" type="curve" smooth="yes"/>
      <point x="101.51515151515152" y="573.6666666666666"/>
      <point x="115.0909090909091" y="559.6666666666666"/>
      <point x="136.3030303030303" y="559.6666666666666" type="curve"/>
      <point x="136.3030303030303" y="641.8181818181818"/>
      <point x="181.3030303030303" y="693.6969696969697"/>
      <point x="280.1818181818182" y="693.6969696969697" type="curve" smooth="yes"/>
      <point x="372.1515151515151" y="693.6969696969697"/>
      <point x="419.4848484848485" y="642.969696969697"/>
      <point x="419.4848484848485" y="553.1515151515151" type="curve" smooth="yes"/>
      <point x="419.4848484848485" y="449.4848484848485"/>
      <point x="352.06060606060606" y="388.6969696969697"/>
      <point x="255.39393939393938" y="388.6969696969697" type="curve"/>
      <point x="226.54545454545456" y="388.6969696969697" type="line"/>
      <point x="226.54545454545456" y="358.1818181818182" type="line"/>
      <point x="260.1212121212121" y="358.1818181818182" type="line" smooth="yes"/>
      <point x="391.8181818181818" y="358.1818181818182"/>
      <point x="444.27272727272725" y="297.6666666666667"/>
      <point x="444.27272727272725" y="192.3939393939394" type="curve" smooth="yes"/>
      <point x="444.27272727272725" y="77.9090909090909"/>
      <point x="362.45454545454544" y="21.93939393939394"/>
      <point x="267.6969696969697" y="21.93939393939394" type="curve" smooth="yes"/>
      <point x="159.9090909090909" y="21.93939393939394"/>
      <point x="113.12121212121212" y="71.36363636363636"/>
      <point x="113.12121212121212" y="142.15151515151516" type="curve"/>
      <point x="96.39393939393939" y="142.15151515151516"/>
      <point x="83.21212121212122" y="130.75757575757575"/>
      <point x="83.21212121212122" y="101.78787878787878" type="curve" smooth="yes"/>
      <point x="83.21212121212122" y="46.72727272727273"/>
      <point x="139.42424242424244" y="-9.212121212121213"/>
    </contour>
  </outline>
</glyph>
<glyph name="four" format="2">
  <advance width="559.0"/>
  <unicode hex="0034"/>
  <outline>
    <contour>
      <point x="255.96969696969697" y="0.0" type="line"/>
      <point x="501.8181818181818" y="0.0" type="line"/>
      <point x="501.8181818181818" y="24.666666666666668" type="line"/>
      <point x="469.1212121212121" y="24.666666666666668" type="line" smooth="yes"/>
      <point x="420.1818181818182" y="24.666666666666668"/>
      <point x="407.6060606060606" y="35.24242424242424"/>
      <point x="407.6060606060606" y="109.27272727272728" type="curve" smooth="yes"/>
      <point x="407.6060606060606" y="205.45454545454544" type="line"/>
      <point x="545.0" y="205.45454545454544" type="line"/>
      <point x="545.0" y="237.03030303030303" type="line"/>
      <point x="407.6060606060606" y="237.03030303030303" type="line"/>
      <point x="407.6060606060606" y="714.0" type="line"/>
      <point x="364.6060606060606" y="714.0" type="line"/>
      <point x="21.727272727272727" y="227.54545454545456" type="line"/>
      <point x="21.727272727272727" y="205.45454545454544" type="line"/>
      <point x="365.1818181818182" y="205.45454545454544" type="line"/>
      <point x="365.1818181818182" y="109.27272727272728" type="line" smooth="yes"/>
      <point x="365.1818181818182" y="35.24242424242424"/>
      <point x="352.6060606060606" y="24.666666666666668"/>
      <point x="303.6666666666667" y="24.666666666666668" type="curve" smooth="yes"/>
      <point x="255.96969696969697" y="24.666666666666668" type="line"/>
    </contour>
    <contour>
      <point x="65.36363636363636" y="237.03030303030303" type="line"/>
      <point x="256.969696969697" y="507.3333333333333" type="line" smooth="yes"/>
      <point x="290.2121212121212" y="554.3636363636364"/>
      <point x="355.24242424242425" y="650.8787878787879"/>
      <point x="368.24242424242425" y="674.7272727272727" type="curve"/>
      <point x="366.3939393939394" y="612.7272727272727"/>
      <point x="365.1818181818182" y="504.45454545454544"/>
      <point x="365.1818181818182" y="446.45454545454544" type="curve" smooth="yes"/>
      <point x="365.1818181818182" y="237.03030303030303" type="line"/>
    </contour>
  </outline>
</glyph>
<glyph name="five" format="2">
  <advance width="559.0"/>
  <unicode hex="0035"/>
  <outline>
    <contour>
      <point x="247.93939393939394" y="-10.0" type="curve" smooth="yes"/>
      <point x="390.6969696969697" y="-10.0"/>
      <point x="465.5151515151515" y="89.0909090909091"/>
      <point x="465.5151515151515" y="216.42424242424244" type="curve" smooth="yes"/>
      <point x="465.5151515151515" y="354.27272727272725"/>
      <point x="372.8181818181818" y="424.27272727272725"/>
      <point x="256.42424242424244" y="424.27272727272725" type="curve" smooth="yes"/>
      <point x="208.45454545454544" y="424.27272727272725"/>
      <point x="167.3030303030303" y="413.6969696969697"/>
      <point x="138.63636363636363" y="394.8787878787879" type="curve"/>
      <point x="164.72727272727272" y="673.1818181818181" type="line"/>
      <point x="354.0" y="673.1818181818181" type="line" smooth="yes"/>
      <point x="406.24242424242425" y="673.1818181818181"/>
      <point x="414.24242424242425" y="668.8484848484849"/>
      <point x="416.6666666666667" y="621.1515151515151" type="curve" smooth="yes"/>
      <point x="418.3030303030303" y="592.7272727272727" type="line"/>
      <point x="442.969696969697" y="592.7272727272727" type="line"/>
      <point x="439.54545454545456" y="712.2121212121212" type="line"/>
      <point x="137.06060606060606" y="712.2121212121212" type="line"/>
      <point x="103.48484848484848" y="355.8484848484849" type="line"/>
      <point x="118.81818181818181" y="351.2121212121212" type="line"/>
      <point x="152.4848484848485" y="381.1212121212121"/>
      <point x="201.96969696969697" y="392.9090909090909"/>
      <point x="255.21212121212122" y="392.9090909090909" type="curve" smooth="yes"/>
      <point x="349.57575757575756" y="392.9090909090909"/>
      <point x="421.3939393939394" y="330.09090909090907"/>
      <point x="421.3939393939394" y="216.42424242424244" type="curve" smooth="yes"/>
      <point x="421.3939393939394" y="97.3030303030303"/>
      <point x="358.030303030303" y="22.212121212121215"/>
      <point x="251.6060606060606" y="22.212121212121215" type="curve" smooth="yes"/>
      <point x="167.45454545454544" y="22.212121212121215"/>
      <point x="104.60606060606061" y="55.18181818181819"/>
      <point x="104.60606060606061" y="131.0909090909091" type="curve"/>
      <point x="86.81818181818181" y="131.0909090909091"/>
      <point x="74.69696969696969" y="120.9090909090909"/>
      <point x="74.69696969696969" y="92.57575757575758" type="curve" smooth="yes"/>
      <point x="74.69696969696969" y="40.484848484848484"/>
      <point x="133.8181818181818" y="-10.0"/>
    </contour>
  </outline>
</glyph>
<glyph name="seven" format="2">
  <advance width="559.0"/>
  <unicode hex="0037"/>
  <outline>
    <contour>
      <point x="186.84848484848484" y="0.0" type="line"/>
      <point x="224.03030303030303" y="0.0" type="line"/>
      <point x="496.8181818181818" y="688.7272727272727" type="line"/>
      <point x="496.8181818181818" y="712.2121212121212" type="line"/>
      <point x="64.78787878787878" y="712.2121212121212" type="line"/>
      <point x="59.0" y="560.3636363636364" type="line"/>
      <point x="83.66666666666667" y="560.3636363636364" type="line"/>
      <point x="87.66666666666667" y="620.6060606060606" type="line" smooth="yes"/>
      <point x="90.66666666666667" y="666.2121212121212"/>
      <point x="103.36363636363636" y="673.1818181818181"/>
      <point x="139.36363636363637" y="673.1818181818181" type="curve" smooth="yes"/>
      <point x="455.93939393939394" y="673.1818181818181" type="line"/>
    </contour>
  </outline>
</glyph>
<glyph name="eight" format="2">
  <advance width="559.0"/>
  <unicode hex="0038"/>
  <outline>
    <contour>
      <point x="277.72727272727275" y="-10.0" type="curve" smooth="yes"/>
      <point x="407.969696969697" y="-10.0"/>
      <point x="497.24242424242425" y="52.96969696969697"/>
      <point x="497.24242424242425" y="172.0909090909091" type="curve" smooth="yes"/>
      <point x="497.24242424242425" y="274.8484848484849"/>
      <point x="444.42424242424244" y="323.3939393939394"/>
      <point x="328.0909090909091" y="375.90909090909093" type="curve"/>
      <point x="420.1212121212121" y="409.6060606060606"/>
      <point x="474.1212121212121" y="468.72727272727275"/>
      <point x="474.1212121212121" y="559.8787878787879" type="curve" smooth="yes"/>
      <point x="474.1212121212121" y="652.7878787878788"/>
      <point x="409.2121212121212" y="724.0"/>
      <point x="283.42424242424244" y="724.0" type="curve" smooth="yes"/>
      <point x="159.36363636363637" y="724.0"/>
      <point x="92.63636363636364" y="655.9090909090909"/>
      <point x="92.63636363636364" y="552.8787878787879" type="curve" smooth="yes"/>
      <point x="92.63636363636364" y="462.57575757575756"/>
      <point x="151.93939393939394" y="413.6666666666667"/>
      <point x="239.75757575757575" y="373.030303030303" type="curve"/>
      <point x="133.06060606060606" y="334.969696969697"/>
      <point x="68.06060606060606" y="271.8484848484849"/>
      <point x="68.06060606060606" y="171.12121212121212" type="curve" smooth="yes"/>
      <point x="68.06060606060606" y="60.60606060606061"/>
      <point x="140.33333333333334" y="-10.0"/>
    </contour>
    <contour>
      <point x="276.42424242424244" y="19.454545454545457" type="curve" smooth="yes"/>
      <point x="166.15151515151516" y="19.454545454545457"/>
      <point x="110.69696969696969" y="75.45454545454545"/>
      <point x="110.69696969696969" y="171.84848484848484" type="curve" smooth="yes"/>
      <point x="110.69696969696969" y="253.15151515151516"/>
      <point x="166.45454545454547" y="319.75757575757575"/>
      <point x="276.72727272727275" y="356.9090909090909" type="curve"/>
      <point x="424.6363636363636" y="296.1818181818182"/>
      <point x="455.8787878787879" y="243.3030303030303"/>
      <point x="455.8787878787879" y="169.0" type="curve" smooth="yes"/>
      <point x="455.8787878787879" y="69.93939393939394"/>
      <point x="385.4848484848485" y="19.454545454545457"/>
    </contour>
    <contour>
      <point x="292.4848484848485" y="391.8181818181818" type="curve"/>
      <point x="187.72727272727272" y="436.75757575757575"/>
      <point x="134.63636363636363" y="472.3939393939394"/>
      <point x="134.63636363636363" y="560.1515151515151" type="curve" smooth="yes"/>
      <point x="134.63636363636363" y="641.7575757575758"/>
      <point x="188.24242424242425" y="694.3333333333334"/>
      <point x="286.8787878787879" y="694.3333333333334" type="curve" smooth="yes"/>
      <point x="392.93939393939394" y="694.3333333333334"/>
      <point x="433.1818181818182" y="627.6060606060606"/>
      <point x="433.1818181818182" y="557.1515151515151" type="curve" smooth="yes"/>
      <point x="433.1818181818182" y="484.0"/>
      <point x="399.7878787878788" y="428.030303030303"/>
    </contour>
  </outline>
</glyph>
<glyph name="nine" format="2">
  <advance width="559.0"/>
  <unicode hex="0039"/>
  <outline>
    <contour>
      <point x="227.0" y="-11.0" type="curve"/>
      <point x="409.969696969697" y="-11.0"/>
      <point x="482.24242424242425" y="135.45454545454544"/>
      <point x="482.24242424242425" y="388.0" type="curve"/>
      <point x="482.24242424242425" y="615.1212121212121"/>
      <point x="400.0" y="724.0"/>
      <point x="258.6969696969697" y="724.0" type="curve" smooth="yes"/>
      <point x="131.78787878787878" y="724.0"/>
      <point x="66.75757575757575" y="625.939393939394"/>
      <point x="66.75757575757575" y="487.45454545454544" type="curve" smooth="yes"/>
      <point x="66.75757575757575" y="368.2121212121212"/>
      <point x="132.78787878787878" y="284.45454545454544"/>
      <point x="265.3333333333333" y="284.45454545454544" type="curve" smooth="yes"/>
      <point x="345.57575757575756" y="284.45454545454544"/>
      <point x="413.27272727272725" y="330.06060606060606"/>
      <point x="438.3333333333333" y="354.8181818181818" type="curve"/>
      <point x="436.8484848484849" y="134.9090909090909"/>
      <point x="368.1515151515151" y="20.363636363636363"/>
      <point x="233.5151515151515" y="20.363636363636363" type="curve" smooth="yes"/>
      <point x="171.3030303030303" y="20.363636363636363"/>
      <point x="133.93939393939394" y="43.18181818181819"/>
      <point x="112.0" y="89.12121212121212" type="curve"/>
      <point x="104.0909090909091" y="85.69696969696969"/>
      <point x="98.54545454545455" y="76.36363636363636"/>
      <point x="98.54545454545455" y="63.18181818181818" type="curve" smooth="yes"/>
      <point x="98.54545454545455" y="29.848484848484848"/>
      <point x="135.27272727272728" y="-11.0"/>
    </contour>
    <contour>
      <point x="266.8484848484849" y="316.6666666666667" type="curve" smooth="yes"/>
      <point x="164.63636363636363" y="316.6666666666667"/>
      <point x="110.66666666666667" y="383.5151515151515"/>
      <point x="110.66666666666667" y="488.0" type="curve" smooth="yes"/>
      <point x="110.66666666666667" y="605.0"/>
      <point x="154.8181818181818" y="692.6363636363636"/>
      <point x="261.8484848484849" y="692.6363636363636" type="curve" smooth="yes"/>
      <point x="375.8787878787879" y="692.6363636363636"/>
      <point x="437.9090909090909" y="589.8484848484849"/>
      <point x="438.54545454545456" y="394.5151515151515" type="curve"/>
      <point x="415.8181818181818" y="371.2121212121212"/>
      <point x="358.6363636363636" y="316.6666666666667"/>
    </contour>
  </outline>
</glyph>
<glyph name="colon" format="2">
  <advance width="237.15151515151516"/>
  <unicode hex="003A"/>
  <outline>
    <contour>
      <point x="117.21212121212122" y="427.06060606060606" type="curve" smooth="yes"/>
      <point x="137.03030303030303" y="427.06060606060606"/>
      <point x="153.42424242424244" y="437.75757575757575"/>
      <point x="153.42424242424244" y="473.0" type="curve" smooth="yes"/>
      <point x="153.42424242424244" y="507.6666666666667"/>
      <point x="137.03030303030303" y="517.3636363636364"/>
      <point x="117.21212121212122" y="517.3636363636364" type="curve" smooth="yes"/>
      <point x="97.96969696969697" y="517.3636363636364"/>
      <point x="81.0" y="507.6666666666667"/>
      <point x="81.0" y="473.0" type="curve" smooth="yes"/>
      <point x="81.0" y="437.75757575757575"/>
      <point x="97.96969696969697" y="427.06060606060606"/>
    </contour>
    <contour>
      <point x="117.21212121212122" y="-5.424242424242424" type="curve" smooth="yes"/>
      <point x="137.03030303030303" y="-5.424242424242424"/>
      <point x="153.42424242424244" y="5.272727272727273"/>
      <point x="153.42424242424244" y="40.515151515151516" type="curve" smooth="yes"/>
      <point x="153.42424242424244" y="75.18181818181819"/>
      <point x="137.03030303030303" y="84.87878787878788"/>
      <point x="117.21212121212122" y="84.87878787878788" type="curve" smooth="yes"/>
      <point x="97.96969696969697" y="84.87878787878788"/>
      <point x="81.0" y="75.18181818181819"/>
      <point x="81.0" y="40.515151515151516" type="curve" smooth="yes"/>
      <point x="81.0" y="5.272727272727273"/>
      <point x="97.96969696969697" y="-5.424242424242424"/>
    </contour>
  </outline>
</glyph>
<glyph name="semicolon" format="2">
  <advance width="237.15151515151516"/>
  <unicode hex="003B"/>
  <outline>
    <contour>
      <point x="43.27272727272727" y="-154.0" type="line"/>
      <point x="132.33333333333334" y="-125.3030303030303"/>
      <point x="166.3030303030303" y="-61.90909090909091"/>
      <point x="166.3030303030303" y="8.909090909090914" type="curve" smooth="yes"/>
      <point x="166.3030303030303" y="61.75757575757576"/>
      <point x="139.75757575757575" y="84.87878787878788"/>
      <point x="109.78787878787878" y="84.87878787878788" type="curve" smooth="yes"/>
      <point x="86.96969696969697" y="84.87878787878788"/>
      <point x="74.72727272727272" y="70.18181818181819"/>
      <point x="74.72727272727272" y="47.93939393939394" type="curve" smooth="yes"/>
      <point x="74.72727272727272" y="15.303030303030303"/>
      <point x="127.24242424242425" y="6.969696969696971"/>
      <point x="127.24242424242425" y="-28.303030303030305" type="curve" smooth="yes"/>
      <point x="127.24242424242425" y="-61.0"/>
      <point x="103.54545454545455" y="-109.9090909090909"/>
      <point x="43.27272727272727" y="-127.75757575757575" type="curve"/>
    </contour>
    <contour>
      <point x="117.21212121212122" y="427.06060606060606" type="curve" smooth="yes"/>
      <point x="137.03030303030303" y="427.06060606060606"/>
      <point x="153.42424242424244" y="437.75757575757575"/>
      <point x="153.42424242424244" y="473.0" type="curve" smooth="yes"/>
      <point x="153.42424242424244" y="507.6666666666667"/>
      <point x="137.03030303030303" y="517.3636363636364"/>
      <point x="117.21212121212122" y="517.3636363636364" type="curve" smooth="yes"/>
      <point x="97.96969696969697" y="517.3636363636364"/>
      <point x="81.0" y="507.6666666666667"/>
      <point x="81.0" y="473.0" type="curve" smooth="yes"/>
      <point x="81.0" y="437.75757575757575"/>
      <point x="97.96969696969697" y="427.06060606060606"/>
    </contour>
  </outline>
</glyph>
<glyph name="question" format="2">
  <advance width="468.4848484848485"/>
  <unicode hex="003F"/>
  <outline>
    <contour>
      <point x="205.03030303030303" y="201.0" type="line"/>
      <point x="233.72727272727272" y="201.0" type="line"/>
      <point x="236.87878787878788" y="321.8787878787879" type="line"/>
      <point x="351.42424242424244" y="374.45454545454544"/>
      <point x="403.3030303030303" y="439.3030303030303"/>
      <point x="403.3030303030303" y="549.3030303030303" type="curve" smooth="yes"/>
      <point x="403.3030303030303" y="652.2727272727273"/>
      <point x="333.1515151515151" y="724.0"/>
      <point x="215.8181818181818" y="724.0" type="curve" smooth="yes"/>
      <point x="88.39393939393939" y="724.0"/>
      <point x="46.93939393939394" y="660.2424242424242"/>
      <point x="46.93939393939394" y="616.7272727272727" type="curve" smooth="yes"/>
      <point x="46.93939393939394" y="588.6969696969697"/>
      <point x="59.878787878787875" y="572.2121212121212"/>
      <point x="81.0909090909091" y="572.2121212121212" type="curve"/>
      <point x="81.0909090909091" y="634.1212121212121"/>
      <point x="107.72727272727272" y="693.9090909090909"/>
      <point x="219.0909090909091" y="693.9090909090909" type="curve" smooth="yes"/>
      <point x="314.2121212121212" y="693.9090909090909"/>
      <point x="361.969696969697" y="632.939393939394"/>
      <point x="361.969696969697" y="552.9090909090909" type="curve" smooth="yes"/>
      <point x="361.969696969697" y="454.7878787878788"/>
      <point x="314.72727272727275" y="391.3333333333333"/>
      <point x="201.87878787878788" y="340.3939393939394" type="curve"/>
    </contour>
    <contour>
      <point x="218.27272727272728" y="-5.424242424242424" type="curve" smooth="yes"/>
      <point x="238.0909090909091" y="-5.424242424242424"/>
      <point x="254.4848484848485" y="5.272727272727273"/>
      <point x="254.4848484848485" y="40.515151515151516" type="curve" smooth="yes"/>
      <point x="254.4848484848485" y="75.18181818181819"/>
      <point x="238.0909090909091" y="84.87878787878788"/>
      <point x="218.27272727272728" y="84.87878787878788" type="curve" smooth="yes"/>
      <point x="199.03030303030303" y="84.87878787878788"/>
      <point x="182.06060606060606" y="75.18181818181819"/>
      <point x="182.06060606060606" y="40.515151515151516" type="curve" smooth="yes"/>
      <point x="182.06060606060606" y="5.272727272727273"/>
      <point x="199.03030303030303" y="-5.424242424242424"/>
    </contour>
  </outline>
</glyph>
<glyph name="bracketleft" format="2">
  <advance width="306.42424242424244"/>
  <unicode hex="005B"/>
  <outline>
    <contour>
      <point x="100.0" y="-128.0" type="line"/>
      <point x="269.42424242424244" y="-128.0" type="line"/>
      <point x="269.42424242424244" y="-103.33333333333333" type="line"/>
      <point x="204.36363636363637" y="-103.33333333333333" type="line" smooth="yes"/>
      <point x="155.42424242424244" y="-103.33333333333333"/>
      <point x="142.84848484848484" y="-92.75757575757575"/>
      <point x="142.84848484848484" y="-18.727272727272727" type="curve" smooth="yes"/>
      <point x="142.84848484848484" y="650.7272727272727" type="line" smooth="yes"/>
      <point x="142.84848484848484" y="724.7575757575758"/>
      <point x="155.42424242424244" y="735.3333333333334"/>
      <point x="204.36363636363637" y="735.3333333333334" type="curve" smooth="yes"/>
      <point x="269.42424242424244" y="735.3333333333334" type="line"/>
      <point x="269.42424242424244" y="760.0" type="line"/>
      <point x="100.0" y="760.0" type="line"/>
    </contour>
  </outline>
</glyph>
<glyph name="bracketright" format="2">
  <advance width="306.42424242424244"/>
  <unicode hex="005D"/>
  <outline>
    <contour>
      <point x="37.0" y="-128.0" type="line"/>
      <point x="206.42424242424244" y="-128.0" type="line"/>
      <point x="206.42424242424244" y="760.0" type="line"/>
      <point x="37.0" y="760.0" type="line"/>
      <point x="37.0" y="735.3333333333334" type="line"/>
      <point x="102.06060606060606" y="735.3333333333334" type="line" smooth="yes"/>
      <point x="151.0" y="735.3333333333334"/>
      <point x="163.57575757575756" y="724.7575757575758"/>
      <point x="163.57575757575756" y="650.7272727272727" type="curve" smooth="yes"/>
      <point x="163.57575757575756" y="-18.727272727272727" type="line" smooth="yes"/>
      <point x="163.57575757575756" y="-92.75757575757575"/>
      <point x="151.0" y="-103.33333333333333"/>
      <point x="102.06060606060606" y="-103.33333333333333" type="curve" smooth="yes"/>
      <point x="37.0" y="-103.33333333333333" type="line"/>
    </contour>
  </outline>
</glyph>
<glyph name="asciicircum" format="2">
  <advance width="559.0"/>
  <unicode hex="005E"/>
  <outline>
    <contour>
      <point x="55.72727272727273" y="270.72727272727275" type="line"/>
      <point x="94.36363636363636" y="270.72727272727275" type="line"/>
      <point x="278.0" y="666.9090909090909" type="line"/>
      <point x="463.6363636363636" y="270.72727272727275" type="line"/>
      <point x="502.27272727272725" y="270.72727272727275" type="line"/>
      <point x="291.27272727272725" y="714.0" type="line"/>
      <point x="264.1515151515151" y="714.0" type="line"/>
    </contour>
  </outline>
</glyph>
<glyph name="braceleft" format="2">
  <advance width="413.8181818181818"/>
  <unicode hex="007B"/>
  <outline>
    <contour>
      <point x="307.27272727272725" y="-131.15151515151516" type="curve" smooth="yes"/>
      <point x="344.90909090909093" y="-131.15151515151516" type="line"/>
      <point x="344.90909090909093" y="-102.33333333333333" type="line"/>
      <point x="314.90909090909093" y="-102.33333333333333" type="line" smooth="yes"/>
      <point x="257.4848484848485" y="-102.33333333333333"/>
      <point x="232.9090909090909" y="-63.75757575757576"/>
      <point x="232.9090909090909" y="8.96969696969697" type="curve" smooth="yes"/>
      <point x="232.9090909090909" y="188.27272727272728" type="line" smooth="yes"/>
      <point x="232.9090909090909" y="259.0"/>
      <point x="197.9090909090909" y="306.3636363636364"/>
      <point x="135.3030303030303" y="315.42424242424244" type="curve"/>
      <point x="135.3030303030303" y="317.2121212121212" type="line"/>
      <point x="196.6969696969697" y="325.27272727272725"/>
      <point x="232.9090909090909" y="373.6363636363636"/>
      <point x="232.9090909090909" y="442.57575757575756" type="curve" smooth="yes"/>
      <point x="232.9090909090909" y="618.3030303030303" type="line" smooth="yes"/>
      <point x="232.9090909090909" y="693.6060606060606"/>
      <point x="257.4848484848485" y="731.1818181818181"/>
      <point x="318.8484848484849" y="731.1818181818181" type="curve" smooth="yes"/>
      <point x="344.90909090909093" y="731.1818181818181" type="line"/>
      <point x="344.90909090909093" y="760.0" type="line"/>
      <point x="307.27272727272725" y="760.0" type="line" smooth="yes"/>
      <point x="232.1818181818182" y="760.0"/>
      <point x="190.06060606060606" y="709.5757575757576"/>
      <point x="190.06060606060606" y="620.1515151515151" type="curve" smooth="yes"/>
      <point x="190.06060606060606" y="444.57575757575756" type="line" smooth="yes"/>
      <point x="190.06060606060606" y="357.27272727272725"/>
      <point x="138.06060606060606" y="328.969696969697"/>
      <point x="70.48484848484848" y="326.969696969697" type="curve"/>
      <point x="70.48484848484848" y="303.8787878787879" type="line"/>
      <point x="138.06060606060606" y="300.8787878787879"/>
      <point x="190.06060606060606" y="273.57575757575756"/>
      <point x="190.06060606060606" y="185.27272727272728" type="curve" smooth="yes"/>
      <point x="190.06060606060606" y="9.696969696969697" type="line" smooth="yes"/>
      <point x="190.06060606060606" y="-76.72727272727272"/>
      <point x="232.1818181818182" y="-131.15151515151516"/>
    </contour>
  </outline>
</glyph>
<glyph name="bar" format="2">
  <advance width="559.0"/>
  <unicode hex="007C"/>
  <outline>
    <contour>
      <point x="261.6060606060606" y="-240.0" type="line"/>
      <point x="296.3939393939394" y="-240.0" type="line"/>
      <point x="296.3939393939394" y="760.0" type="line"/>
      <point x="261.6060606060606" y="760.0" type="line"/>
    </contour>
  </outline>
</glyph>
<glyph name="braceright" format="2">
  <advance width="413.8181818181818"/>
  <unicode hex="007D"/>
  <outline>
    <contour>
      <point x="70.48484848484848" y="-131.15151515151516" type="line"/>
      <point x="108.12121212121212" y="-131.15151515151516" type="line" smooth="yes"/>
      <point x="183.21212121212122" y="-131.15151515151516"/>
      <point x="225.33333333333334" y="-76.72727272727272"/>
      <point x="225.33333333333334" y="9.696969696969697" type="curve" smooth="yes"/>
      <point x="225.33333333333334" y="185.27272727272728" type="line" smooth="yes"/>
      <point x="225.33333333333334" y="273.57575757575756"/>
      <point x="277.3333333333333" y="300.8787878787879"/>
      <point x="344.90909090909093" y="303.8787878787879" type="curve"/>
      <point x="344.90909090909093" y="326.969696969697" type="line"/>
      <point x="277.3333333333333" y="328.969696969697"/>
      <point x="225.33333333333334" y="357.27272727272725"/>
      <point x="225.33333333333334" y="444.57575757575756" type="curve" smooth="yes"/>
      <point x="225.33333333333334" y="620.1515151515151" type="line" smooth="yes"/>
      <point x="225.33333333333334" y="709.5757575757576"/>
      <point x="183.21212121212122" y="760.0"/>
      <point x="108.12121212121212" y="760.0" type="curve" smooth="yes"/>
      <point x="70.48484848484848" y="760.0" type="line"/>
      <point x="70.48484848484848" y="731.1818181818181" type="line"/>
      <point x="96.54545454545455" y="731.1818181818181" type="line" smooth="yes"/>
      <point x="157.9090909090909" y="731.1818181818181"/>
      <point x="182.4848484848485" y="693.6060606060606"/>
      <point x="182.4848484848485" y="618.3030303030303" type="curve" smooth="yes"/>
      <point x="182.4848484848485" y="442.57575757575756" type="line" smooth="yes"/>
      <point x="182.4848484848485" y="373.6363636363636"/>
      <point x="218.6969696969697" y="325.27272727272725"/>
      <point x="280.09090909090907" y="317.2121212121212" type="curve"/>
      <point x="280.09090909090907" y="315.42424242424244" type="line"/>
      <point x="217.4848484848485" y="306.3636363636364"/>
      <point x="182.4848484848485" y="259.0"/>
      <point x="182.4848484848485" y="188.27272727272728" type="curve" smooth="yes"/>
      <point x="182.4848484848485" y="8.96969696969697" type="line" smooth="yes"/>
      <point x="182.4848484848485" y="-63.75757575757576"/>
      <point x="157.9090909090909" y="-102.33333333333333"/>
      <point x="100.48484848484848" y="-102.33333333333333" type="curve" smooth="yes"/>
      <point x="70.48484848484848" y="-102.33333333333333" type="line"/>
    </contour>
  </outline>
</glyph>
<glyph name="asciitilde" format="2">
  <advance width="559.0"/>
  <unicode hex="007E"/>
  <outline>
    <contour>
      <point x="61.878787878787875" y="275.3030303030303" type="curve"/>
      <point x="98.03030303030303" y="275.3030303030303" type="line"/>
      <point x="112.9090909090909" y="359.6060606060606"/>
      <point x="126.75757575757575" y="403.1212121212121"/>
      <point x="173.63636363636363" y="403.1212121212121" type="curve" smooth="yes"/>
      <point x="217.24242424242425" y="403.1212121212121"/>
      <point x="245.96969696969697" y="365.93939393939394"/>
      <point x="273.8181818181818" y="337.5151515151515" type="curve" smooth="yes"/>
      <point x="307.6666666666667" y="302.3030303030303"/>
      <point x="342.8787878787879" y="275.3030303030303"/>
      <point x="385.1515151515151" y="275.3030303030303" type="curve" smooth="yes"/>
      <point x="468.90909090909093" y="275.3030303030303"/>
      <point x="485.75757575757575" y="379.72727272727275"/>
      <point x="496.1212121212121" y="437.6969696969697" type="curve"/>
      <point x="458.969696969697" y="437.6969696969697" type="line"/>
      <point x="444.45454545454544" y="370.0"/>
      <point x="433.3939393939394" y="309.8787878787879"/>
      <point x="385.3636363636364" y="309.8787878787879" type="curve" smooth="yes"/>
      <point x="353.42424242424244" y="309.8787878787879"/>
      <point x="323.4848484848485" y="337.030303030303"/>
      <point x="291.54545454545456" y="369.3333333333333" type="curve" smooth="yes"/>
      <point x="254.78787878787878" y="406.030303030303"/>
      <point x="222.78787878787878" y="437.6969696969697"/>
      <point x="173.63636363636363" y="437.6969696969697" type="curve" smooth="yes"/>
      <point x="87.3030303030303" y="437.6969696969697"/>
      <point x="75.18181818181819" y="342.06060606060606"/>
    </contour>
  </outline>
</glyph>
<glyph name="twosuperior" format="2">
  <advance width="400.0"/>
  <unicode hex="00B2"/>
  <outline>
    <contour>
      <point x="47.515151515151516" y="387.0" type="line"/>
      <point x="325.5151515151515" y="387.0" type="line"/>
      <point x="328.5151515151515" y="486.7878787878788" type="line"/>
      <point x="306.3333333333333" y="486.7878787878788" type="line"/>
      <point x="304.6969696969697" y="460.27272727272725" type="line"/>
      <point x="303.06060606060606" y="426.45454545454544"/>
      <point x="298.7878787878788" y="419.27272727272725"/>
      <point x="254.3939393939394" y="419.27272727272725" type="curve"/>
      <point x="96.78787878787878" y="419.27272727272725" type="line"/>
      <point x="233.5151515151515" y="558.3333333333334" type="line"/>
      <point x="285.0" y="609.6363636363636"/>
      <point x="316.5151515151515" y="647.6969696969697"/>
      <point x="316.5151515151515" y="714.6363636363636" type="curve" smooth="yes"/>
      <point x="316.5151515151515" y="779.1212121212121"/>
      <point x="272.3333333333333" y="825.0"/>
      <point x="188.0" y="825.0" type="curve" smooth="yes"/>
      <point x="98.57575757575758" y="825.0"/>
      <point x="63.39393939393939" y="774.030303030303"/>
      <point x="63.39393939393939" y="743.3636363636364" type="curve" smooth="yes"/>
      <point x="63.39393939393939" y="721.7575757575758"/>
      <point x="76.21212121212122" y="712.969696969697"/>
      <point x="96.0" y="712.969696969697" type="curve"/>
      <point x="96.0" y="751.8787878787879"/>
      <point x="116.93939393939394" y="796.8181818181819"/>
      <point x="186.42424242424244" y="796.8181818181819" type="curve" smooth="yes"/>
      <point x="255.42424242424244" y="796.8181818181819"/>
      <point x="275.3636363636364" y="756.1515151515151"/>
      <point x="275.3636363636364" y="711.3636363636364" type="curve" smooth="yes"/>
      <point x="275.3636363636364" y="646.5454545454545"/>
      <point x="248.4848484848485" y="612.3939393939394"/>
      <point x="192.63636363636363" y="555.4545454545455" type="curve" smooth="yes"/>
      <point x="47.515151515151516" y="406.7878787878788" type="line"/>
    </contour>
  </outline>
</glyph>
<glyph name="threesuperior" format="2">
  <advance width="400.0"/>
  <unicode hex="00B3"/>
  <outline>
    <contour>
      <point x="178.72727272727272" y="380.0" type="curve" smooth="yes"/>
      <point x="269.75757575757575" y="380.0"/>
      <point x="335.24242424242425" y="429.54545454545456"/>
      <point x="335.24242424242425" y="509.42424242424244" type="curve" smooth="yes"/>
      <point x="335.24242424242425" y="572.1818181818181"/>
      <point x="293.6666666666667" y="603.0"/>
      <point x="232.0" y="612.7878787878788" type="curve"/>
      <point x="232.0" y="616.2121212121212" type="line"/>
      <point x="279.1212121212121" y="632.2121212121212"/>
      <point x="318.24242424242425" y="659.9090909090909"/>
      <point x="318.24242424242425" y="719.4848484848485" type="curve" smooth="yes"/>
      <point x="318.24242424242425" y="777.5454545454545"/>
      <point x="276.57575757575756" y="824.0"/>
      <point x="184.42424242424244" y="824.0" type="curve" smooth="yes"/>
      <point x="107.60606060606061" y="824.0"/>
      <point x="52.303030303030305" y="778.5454545454545"/>
      <point x="52.303030303030305" y="732.9090909090909" type="curve" smooth="yes"/>
      <point x="52.303030303030305" y="707.3636363636364"/>
      <point x="66.9090909090909" y="698.5757575757576"/>
      <point x="82.18181818181819" y="698.5757575757576" type="curve"/>
      <point x="82.18181818181819" y="757.1818181818181"/>
      <point x="123.96969696969697" y="795.8181818181819"/>
      <point x="182.84848484848484" y="795.8181818181819" type="curve" smooth="yes"/>
      <point x="247.4848484848485" y="795.8181818181819"/>
      <point x="276.8787878787879" y="767.8787878787879"/>
      <point x="276.8787878787879" y="716.7878787878788" type="curve" smooth="yes"/>
      <point x="276.8787878787879" y="660.6363636363636"/>
      <point x="238.66666666666666" y="626.8484848484849"/>
      <point x="165.03030303030303" y="626.8484848484849" type="curve" smooth="yes"/>
      <point x="127.3030303030303" y="626.8484848484849" type="line"/>
      <point x="127.3030303030303" y="598.4545454545455" type="line"/>
      <point x="160.3030303030303" y="598.4545454545455" type="line" smooth="yes"/>
      <point x="253.0" y="598.4545454545455"/>
      <point x="293.8787878787879" y="569.2424242424242"/>
      <point x="293.8787878787879" y="509.6363636363636" type="curve" smooth="yes"/>
      <point x="293.8787878787879" y="442.1212121212121"/>
      <point x="248.84848484848484" y="409.24242424242425"/>
      <point x="179.66666666666666" y="409.24242424242425" type="curve" smooth="yes"/>
      <point x="103.54545454545455" y="409.24242424242425"/>
      <point x="74.18181818181819" y="445.3636363636364"/>
      <point x="74.18181818181819" y="508.6363636363636" type="curve"/>
      <point x="57.21212121212121" y="508.6363636363636"/>
      <point x="46.303030303030305" y="495.72727272727275"/>
      <point x="46.303030303030305" y="470.6666666666667" type="curve" smooth="yes"/>
      <point x="46.303030303030305" y="420.09090909090907"/>
      <point x="94.87878787878788" y="380.0"/>
    </contour>
  </outline>
</glyph>
<glyph name="multiply" format="2">
  <advance width="559.0"/>
  <unicode hex="00D7"/>
  <outline>
    <contour>
      <point x="90.15151515151516" y="144.4848484848485" type="line"/>
      <point x="279.0" y="332.54545454545456" type="line"/>
      <point x="467.8484848484849" y="144.4848484848485" type="line"/>
      <point x="492.5151515151515" y="168.36363636363637" type="line"/>
      <point x="303.6666666666667" y="357.2121212121212" type="line"/>
      <point x="492.5151515151515" y="546.8484848484849" type="line"/>
      <point x="468.6363636363636" y="571.7272727272727" type="line"/>
      <point x="279.0" y="381.8787878787879" type="line"/>
      <point x="90.15151515151516" y="570.7272727272727" type="line"/>
      <point x="66.27272727272728" y="546.060606060606" type="line"/>
      <point x="255.12121212121212" y="357.42424242424244" type="line"/>
      <point x="67.06060606060606" y="169.36363636363637" type="line"/>
    </contour>
  </outline>
</glyph>
<glyph name="divide" format="2">
  <advance width="559.0"/>
  <unicode hex="00F7"/>
  <outline>
    <contour>
      <point x="65.0" y="339.8181818181818" type="line"/>
      <point x="494.0" y="339.8181818181818" type="line"/>
      <point x="494.0" y="374.3939393939394" type="line"/>
      <point x="65.0" y="374.3939393939394" type="line"/>
    </contour>
    <contour>
      <point x="280.0" y="137.42424242424244" type="curve" smooth="yes"/>
      <point x="303.27272727272725" y="137.42424242424244"/>
      <point x="323.1212121212121" y="149.06060606060606"/>
      <point x="323.1212121212121" y="182.1818181818182" type="curve" smooth="yes"/>
      <point x="323.1212121212121" y="217.0909090909091"/>
      <point x="303.27272727272725" y="227.72727272727272"/>
      <point x="280.0" y="227.72727272727272" type="curve" smooth="yes"/>
      <point x="255.72727272727272" y="227.72727272727272"/>
      <point x="236.87878787878788" y="217.0909090909091"/>
      <point x="236.87878787878788" y="182.1818181818182" type="curve" smooth="yes"/>
      <point x="236.87878787878788" y="149.06060606060606"/>
      <point x="255.72727272727272" y="137.42424242424244"/>
    </contour>
    <contour>
      <point x="280.0" y="487.27272727272725" type="curve" smooth="yes"/>
      <point x="303.27272727272725" y="487.27272727272725"/>
      <point x="323.1212121212121" y="498.90909090909093"/>
      <point x="323.1212121212121" y="532.8181818181819" type="curve" smooth="yes"/>
      <point x="323.1212121212121" y="566.939393939394"/>
      <point x="303.27272727272725" y="577.5757575757576"/>
      <point x="280.0" y="577.5757575757576" type="curve" smooth="yes"/>
      <point x="255.72727272727272" y="577.5757575757576"/>
      <point x="236.87878787878788" y="566.939393939394"/>
      <point x="236.87878787878788" y="532.8181818181819" type="curve" smooth="yes"/>
      <point x="236.87878787878788" y="498.90909090909093"/>
      <point x="255.72727272727272" y="487.27272727272725"/>
    </contour>
  </outline>
</glyph>
<glyph name="udatta-deva" format="2">
  <unicode hex="0951"/>
  <anchor x="0.0" y="544.5454545454545" name="_vedic"/>
  <outline>
    <contour>
      <point x="-15.96969696969697" y="908.060606060606" type="line"/>
      <point x="15.96969696969697" y="908.060606060606" type="line"/>
      <point x="15.96969696969697" y="1094.3939393939395" type="line"/>
      <point x="-15.96969696969697" y="1094.3939393939395" type="line"/>
    </contour>
  </outline>
</glyph>
<glyph name="anudatta-deva" format="2">
  <unicode hex="0952"/>
  <anchor x="0.0" y="0.0" name="_bottom"/>
  <outline>
    <contour>
      <point x="-184.63636363636363" y="-491.8484848484849" type="line"/>
      <point x="184.63636363636363" y="-491.8484848484849" type="line"/>
      <point x="184.63636363636363" y="-458.72727272727275" type="line"/>
      <point x="-184.63636363636363" y="-458.72727272727275" type="line"/>
    </contour>
  </outline>
</glyph>
<glyph name="danda-deva" format="2">
  <advance width="290.8181818181818"/>
  <unicode hex="0964"/>
  <outline>
    <contour>
      <point x="123.9090909090909" y="0.0" type="line"/>
      <point x="166.9090909090909" y="0.0" type="line"/>
      <point x="166.9090909090909" y="544.5454545454545" type="line"/>
      <point x="123.9090909090909" y="544.5454545454545" type="line"/>
    </contour>
  </outline>
</glyph>
<glyph name="dbldanda-deva" format="2">
  <advance width="517.6363636363636"/>
  <unicode hex="0965"/>
  <outline>
    <contour>
      <point x="350.72727272727275" y="0.0" type="line"/>
      <point x="393.72727272727275" y="0.0" type="line"/>
      <point x="393.72727272727275" y="544.5454545454545" type="line"/>
      <point x="350.72727272727275" y="544.5454545454545" type="line"/>
    </contour>
    <contour>
      <point x="123.9090909090909" y="0.0" type="line"/>
      <point x="166.9090909090909" y="0.0" type="line"/>
      <point x="166.9090909090909" y="544.5454545454545" type="line"/>
      <point x="123.9090909090909" y="544.5454545454545" type="line"/>
    </contour>
  </outline>
</glyph>
<glyph name="anusvara-tamil" format="2">
  <unicode hex="0B82"/>
  <note>
uni0B82
</note>
  <anchor x="0.0" y="544.5454545454545" name="_top"/>
  <outline>
    <contour>
      <point x="0.0" y="646.3939393939394" type="curve" smooth="yes"/>
      <point x="58.96969696969697" y="646.3939393939394"/>
      <point x="100.51515151515152" y="689.6666666666666"/>
      <point x="100.51515151515152" y="747.060606060606" type="curve" smooth="yes"/>
      <point x="100.51515151515152" y="803.8787878787879"/>
      <point x="58.96969696969697" y="847.1515151515151"/>
      <point x="0.0" y="847.1515151515151" type="curve" smooth="yes"/>
      <point x="-58.96969696969697" y="847.1515151515151"/>
      <point x="-100.51515151515152" y="803.8787878787879"/>
      <point x="-100.51515151515152" y="747.060606060606" type="curve" smooth="yes"/>
      <point x="-100.51515151515152" y="689.6666666666666"/>
      <point x="-58.96969696969697" y="646.3939393939394"/>
    </contour>
    <contour>
      <point x="0.0" y="676.7575757575758" type="curve" smooth="yes"/>
      <point x="-40.15151515151515" y="676.7575757575758"/>
      <point x="-66.93939393939394" y="706.6969696969697"/>
      <point x="-66.93939393939394" y="747.060606060606" type="curve" smooth="yes"/>
      <point x="-66.93939393939394" y="786.8484848484849"/>
      <point x="-40.15151515151515" y="816.7878787878788"/>
      <point x="0.0" y="816.7878787878788" type="curve" smooth="yes"/>
      <point x="40.15151515151515" y="816.7878787878788"/>
      <point x="66.93939393939394" y="786.8484848484849"/>
      <point x="66.93939393939394" y="747.060606060606" type="curve" smooth="yes"/>
      <point x="66.93939393939394" y="706.6969696969697"/>
      <point x="40.15151515151515" y="676.7575757575758"/>
    </contour>
  </outline>
</glyph>
<glyph name="visarga-tamil" format="2">
  <advance width="871.2727272727273"/>
  <unicode hex="0B83"/>
  <note>
uni0B83
</note>
  <outline>
    <contour>
      <point x="649.3636363636364" y="0.0" type="curve" smooth="yes"/>
      <point x="740.2121212121212" y="0.0"/>
      <point x="804.6060606060606" y="76.57575757575758"/>
      <point x="804.6060606060606" y="181.84848484848484" type="curve" smooth="yes"/>
      <point x="804.6060606060606" y="285.3333333333333"/>
      <point x="745.7272727272727" y="363.4848484848485"/>
      <point x="651.7272727272727" y="363.4848484848485" type="curve" smooth="yes"/>
      <point x="551.1515151515151" y="363.4848484848485"/>
      <point x="496.4848484848485" y="280.6060606060606"/>
      <point x="496.4848484848485" y="181.84848484848484" type="curve" smooth="yes"/>
      <point x="496.4848484848485" y="79.72727272727272"/>
      <point x="551.1515151515151" y="0.0"/>
    </contour>
    <contour>
      <point x="219.54545454545456" y="0.0" type="curve" smooth="yes"/>
      <point x="310.3939393939394" y="0.0"/>
      <point x="374.7878787878788" y="76.57575757575758"/>
      <point x="374.7878787878788" y="181.84848484848484" type="curve" smooth="yes"/>
      <point x="374.7878787878788" y="285.3333333333333"/>
      <point x="315.90909090909093" y="363.4848484848485"/>
      <point x="221.9090909090909" y="363.4848484848485" type="curve" smooth="yes"/>
      <point x="121.33333333333333" y="363.4848484848485"/>
      <point x="66.0909090909091" y="280.6060606060606"/>
      <point x="66.0909090909091" y="181.84848484848484" type="curve" smooth="yes"/>
      <point x="66.0909090909091" y="79.72727272727272"/>
      <point x="121.33333333333333" y="0.0"/>
    </contour>
    <contour>
      <point x="436.8181818181818" y="405.6969696969697" type="curve" smooth="yes"/>
      <point x="527.6666666666666" y="405.6969696969697"/>
      <point x="592.060606060606" y="481.27272727272725"/>
      <point x="592.060606060606" y="587.3333333333334" type="curve" smooth="yes"/>
      <point x="592.060606060606" y="691.030303030303"/>
      <point x="533.1818181818181" y="768.969696969697"/>
      <point x="439.1818181818182" y="768.969696969697" type="curve" smooth="yes"/>
      <point x="338.6060606060606" y="768.969696969697"/>
      <point x="283.93939393939394" y="686.3030303030303"/>
      <point x="283.93939393939394" y="587.3333333333334" type="curve" smooth="yes"/>
      <point x="283.93939393939394" y="485.2121212121212"/>
      <point x="338.6060606060606" y="405.6969696969697"/>
    </contour>
    <contour>
      <point x="214.0" y="30.87878787878788" type="curve" smooth="yes"/>
      <point x="138.96969696969697" y="30.87878787878788"/>
      <point x="97.54545454545455" y="97.27272727272728"/>
      <point x="97.54545454545455" y="181.84848484848484" type="curve" smooth="yes"/>
      <point x="97.54545454545455" y="264.6363636363636"/>
      <point x="140.54545454545456" y="333.3939393939394"/>
      <point x="216.36363636363637" y="333.3939393939394" type="curve" smooth="yes"/>
      <point x="294.8181818181818" y="333.3939393939394"/>
      <point x="337.3939393939394" y="268.4848484848485"/>
      <point x="337.3939393939394" y="181.84848484848484" type="curve" smooth="yes"/>
      <point x="337.3939393939394" y="91.63636363636364"/>
      <point x="289.3030303030303" y="30.87878787878788"/>
    </contour>
    <contour>
      <point x="431.27272727272725" y="436.3636363636364" type="curve" smooth="yes"/>
      <point x="357.030303030303" y="436.3636363636364"/>
      <point x="314.8181818181818" y="502.75757575757575"/>
      <point x="314.8181818181818" y="587.3333333333334" type="curve" smooth="yes"/>
      <point x="314.8181818181818" y="670.1212121212121"/>
      <point x="357.8181818181818" y="738.8787878787879"/>
      <point x="434.42424242424244" y="738.8787878787879" type="curve" smooth="yes"/>
      <point x="512.0909090909091" y="738.8787878787879"/>
      <point x="554.4545454545455" y="674.1818181818181"/>
      <point x="554.4545454545455" y="587.3333333333334" type="curve" smooth="yes"/>
      <point x="554.4545454545455" y="497.3333333333333"/>
      <point x="506.57575757575756" y="436.3636363636364"/>
    </contour>
    <contour>
      <point x="643.8181818181819" y="30.87878787878788" type="curve" smooth="yes"/>
      <point x="569.5757575757576" y="30.87878787878788"/>
      <point x="527.3636363636364" y="97.27272727272728"/>
      <point x="527.3636363636364" y="181.84848484848484" type="curve" smooth="yes"/>
      <point x="527.3636363636364" y="264.6363636363636"/>
      <point x="570.3636363636364" y="333.3939393939394"/>
      <point x="646.969696969697" y="333.3939393939394" type="curve" smooth="yes"/>
      <point x="724.6363636363636" y="333.3939393939394"/>
      <point x="767.2121212121212" y="268.4848484848485"/>
      <point x="767.2121212121212" y="181.84848484848484" type="curve" smooth="yes"/>
      <point x="767.2121212121212" y="91.63636363636364"/>
      <point x="719.1212121212121" y="30.87878787878788"/>
    </contour>
  </outline>
</glyph>
<glyph name="a-tamil" format="2">
  <advance width="1298.7272727272727"/>
  <unicode hex="0B85"/>
  <note>
uni0B85
</note>
  <anchor x="630.060606060606" y="0.0" name="bottom"/>
  <anchor x="451.8484848484849" y="-100.72727272727272" name="nukta"/>
  <anchor x="635.5454545454545" y="544.5454545454545" name="top"/>
  <anchor x="635.5454545454545" y="544.5454545454545" name="vedic"/>
  <outline>
    <contour>
      <point x="1135.090909090909" y="-172.21212121212122" type="line"/>
      <point x="1178.090909090909" y="-172.21212121212122" type="line"/>
      <point x="1178.090909090909" y="544.5454545454545" type="line"/>
      <point x="1135.090909090909" y="544.5454545454545" type="line"/>
      <point x="1135.090909090909" y="161.54545454545456" type="line"/>
      <point x="113.81818181818181" y="161.54545454545456" type="line" smooth="yes"/>
      <point x="69.0" y="161.54545454545456"/>
      <point x="48.45454545454545" y="139.84848484848484"/>
      <point x="48.45454545454545" y="102.15151515151516" type="curve" smooth="yes"/>
      <point x="48.45454545454545" y="19.757575757575758"/>
      <point x="206.3030303030303" y="-100.72727272727272"/>
      <point x="451.8484848484849" y="-100.72727272727272" type="curve" smooth="yes"/>
      <point x="698.969696969697" y="-100.72727272727272"/>
      <point x="938.4242424242424" y="3.6060606060606073"/>
      <point x="938.4242424242424" y="257.8787878787879" type="curve" smooth="yes"/>
      <point x="938.4242424242424" y="453.8181818181818"/>
      <point x="802.3030303030303" y="552.6969696969697"/>
      <point x="635.5454545454545" y="552.6969696969697" type="curve" smooth="yes"/>
      <point x="501.0909090909091" y="552.6969696969697"/>
      <point x="415.6363636363636" y="475.5151515151515"/>
      <point x="415.6363636363636" y="392.09090909090907" type="curve" smooth="yes"/>
      <point x="415.6363636363636" y="315.6666666666667"/>
      <point x="466.3030303030303" y="261.969696969697"/>
      <point x="547.4848484848485" y="261.969696969697" type="curve" smooth="yes"/>
      <point x="628.6969696969697" y="261.969696969697"/>
      <point x="686.030303030303" y="310.969696969697"/>
      <point x="686.030303030303" y="388.030303030303" type="curve" smooth="yes"/>
      <point x="686.030303030303" y="455.1515151515151"/>
      <point x="637.3030303030303" y="508.27272727272725"/>
      <point x="586.1818181818181" y="531.6060606060606" type="curve"/>
      <point x="550.0909090909091" y="527.030303030303" type="line"/>
      <point x="612.4545454545455" y="494.4848484848485"/>
      <point x="644.6666666666666" y="445.3030303030303"/>
      <point x="644.6666666666666" y="389.93939393939394" type="curve" smooth="yes"/>
      <point x="644.6666666666666" y="333.8484848484849"/>
      <point x="607.8484848484849" y="293.1212121212121"/>
      <point x="542.2424242424242" y="293.1212121212121" type="curve" smooth="yes"/>
      <point x="485.2121212121212" y="293.1212121212121"/>
      <point x="450.2121212121212" y="330.3636363636364"/>
      <point x="450.2121212121212" y="389.8787878787879" type="curve" smooth="yes"/>
      <point x="450.2121212121212" y="461.7878787878788"/>
      <point x="520.2121212121212" y="522.3333333333334"/>
      <point x="629.8484848484849" y="522.3333333333334" type="curve" smooth="yes"/>
      <point x="772.6060606060606" y="522.3333333333334"/>
      <point x="894.4242424242424" y="436.3636363636364"/>
      <point x="894.4242424242424" y="258.6666666666667" type="curve" smooth="yes"/>
      <point x="894.4242424242424" y="25.484848484848484"/>
      <point x="670.5757575757576" y="-68.78787878787878"/>
      <point x="446.3333333333333" y="-68.78787878787878" type="curve" smooth="yes"/>
      <point x="238.33333333333334" y="-68.78787878787878"/>
      <point x="81.45454545454545" y="32.93939393939394"/>
      <point x="81.45454545454545" y="104.39393939393939" type="curve" smooth="yes"/>
      <point x="81.45454545454545" y="118.81818181818181"/>
      <point x="92.39393939393939" y="131.96969696969697"/>
      <point x="117.81818181818181" y="131.96969696969697" type="curve" smooth="yes"/>
      <point x="1135.090909090909" y="131.96969696969697" type="line"/>
    </contour>
  </outline>
</glyph>
<glyph name="aa-tamil" format="2">
  <advance width="1409.2121212121212"/>
  <unicode hex="0B86"/>
  <note>
uni0B86
</note>
  <anchor x="688.3939393939394" y="0.0" name="bottom"/>
  <anchor x="451.8484848484849" y="-100.72727272727272" name="nukta"/>
  <anchor x="693.3030303030303" y="544.5454545454545" name="top"/>
  <anchor x="693.8787878787879" y="544.5454545454545" name="vedic"/>
  <outline>
    <contour>
      <point x="1006.5151515151515" y="-423.3030303030303" type="curve" smooth="yes"/>
      <point x="1181.5757575757575" y="-423.3030303030303"/>
      <point x="1375.6363636363637" y="-304.8181818181818"/>
      <point x="1375.6363636363637" y="-112.48484848484848" type="curve" smooth="yes"/>
      <point x="1375.6363636363637" y="-34.18181818181818"/>
      <point x="1335.2121212121212" y="10.333333333333336"/>
      <point x="1272.4848484848485" y="10.333333333333336" type="curve" smooth="yes"/>
      <point x="1200.6666666666667" y="10.333333333333336"/>
      <point x="1161.060606060606" y="-41.27272727272727"/>
      <point x="1154.060606060606" y="-119.45454545454545" type="curve"/>
      <point x="1173.6060606060605" y="-129.87878787878788" type="line"/>
      <point x="1175.969696969697" y="-67.57575757575758"/>
      <point x="1212.8181818181818" y="-28.12121212121212"/>
      <point x="1261.4848484848485" y="-28.12121212121212" type="curve" smooth="yes"/>
      <point x="1305.3333333333333" y="-28.12121212121212"/>
      <point x="1333.060606060606" y="-55.96969696969697"/>
      <point x="1333.060606060606" y="-115.75757575757575" type="curve" smooth="yes"/>
      <point x="1333.060606060606" y="-285.93939393939394"/>
      <point x="1153.6060606060605" y="-390.57575757575756"/>
      <point x="1002.1212121212121" y="-390.57575757575756" type="curve" smooth="yes"/>
      <point x="908.6060606060606" y="-390.57575757575756"/>
      <point x="830.8181818181819" y="-358.06060606060606"/>
      <point x="830.8181818181819" y="-283.7878787878788" type="curve" smooth="yes"/>
      <point x="830.8181818181819" y="-237.57575757575756"/>
      <point x="857.3636363636364" y="-201.0"/>
      <point x="922.8484848484849" y="-187.4848484848485" type="curve"/>
      <point x="915.3636363636364" y="-155.75757575757575" type="line"/>
      <point x="831.2727272727273" y="-173.12121212121212"/>
      <point x="796.8787878787879" y="-222.1818181818182"/>
      <point x="796.8787878787879" y="-281.1515151515151" type="curve" smooth="yes"/>
      <point x="796.8787878787879" y="-372.72727272727275"/>
      <point x="884.1212121212121" y="-423.3030303030303"/>
    </contour>
    <component base="a-tamil"/>
  </outline>
</glyph>
<glyph name="i-tamil" format="2">
  <advance width="984.3939393939394"/>
  <unicode hex="0B87"/>
  <note>
uni0B87
</note>
  <anchor x="485.1818181818182" y="0.0" name="bottom"/>
  <anchor x="483.1818181818182" y="-250.12121212121212" name="nukta"/>
  <anchor x="488.030303030303" y="799.8484848484849" name="top"/>
  <anchor x="491.1818181818182" y="544.5454545454545" name="vedic"/>
  <outline>
    <contour>
      <point x="229.6969696969697" y="-282.030303030303" type="curve" smooth="yes"/>
      <point x="497.93939393939394" y="-282.030303030303"/>
      <point x="734.3939393939394" y="-5.484848484848484"/>
      <point x="734.3939393939394" y="261.06060606060606" type="curve" smooth="yes"/>
      <point x="734.3939393939394" y="442.8787878787879"/>
      <point x="639.8484848484849" y="552.6969696969697"/>
      <point x="477.5151515151515" y="552.6969696969697" type="curve" smooth="yes"/>
      <point x="348.27272727272725" y="552.6969696969697"/>
      <point x="272.7878787878788" y="476.1515151515151"/>
      <point x="272.7878787878788" y="391.45454545454544" type="curve" smooth="yes"/>
      <point x="272.7878787878788" y="314.1818181818182"/>
      <point x="324.93939393939394" y="262.1818181818182"/>
      <point x="402.0909090909091" y="262.1818181818182" type="curve" smooth="yes"/>
      <point x="483.93939393939394" y="262.1818181818182"/>
      <point x="532.9090909090909" y="311.3939393939394"/>
      <point x="532.9090909090909" y="387.3939393939394" type="curve" smooth="yes"/>
      <point x="532.9090909090909" y="451.75757575757575"/>
      <point x="490.90909090909093" y="505.3030303030303"/>
      <point x="431.3636363636364" y="531.1818181818181" type="curve"/>
      <point x="394.42424242424244" y="526.1818181818181" type="line"/>
      <point x="457.42424242424244" y="493.8484848484849"/>
      <point x="492.54545454545456" y="445.5151515151515"/>
      <point x="492.54545454545456" y="389.5151515151515" type="curve" smooth="yes"/>
      <point x="492.54545454545456" y="333.6363636363636"/>
      <point x="462.45454545454544" y="293.3333333333333"/>
      <point x="397.27272727272725" y="293.3333333333333" type="curve" smooth="yes"/>
      <point x="339.8787878787879" y="293.3333333333333"/>
      <point x="307.3636363636364" y="331.6363636363636"/>
      <point x="307.3636363636364" y="389.45454545454544" type="curve" smooth="yes"/>
      <point x="307.3636363636364" y="461.57575757575756"/>
      <point x="366.75757575757575" y="522.3333333333334"/>
      <point x="470.54545454545456" y="522.3333333333334" type="curve" smooth="yes"/>
      <point x="611.4848484848485" y="522.3333333333334"/>
      <point x="691.1818181818181" y="425.8484848484849"/>
      <point x="691.1818181818181" y="266.72727272727275" type="curve" smooth="yes"/>
      <point x="691.1818181818181" y="18.909090909090907"/>
      <point x="485.0" y="-250.0909090909091"/>
      <point x="237.24242424242425" y="-250.0909090909091" type="curve" smooth="yes"/>
      <point x="147.78787878787878" y="-250.0909090909091"/>
      <point x="98.0909090909091" y="-213.36363636363637"/>
      <point x="98.0909090909091" y="-143.27272727272728" type="curve" smooth="yes"/>
      <point x="98.0909090909091" y="-16.636363636363637"/>
      <point x="290.0" y="75.12121212121212"/>
      <point x="477.93939393939394" y="75.12121212121212" type="curve" smooth="yes"/>
      <point x="660.2121212121212" y="75.12121212121212"/>
      <point x="860.6666666666666" y="-14.969696969696969"/>
      <point x="860.6666666666666" y="-141.36363636363637" type="curve" smooth="yes"/>
      <point x="860.6666666666666" y="-216.57575757575756"/>
      <point x="804.2121212121212" y="-250.0909090909091"/>
      <point x="718.7272727272727" y="-250.0909090909091" type="curve" smooth="yes"/>
      <point x="487.1515151515151" y="-250.0909090909091"/>
      <point x="117.72727272727272" y="73.0"/>
      <point x="117.72727272727272" y="386.45454545454544" type="curve" smooth="yes"/>
      <point x="117.72727272727272" y="598.5454545454545"/>
      <point x="242.5151515151515" y="756.3333333333334"/>
      <point x="486.45454545454544" y="756.3333333333334" type="curve" smooth="yes"/>
      <point x="738.7575757575758" y="756.3333333333334"/>
      <point x="880.5151515151515" y="579.969696969697"/>
      <point x="880.5151515151515" y="320.969696969697" type="curve" smooth="yes"/>
      <point x="880.5151515151515" y="103.33333333333333" type="line"/>
      <point x="912.5151515151515" y="103.33333333333333" type="line"/>
      <point x="912.5151515151515" y="320.969696969697" type="line" smooth="yes"/>
      <point x="912.5151515151515" y="618.3333333333334"/>
      <point x="761.6666666666666" y="799.8484848484849"/>
      <point x="488.030303030303" y="799.8484848484849" type="curve" smooth="yes"/>
      <point x="218.24242424242425" y="799.8484848484849"/>
      <point x="80.81818181818181" y="615.1818181818182"/>
      <point x="80.81818181818181" y="397.6060606060606" type="curve" smooth="yes"/>
      <point x="80.81818181818181" y="65.60606060606061"/>
      <point x="467.3333333333333" y="-282.030303030303"/>
      <point x="730.030303030303" y="-282.030303030303" type="curve" smooth="yes"/>
      <point x="826.1212121212121" y="-282.030303030303"/>
      <point x="899.1515151515151" y="-239.54545454545456"/>
      <point x="899.1515151515151" y="-145.9090909090909" type="curve" smooth="yes"/>
      <point x="899.1515151515151" y="3.3030303030303045"/>
      <point x="686.6060606060606" y="106.06060606060606"/>
      <point x="477.93939393939394" y="106.06060606060606" type="curve" smooth="yes"/>
      <point x="264.90909090909093" y="106.06060606060606"/>
      <point x="60.03030303030303" y="2.5151515151515156"/>
      <point x="60.03030303030303" y="-143.27272727272728" type="curve" smooth="yes"/>
      <point x="60.03030303030303" y="-232.1818181818182"/>
      <point x="126.78787878787878" y="-282.030303030303"/>
    </contour>
  </outline>
</glyph>
<glyph name="ii-tamil" format="2">
  <advance width="754.6969696969697"/>
  <unicode hex="0B88"/>
  <note>
uni0B88
</note>
  <anchor x="402.09090909090907" y="0.0" name="bottom"/>
  <anchor x="402.8787878787879" y="0.0" name="nukta"/>
  <anchor x="404.8787878787879" y="544.5454545454545" name="top"/>
  <anchor x="404.8787878787879" y="544.5454545454545" name="vedic"/>
  <outline>
    <contour>
      <point x="120.84848484848484" y="0.0" type="line"/>
      <point x="154.27272727272728" y="0.0" type="line"/>
      <point x="154.27272727272728" y="514.969696969697" type="line"/>
      <point x="460.09090909090907" y="514.969696969697" type="line"/>
      <point x="460.09090909090907" y="0.0" type="line"/>
      <point x="503.0909090909091" y="0.0" type="line"/>
      <point x="503.0909090909091" y="514.969696969697" type="line"/>
      <point x="706.060606060606" y="514.969696969697" type="line"/>
      <point x="706.060606060606" y="544.5454545454545" type="line"/>
      <point x="120.84848484848484" y="544.5454545454545" type="line"/>
    </contour>
    <contour>
      <point x="306.3939393939394" y="223.6060606060606" type="curve" smooth="yes"/>
      <point x="327.72727272727275" y="223.6060606060606"/>
      <point x="344.6363636363636" y="240.5151515151515"/>
      <point x="344.6363636363636" y="261.6363636363636" type="curve" smooth="yes"/>
      <point x="344.6363636363636" y="281.75757575757575"/>
      <point x="327.72727272727275" y="299.45454545454544"/>
      <point x="306.3939393939394" y="299.45454545454544" type="curve" smooth="yes"/>
      <point x="284.27272727272725" y="299.45454545454544"/>
      <point x="266.57575757575756" y="281.75757575757575"/>
      <point x="266.57575757575756" y="261.6363636363636" type="curve" smooth="yes"/>
      <point x="266.57575757575756" y="240.5151515151515"/>
      <point x="284.27272727272725" y="223.6060606060606"/>
    </contour>
    <contour>
      <point x="653.6363636363636" y="223.6060606060606" type="curve" smooth="yes"/>
      <point x="675.969696969697" y="223.6060606060606"/>
      <point x="692.6666666666666" y="240.5151515151515"/>
      <point x="692.6666666666666" y="261.6363636363636" type="curve" smooth="yes"/>
      <point x="692.6666666666666" y="281.75757575757575"/>
      <point x="675.969696969697" y="299.45454545454544"/>
      <point x="653.6363636363636" y="299.45454545454544" type="curve" smooth="yes"/>
      <point x="631.5151515151515" y="299.45454545454544"/>
      <point x="614.8181818181819" y="281.75757575757575"/>
      <point x="614.8181818181819" y="261.6363636363636" type="curve" smooth="yes"/>
      <point x="614.8181818181819" y="240.5151515151515"/>
      <point x="631.5151515151515" y="223.6060606060606"/>
    </contour>
  </outline>
</glyph>
<glyph name="u-tamil" format="2">
  <advance width="1051.6363636363637"/>
  <unicode hex="0B89"/>
  <note>
uni0B89
</note>
  <anchor x="549.939393939394" y="0.0" name="bottom"/>
  <anchor x="549.939393939394" y="0.0" name="nukta"/>
  <anchor x="551.939393939394" y="544.5454545454545" name="top"/>
  <anchor x="552.939393939394" y="544.5454545454545" name="vedic"/>
  <outline>
    <contour>
      <point x="157.93939393939394" y="0.0" type="curve" smooth="yes"/>
      <point x="1026.121212121212" y="0.0" type="line"/>
      <point x="1026.121212121212" y="29.575757575757578" type="line"/>
      <point x="154.66666666666666" y="29.575757575757578" type="line" smooth="yes"/>
      <point x="114.75757575757575" y="29.575757575757578"/>
      <point x="90.45454545454545" y="53.24242424242424"/>
      <point x="90.45454545454545" y="87.6969696969697" type="curve" smooth="yes"/>
      <point x="90.45454545454545" y="123.15151515151516"/>
      <point x="113.96969696969697" y="143.66666666666666"/>
      <point x="154.66666666666666" y="143.66666666666666" type="curve" smooth="yes"/>
      <point x="402.3030303030303" y="143.66666666666666" type="line" smooth="yes"/>
      <point x="548.2424242424242" y="143.66666666666666"/>
      <point x="646.5454545454545" y="208.66666666666666"/>
      <point x="646.5454545454545" y="338.3636363636364" type="curve" smooth="yes"/>
      <point x="646.5454545454545" y="473.1212121212121"/>
      <point x="538.7272727272727" y="552.6969696969697"/>
      <point x="374.7878787878788" y="552.6969696969697" type="curve" smooth="yes"/>
      <point x="238.21212121212122" y="552.6969696969697"/>
      <point x="153.1818181818182" y="475.3030303030303"/>
      <point x="153.1818181818182" y="392.09090909090907" type="curve" smooth="yes"/>
      <point x="153.1818181818182" y="315.6666666666667"/>
      <point x="204.63636363636363" y="261.969696969697"/>
      <point x="284.8181818181818" y="261.969696969697" type="curve" smooth="yes"/>
      <point x="366.030303030303" y="261.969696969697"/>
      <point x="423.3636363636364" y="310.969696969697"/>
      <point x="423.3636363636364" y="388.030303030303" type="curve" smooth="yes"/>
      <point x="423.3636363636364" y="455.1515151515151"/>
      <point x="375.42424242424244" y="508.27272727272725"/>
      <point x="323.5151515151515" y="531.6060606060606" type="curve"/>
      <point x="287.6363636363636" y="527.030303030303" type="line"/>
      <point x="349.7878787878788" y="494.4848484848485"/>
      <point x="382.0" y="445.3030303030303"/>
      <point x="382.0" y="389.93939393939394" type="curve" smooth="yes"/>
      <point x="382.0" y="333.8484848484849"/>
      <point x="345.969696969697" y="293.1212121212121"/>
      <point x="279.57575757575756" y="293.1212121212121" type="curve" smooth="yes"/>
      <point x="222.54545454545456" y="293.1212121212121"/>
      <point x="187.54545454545456" y="330.3636363636364"/>
      <point x="187.54545454545456" y="389.8787878787879" type="curve" smooth="yes"/>
      <point x="187.54545454545456" y="461.7878787878788"/>
      <point x="257.75757575757575" y="522.3333333333334"/>
      <point x="367.1818181818182" y="522.3333333333334" type="curve" smooth="yes"/>
      <point x="506.75757575757575" y="522.3333333333334"/>
      <point x="602.7575757575758" y="455.6666666666667"/>
      <point x="602.7575757575758" y="341.90909090909093" type="curve" smooth="yes"/>
      <point x="602.7575757575758" y="230.6060606060606"/>
      <point x="521.0" y="173.8181818181818"/>
      <point x="393.8181818181818" y="173.8181818181818" type="curve" smooth="yes"/>
      <point x="157.93939393939394" y="173.8181818181818" type="line" smooth="yes"/>
      <point x="93.93939393939394" y="173.8181818181818"/>
      <point x="56.878787878787875" y="141.3939393939394"/>
      <point x="56.878787878787875" y="87.6969696969697" type="curve" smooth="yes"/>
      <point x="56.878787878787875" y="35.0"/>
      <point x="93.93939393939394" y="0.0"/>
    </contour>
  </outline>
</glyph>
<glyph name="uu-tamil" format="2">
  <advance width="1666.1515151515152"/>
  <unicode hex="0B8A"/>
  <note>
uni0B8A
</note>
  <anchor x="868.1818181818182" y="0.0" name="bottom"/>
  <anchor x="869.1818181818182" y="0.0" name="nukta"/>
  <anchor x="871.3939393939394" y="544.5454545454545" name="top"/>
  <anchor x="871.1818181818182" y="544.5454545454545" name="vedic"/>
  <outline>
    <contour>
      <point x="157.93939393939394" y="0.0" type="curve" smooth="yes"/>
      <point x="1649.030303030303" y="0.0" type="line"/>
      <point x="1649.030303030303" y="29.575757575757578" type="line"/>
      <point x="154.66666666666666" y="29.575757575757578" type="line" smooth="yes"/>
      <point x="114.75757575757575" y="29.575757575757578"/>
      <point x="90.45454545454545" y="53.24242424242424"/>
      <point x="90.45454545454545" y="87.6969696969697" type="curve" smooth="yes"/>
      <point x="90.45454545454545" y="123.15151515151516"/>
      <point x="113.96969696969697" y="143.66666666666666"/>
      <point x="154.66666666666666" y="143.66666666666666" type="curve" smooth="yes"/>
      <point x="402.3030303030303" y="143.66666666666666" type="line" smooth="yes"/>
      <point x="548.2424242424242" y="143.66666666666666"/>
      <point x="646.5454545454545" y="208.66666666666666"/>
      <point x="646.5454545454545" y="338.3636363636364" type="curve" smooth="yes"/>
      <point x="646.5454545454545" y="473.1212121212121"/>
      <point x="538.7272727272727" y="552.6969696969697"/>
      <point x="374.7878787878788" y="552.6969696969697" type="curve" smooth="yes"/>
      <point x="238.21212121212122" y="552.6969696969697"/>
      <point x="153.1818181818182" y="475.3030303030303"/>
      <point x="153.1818181818182" y="392.09090909090907" type="curve" smooth="yes"/>
      <point x="153.1818181818182" y="315.6666666666667"/>
      <point x="204.63636363636363" y="261.969696969697"/>
      <point x="284.8181818181818" y="261.969696969697" type="curve" smooth="yes"/>
      <point x="366.030303030303" y="261.969696969697"/>
      <point x="423.3636363636364" y="310.969696969697"/>
      <point x="423.3636363636364" y="388.030303030303" type="curve" smooth="yes"/>
      <point x="423.3636363636364" y="455.1515151515151"/>
      <point x="375.42424242424244" y="508.27272727272725"/>
      <point x="323.5151515151515" y="531.6060606060606" type="curve"/>
      <point x="287.6363636363636" y="527.030303030303" type="line"/>
      <point x="349.7878787878788" y="494.4848484848485"/>
      <point x="382.0" y="445.3030303030303"/>
      <point x="382.0" y="389.93939393939394" type="curve" smooth="yes"/>
      <point x="382.0" y="333.8484848484849"/>
      <point x="345.969696969697" y="293.1212121212121"/>
      <point x="279.57575757575756" y="293.1212121212121" type="curve" smooth="yes"/>
      <point x="222.54545454545456" y="293.1212121212121"/>
      <point x="187.54545454545456" y="330.3636363636364"/>
      <point x="187.54545454545456" y="389.8787878787879" type="curve" smooth="yes"/>
      <point x="187.54545454545456" y="461.7878787878788"/>
      <point x="257.75757575757575" y="522.3333333333334"/>
      <point x="367.1818181818182" y="522.3333333333334" type="curve" smooth="yes"/>
      <point x="506.75757575757575" y="522.3333333333334"/>
      <point x="602.7575757575758" y="455.6666666666667"/>
      <point x="602.7575757575758" y="341.90909090909093" type="curve" smooth="yes"/>
      <point x="602.7575757575758" y="230.6060606060606"/>
      <point x="521.0" y="173.8181818181818"/>
      <point x="393.8181818181818" y="173.8181818181818" type="curve" smooth="yes"/>
      <point x="157.93939393939394" y="173.8181818181818" type="line" smooth="yes"/>
      <point x="93.93939393939394" y="173.8181818181818"/>
      <point x="56.878787878787875" y="141.3939393939394"/>
      <point x="56.878787878787875" y="87.6969696969697" type="curve" smooth="yes"/>
      <point x="56.878787878787875" y="35.0"/>
      <point x="93.93939393939394" y="0.0"/>
    </contour>
    <contour>
      <point x="918.4848484848485" y="103.78787878787878" type="curve" smooth="yes"/>
      <point x="1007.7272727272727" y="103.78787878787878"/>
      <point x="1067.6666666666667" y="157.3939393939394"/>
      <point x="1067.6666666666667" y="243.57575757575756" type="curve" smooth="yes"/>
      <point x="1067.6666666666667" y="325.3333333333333"/>
      <point x="1010.3333333333334" y="375.8181818181818"/>
      <point x="935.2121212121212" y="375.8181818181818" type="curve" smooth="yes"/>
      <point x="845.0909090909091" y="375.8181818181818"/>
      <point x="790.0" y="304.06060606060606"/>
      <point x="771.8484848484849" y="237.8181818181818" type="curve"/>
      <point x="785.060606060606" y="209.0" type="line"/>
      <point x="805.3636363636364" y="273.57575757575756"/>
      <point x="853.2121212121212" y="342.75757575757575"/>
      <point x="925.6060606060606" y="342.75757575757575" type="curve" smooth="yes"/>
      <point x="986.0" y="342.75757575757575"/>
      <point x="1025.878787878788" y="306.24242424242425"/>
      <point x="1025.878787878788" y="241.06060606060606" type="curve" smooth="yes"/>
      <point x="1025.878787878788" y="173.21212121212122"/>
      <point x="978.1818181818181" y="134.72727272727272"/>
      <point x="913.0909090909091" y="134.72727272727272" type="curve" smooth="yes"/>
      <point x="840.1515151515151" y="134.72727272727272"/>
      <point x="779.9090909090909" y="192.96969696969697"/>
      <point x="779.9090909090909" y="293.7878787878788" type="curve" smooth="yes"/>
      <point x="779.9090909090909" y="427.3636363636364"/>
      <point x="851.7272727272727" y="522.3333333333334"/>
      <point x="989.8787878787879" y="522.3333333333334" type="curve" smooth="yes"/>
      <point x="1101.1818181818182" y="522.3333333333334"/>
      <point x="1201.878787878788" y="459.75757575757575"/>
      <point x="1201.878787878788" y="323.06060606060606" type="curve"/>
      <point x="1228.121212121212" y="323.8484848484849" type="line"/>
      <point x="1228.121212121212" y="485.57575757575756"/>
      <point x="1115.939393939394" y="552.6969696969697"/>
      <point x="989.4545454545455" y="552.6969696969697" type="curve" smooth="yes"/>
      <point x="831.8484848484849" y="552.6969696969697"/>
      <point x="745.3333333333334" y="440.24242424242425"/>
      <point x="745.3333333333334" y="294.93939393939394" type="curve" smooth="yes"/>
      <point x="745.3333333333334" y="180.21212121212122"/>
      <point x="822.2424242424242" y="103.78787878787878"/>
    </contour>
    <contour>
      <point x="1201.878787878788" y="107.0" type="line"/>
      <point x="1244.090909090909" y="107.0" type="line"/>
      <point x="1244.090909090909" y="515.3939393939394" type="line"/>
      <point x="1468.8181818181818" y="515.3939393939394" type="line"/>
      <point x="1468.8181818181818" y="107.0" type="line"/>
      <point x="1511.030303030303" y="107.0" type="line"/>
      <point x="1511.030303030303" y="515.3939393939394" type="line"/>
      <point x="1649.030303030303" y="515.3939393939394" type="line"/>
      <point x="1649.030303030303" y="544.5454545454545" type="line"/>
      <point x="1202.939393939394" y="544.5454545454545" type="line"/>
      <point x="1202.939393939394" y="408.1515151515151" type="line"/>
      <point x="1201.878787878788" y="390.75757575757575" type="line"/>
    </contour>
  </outline>
</glyph>
<glyph name="e-tamil" format="2">
  <advance width="866.3030303030303"/>
  <unicode hex="0B8E"/>
  <note>
uni0B8E
</note>
  <anchor x="459.3030303030303" y="0.0" name="bottom"/>
  <anchor x="460.3030303030303" y="0.0" name="nukta"/>
  <anchor x="461.8787878787879" y="544.5454545454545" name="top"/>
  <anchor x="462.3030303030303" y="544.5454545454545" name="vedic"/>
  <outline>
    <contour>
      <point x="257.5151515151515" y="-4.212121212121212" type="curve" smooth="yes"/>
      <point x="351.54545454545456" y="-4.212121212121212"/>
      <point x="417.24242424242425" y="52.696969696969695"/>
      <point x="417.24242424242425" y="146.84848484848484" type="curve" smooth="yes"/>
      <point x="417.24242424242425" y="234.9090909090909"/>
      <point x="354.5151515151515" y="287.24242424242425"/>
      <point x="276.27272727272725" y="287.24242424242425" type="curve" smooth="yes"/>
      <point x="179.06060606060606" y="287.24242424242425"/>
      <point x="119.9090909090909" y="212.45454545454547"/>
      <point x="99.51515151515152" y="130.87878787878788" type="curve"/>
      <point x="115.33333333333334" y="105.45454545454545" type="line"/>
      <point x="138.66666666666666" y="187.15151515151516"/>
      <point x="184.5151515151515" y="253.33333333333334"/>
      <point x="263.6969696969697" y="253.33333333333334" type="curve" smooth="yes"/>
      <point x="333.06060606060606" y="253.33333333333334"/>
      <point x="375.45454545454544" y="209.6969696969697"/>
      <point x="375.45454545454544" y="142.84848484848484" type="curve" smooth="yes"/>
      <point x="375.45454545454544" y="68.15151515151516"/>
      <point x="323.06060606060606" y="26.93939393939394"/>
      <point x="250.75757575757575" y="26.93939393939394" type="curve" smooth="yes"/>
      <point x="158.63636363636363" y="26.93939393939394"/>
      <point x="98.87878787878788" y="109.48484848484848"/>
      <point x="98.87878787878788" y="233.24242424242425" type="curve" smooth="yes"/>
      <point x="98.87878787878788" y="399.8181818181818"/>
      <point x="211.3939393939394" y="514.969696969697"/>
      <point x="406.1818181818182" y="514.969696969697" type="curve" smooth="yes"/>
      <point x="625.939393939394" y="514.969696969697" type="line"/>
      <point x="625.939393939394" y="0.0" type="line"/>
      <point x="668.939393939394" y="0.0" type="line"/>
      <point x="668.939393939394" y="514.969696969697" type="line"/>
      <point x="841.0" y="514.969696969697" type="line"/>
      <point x="841.0" y="544.5454545454545" type="line"/>
      <point x="411.8484848484849" y="544.5454545454545" type="line" smooth="yes"/>
      <point x="186.54545454545456" y="544.5454545454545"/>
      <point x="64.51515151515152" y="416.75757575757575"/>
      <point x="64.51515151515152" y="234.24242424242425" type="curve" smooth="yes"/>
      <point x="64.51515151515152" y="92.45454545454545"/>
      <point x="141.5151515151515" y="-4.212121212121212"/>
    </contour>
  </outline>
</glyph>
<glyph name="ee-tamil" format="2">
  <advance width="866.3030303030303"/>
  <unicode hex="0B8F"/>
  <note>
uni0B8F
</note>
  <anchor x="459.3030303030303" y="0.0" name="bottom"/>
  <anchor x="460.3030303030303" y="-195.0" name="nukta"/>
  <anchor x="461.5151515151515" y="544.5454545454545" name="top"/>
  <anchor x="462.3030303030303" y="544.5454545454545" name="vedic"/>
  <outline>
    <contour>
      <point x="465.030303030303" y="-214.78787878787878" type="line"/>
      <point x="668.939393939394" y="0.6060606060606073" type="line"/>
      <point x="668.939393939394" y="514.969696969697" type="line"/>
      <point x="841.0" y="514.969696969697" type="line"/>
      <point x="841.0" y="544.5454545454545" type="line"/>
      <point x="410.7878787878788" y="544.5454545454545" type="line" smooth="yes"/>
      <point x="185.4848484848485" y="544.5454545454545"/>
      <point x="64.51515151515152" y="416.75757575757575"/>
      <point x="64.51515151515152" y="234.24242424242425" type="curve" smooth="yes"/>
      <point x="64.51515151515152" y="92.45454545454545"/>
      <point x="141.5151515151515" y="-4.0"/>
      <point x="257.5151515151515" y="-4.0" type="curve" smooth="yes"/>
      <point x="351.54545454545456" y="-4.0"/>
      <point x="417.24242424242425" y="52.90909090909091"/>
      <point x="417.24242424242425" y="146.84848484848484" type="curve" smooth="yes"/>
      <point x="417.24242424242425" y="234.9090909090909"/>
      <point x="354.5151515151515" y="287.45454545454544"/>
      <point x="276.27272727272725" y="287.45454545454544" type="curve" smooth="yes"/>
      <point x="179.06060606060606" y="287.45454545454544"/>
      <point x="119.9090909090909" y="212.45454545454547"/>
      <point x="99.51515151515152" y="131.0909090909091" type="curve"/>
      <point x="115.33333333333334" y="105.66666666666667" type="line"/>
      <point x="138.66666666666666" y="187.36363636363637"/>
      <point x="184.5151515151515" y="253.33333333333334"/>
      <point x="263.6969696969697" y="253.33333333333334" type="curve" smooth="yes"/>
      <point x="333.06060606060606" y="253.33333333333334"/>
      <point x="375.45454545454544" y="209.9090909090909"/>
      <point x="375.45454545454544" y="142.84848484848484" type="curve" smooth="yes"/>
      <point x="375.45454545454544" y="68.36363636363636"/>
      <point x="323.06060606060606" y="26.93939393939394"/>
      <point x="250.75757575757575" y="26.93939393939394" type="curve" smooth="yes"/>
      <point x="158.63636363636363" y="26.93939393939394"/>
      <point x="98.87878787878788" y="109.48484848484848"/>
      <point x="98.87878787878788" y="233.24242424242425" type="curve" smooth="yes"/>
      <point x="98.87878787878788" y="399.8181818181818"/>
      <point x="211.3939393939394" y="514.969696969697"/>
      <point x="406.1818181818182" y="514.969696969697" type="curve" smooth="yes"/>
      <point x="625.939393939394" y="514.969696969697" type="line"/>
      <point x="625.939393939394" y="3.5151515151515147" type="line"/>
      <point x="441.1515151515151" y="-191.12121212121212" type="line"/>
    </contour>
  </outline>
</glyph>
<glyph name="ai-tamil" format="2">
  <advance width="966.1515151515151"/>
  <unicode hex="0B90"/>
  <note>
uni0B90
</note>
  <anchor x="500.42424242424244" y="0.0" name="bottom"/>
  <anchor x="498.5151515151515" y="-281.8181818181818" name="nukta"/>
  <anchor x="503.4848484848485" y="544.5454545454545" name="top"/>
  <anchor x="504.06060606060606" y="544.5454545454545" name="vedic"/>
  <outline>
    <contour>
      <point x="287.3939393939394" y="-281.8181818181818" type="curve" smooth="yes"/>
      <point x="403.27272727272725" y="-281.8181818181818"/>
      <point x="472.1818181818182" y="-226.63636363636363"/>
      <point x="503.54545454545456" y="-157.78787878787878" type="curve"/>
      <point x="531.5454545454545" y="-226.36363636363637"/>
      <point x="596.3636363636364" y="-281.8181818181818"/>
      <point x="693.3939393939394" y="-281.8181818181818" type="curve" smooth="yes"/>
      <point x="807.7878787878788" y="-281.8181818181818"/>
      <point x="901.8484848484849" y="-218.87878787878788"/>
      <point x="901.8484848484849" y="-93.6969696969697" type="curve" smooth="yes"/>
      <point x="901.8484848484849" y="-28.12121212121212"/>
      <point x="875.0" y="24.575757575757574"/>
      <point x="824.2121212121212" y="80.36363636363636" type="curve"/>
      <point x="799.1818181818181" y="59.18181818181818" type="line"/>
      <point x="838.8181818181819" y="17.545454545454543"/>
      <point x="867.2727272727273" y="-37.54545454545455"/>
      <point x="867.2727272727273" y="-92.21212121212122" type="curve" smooth="yes"/>
      <point x="867.2727272727273" y="-193.6969696969697"/>
      <point x="791.7575757575758" y="-249.96969696969697"/>
      <point x="694.969696969697" y="-249.96969696969697" type="curve" smooth="yes"/>
      <point x="586.4848484848485" y="-249.96969696969697"/>
      <point x="525.969696969697" y="-176.5151515151515"/>
      <point x="525.969696969697" y="-72.42424242424242" type="curve" smooth="yes"/>
      <point x="525.969696969697" y="-15.0" type="line"/>
      <point x="486.3333333333333" y="-15.0" type="line"/>
      <point x="486.3333333333333" y="-88.78787878787878" type="line" smooth="yes"/>
      <point x="486.3333333333333" y="-169.87878787878788"/>
      <point x="413.2121212121212" y="-251.24242424242425"/>
      <point x="291.6060606060606" y="-251.24242424242425" type="curve" smooth="yes"/>
      <point x="185.15151515151516" y="-251.24242424242425"/>
      <point x="117.75757575757575" y="-198.57575757575756"/>
      <point x="117.75757575757575" y="-103.60606060606061" type="curve" smooth="yes"/>
      <point x="117.75757575757575" y="24.12121212121212"/>
      <point x="219.27272727272728" y="64.0"/>
      <point x="507.2121212121212" y="87.03030303030303" type="curve" smooth="yes"/>
      <point x="741.7272727272727" y="105.9090909090909"/>
      <point x="900.7878787878788" y="159.84848484848484"/>
      <point x="900.7878787878788" y="349.45454545454544" type="curve" smooth="yes"/>
      <point x="900.7878787878788" y="475.06060606060606"/>
      <point x="820.3636363636364" y="552.6969696969697"/>
      <point x="701.1818181818181" y="552.6969696969697" type="curve" smooth="yes"/>
      <point x="595.4848484848485" y="552.6969696969697"/>
      <point x="534.4545454545455" y="496.5151515151515"/>
      <point x="505.8181818181818" y="427.1818181818182" type="curve"/>
      <point x="473.75757575757575" y="498.3030303030303"/>
      <point x="409.6666666666667" y="552.6969696969697"/>
      <point x="299.030303030303" y="552.6969696969697" type="curve" smooth="yes"/>
      <point x="153.87878787878788" y="552.6969696969697"/>
      <point x="65.36363636363636" y="461.8181818181818"/>
      <point x="65.36363636363636" y="350.57575757575756" type="curve" smooth="yes"/>
      <point x="65.36363636363636" y="238.78787878787878"/>
      <point x="122.75757575757575" y="162.3030303030303"/>
      <point x="221.1818181818182" y="162.3030303030303" type="curve" smooth="yes"/>
      <point x="295.42424242424244" y="162.3030303030303"/>
      <point x="352.4848484848485" y="207.36363636363637"/>
      <point x="352.4848484848485" y="283.8787878787879" type="curve" smooth="yes"/>
      <point x="352.4848484848485" y="353.1212121212121"/>
      <point x="303.7878787878788" y="400.969696969697"/>
      <point x="237.03030303030303" y="400.969696969697" type="curve" smooth="yes"/>
      <point x="164.27272727272728" y="400.969696969697"/>
      <point x="111.06060606060606" y="345.6969696969697"/>
      <point x="94.54545454545455" y="266.72727272727275" type="curve"/>
      <point x="113.66666666666667" y="242.12121212121212" type="line"/>
      <point x="132.9090909090909" y="320.42424242424244"/>
      <point x="169.24242424242425" y="369.3333333333333"/>
      <point x="227.93939393939394" y="369.3333333333333" type="curve" smooth="yes"/>
      <point x="278.3939393939394" y="369.3333333333333"/>
      <point x="310.6969696969697" y="333.45454545454544"/>
      <point x="310.6969696969697" y="282.1515151515151" type="curve" smooth="yes"/>
      <point x="310.6969696969697" y="227.54545454545456"/>
      <point x="272.3030303030303" y="194.24242424242425"/>
      <point x="216.33333333333334" y="194.24242424242425" type="curve" smooth="yes"/>
      <point x="146.42424242424244" y="194.24242424242425"/>
      <point x="99.93939393939394" y="246.93939393939394"/>
      <point x="99.93939393939394" y="346.3636363636364" type="curve" smooth="yes"/>
      <point x="99.93939393939394" y="443.27272727272725"/>
      <point x="175.84848484848484" y="521.5454545454545"/>
      <point x="290.8484848484849" y="521.5454545454545" type="curve" smooth="yes"/>
      <point x="410.6060606060606" y="521.5454545454545"/>
      <point x="486.3333333333333" y="449.72727272727275"/>
      <point x="486.3333333333333" y="341.8181818181818" type="curve" smooth="yes"/>
      <point x="486.3333333333333" y="209.4848484848485" type="line"/>
      <point x="525.969696969697" y="209.4848484848485" type="line"/>
      <point x="525.969696969697" y="360.72727272727275" type="line" smooth="yes"/>
      <point x="525.969696969697" y="437.42424242424244"/>
      <point x="587.2121212121212" y="522.3333333333334"/>
      <point x="696.060606060606" y="522.3333333333334" type="curve" smooth="yes"/>
      <point x="802.2424242424242" y="522.3333333333334"/>
      <point x="856.2121212121212" y="447.3636363636364"/>
      <point x="856.2121212121212" y="353.93939393939394" type="curve" smooth="yes"/>
      <point x="856.2121212121212" y="192.87878787878788"/>
      <point x="747.4848484848485" y="133.36363636363637"/>
      <point x="477.09090909090907" y="112.48484848484848" type="curve" smooth="yes"/>
      <point x="185.96969696969697" y="90.24242424242425"/>
      <point x="73.96969696969697" y="41.515151515151516"/>
      <point x="73.96969696969697" y="-98.6969696969697" type="curve" smooth="yes"/>
      <point x="73.96969696969697" y="-216.33333333333334"/>
      <point x="160.0909090909091" y="-281.8181818181818"/>
    </contour>
  </outline>
</glyph>
<glyph name="o-tamil" format="2">
  <advance width="982.060606060606"/>
  <unicode hex="0B92"/>
  <note>
uni0B92
</note>
  <anchor x="492.7878787878788" y="0.0" name="bottom"/>
  <anchor x="490.7878787878788" y="-335.0" name="nukta"/>
  <anchor x="485.7878787878788" y="544.5454545454545" name="top"/>
  <anchor x="485.7878787878788" y="544.5454545454545" name="vedic"/>
  <outline>
    <contour>
      <point x="364.8787878787879" y="-316.72727272727275" type="curve" smooth="yes"/>
      <point x="542.7272727272727" y="-316.72727272727275"/>
      <point x="571.7878787878788" y="-134.96969696969697"/>
      <point x="755.4545454545455" y="-134.96969696969697" type="curve" smooth="yes"/>
      <point x="778.2121212121212" y="-134.96969696969697" type="line"/>
      <point x="778.2121212121212" y="-104.81818181818181" type="line"/>
      <point x="746.7878787878788" y="-104.81818181818181" type="line" smooth="yes"/>
      <point x="583.3030303030303" y="-104.81818181818181"/>
      <point x="456.93939393939394" y="59.06060606060606"/>
      <point x="611.7575757575758" y="230.06060606060606" type="curve"/>
      <point x="617.5454545454545" y="226.06060606060606" type="line"/>
      <point x="571.8181818181819" y="142.06060606060606"/>
      <point x="599.2121212121212" y="-5.0"/>
      <point x="740.0909090909091" y="-5.0" type="curve" smooth="yes"/>
      <point x="838.6363636363636" y="-5.0"/>
      <point x="917.7575757575758" y="68.75757575757575"/>
      <point x="917.7575757575758" y="202.57575757575756" type="curve" smooth="yes"/>
      <point x="917.7575757575758" y="421.6666666666667"/>
      <point x="705.2424242424242" y="552.6969696969697"/>
      <point x="471.1515151515151" y="552.6969696969697" type="curve" smooth="yes"/>
      <point x="235.57575757575756" y="552.6969696969697"/>
      <point x="64.51515151515152" y="421.6666666666667"/>
      <point x="64.51515151515152" y="228.57575757575756" type="curve" smooth="yes"/>
      <point x="64.51515151515152" y="90.81818181818181"/>
      <point x="151.3939393939394" y="-4.212121212121212"/>
      <point x="263.030303030303" y="-4.212121212121212" type="curve" smooth="yes"/>
      <point x="357.8484848484849" y="-4.212121212121212"/>
      <point x="422.75757575757575" y="54.484848484848484"/>
      <point x="422.75757575757575" y="148.42424242424244" type="curve" smooth="yes"/>
      <point x="422.75757575757575" y="235.6969696969697"/>
      <point x="360.030303030303" y="287.45454545454544"/>
      <point x="282.57575757575756" y="287.45454545454544" type="curve" smooth="yes"/>
      <point x="184.57575757575756" y="287.45454545454544"/>
      <point x="121.48484848484848" y="214.03030303030303"/>
      <point x="101.0909090909091" y="131.87878787878788" type="curve"/>
      <point x="116.9090909090909" y="106.45454545454545" type="line"/>
      <point x="140.24242424242425" y="188.93939393939394"/>
      <point x="190.8181818181818" y="253.33333333333334"/>
      <point x="270.0" y="253.33333333333334" type="curve" smooth="yes"/>
      <point x="338.57575757575756" y="253.33333333333334"/>
      <point x="380.969696969697" y="211.4848484848485"/>
      <point x="380.969696969697" y="144.42424242424244" type="curve" smooth="yes"/>
      <point x="380.969696969697" y="69.93939393939394"/>
      <point x="330.1515151515151" y="26.93939393939394"/>
      <point x="257.8484848484849" y="26.93939393939394" type="curve" smooth="yes"/>
      <point x="169.87878787878788" y="26.93939393939394"/>
      <point x="98.87878787878788" y="104.12121212121212"/>
      <point x="98.87878787878788" y="226.57575757575756" type="curve" smooth="yes"/>
      <point x="98.87878787878788" y="404.3636363636364"/>
      <point x="260.3333333333333" y="522.3333333333334"/>
      <point x="468.42424242424244" y="522.3333333333334" type="curve" smooth="yes"/>
      <point x="678.2121212121212" y="522.3333333333334"/>
      <point x="873.969696969697" y="403.45454545454544"/>
      <point x="873.969696969697" y="208.63636363636363" type="curve" smooth="yes"/>
      <point x="873.969696969697" y="90.84848484848484"/>
      <point x="816.7878787878788" y="26.93939393939394"/>
      <point x="734.1818181818181" y="26.93939393939394" type="curve" smooth="yes"/>
      <point x="624.5757575757576" y="26.93939393939394"/>
      <point x="597.030303030303" y="161.12121212121212"/>
      <point x="663.0909090909091" y="256.8484848484849" type="curve"/>
      <point x="625.2121212121212" y="285.8787878787879" type="line"/>
      <point x="421.8787878787879" y="98.15151515151516"/>
      <point x="522.969696969697" y="-80.93939393939394"/>
      <point x="666.1212121212121" y="-119.72727272727272" type="curve"/>
      <point x="666.1212121212121" y="-123.93939393939394" type="line"/>
      <point x="517.6666666666666" y="-143.96969696969697"/>
      <point x="501.09090909090907" y="-280.6666666666667"/>
      <point x="357.7878787878788" y="-280.6666666666667" type="curve" smooth="yes"/>
      <point x="288.0909090909091" y="-280.6666666666667"/>
      <point x="250.66666666666666" y="-234.6969696969697"/>
      <point x="250.66666666666666" y="-183.4848484848485" type="curve" smooth="yes"/>
      <point x="250.66666666666666" y="-138.1818181818182"/>
      <point x="267.0909090909091" y="-111.39393939393939"/>
      <point x="310.8181818181818" y="-81.60606060606061" type="curve"/>
      <point x="290.72727272727275" y="-56.36363636363636" type="line"/>
      <point x="236.93939393939394" y="-93.42424242424242"/>
      <point x="216.87878787878788" y="-126.9090909090909"/>
      <point x="216.87878787878788" y="-182.4848484848485" type="curve" smooth="yes"/>
      <point x="216.87878787878788" y="-255.72727272727272"/>
      <point x="271.030303030303" y="-316.72727272727275"/>
    </contour>
  </outline>
</glyph>
<glyph name="oo-tamil" format="2">
  <advance width="982.060606060606"/>
  <unicode hex="0B93"/>
  <note>
uni0B93
</note>
  <anchor x="482.8181818181818" y="0.0" name="bottom"/>
  <anchor x="480.8181818181818" y="-300.030303030303" name="nukta"/>
  <anchor x="475.8181818181818" y="544.5454545454545" name="top"/>
  <anchor x="475.8181818181818" y="544.5454545454545" name="vedic"/>
  <outline>
    <contour>
      <point x="348.6666666666667" y="-322.7878787878788" type="curve" smooth="yes"/>
      <point x="527.2424242424242" y="-322.7878787878788"/>
      <point x="558.6969696969697" y="-134.96969696969697"/>
      <point x="740.1818181818181" y="-134.96969696969697" type="curve" smooth="yes"/>
      <point x="762.5757575757576" y="-134.96969696969697" type="line"/>
      <point x="762.5757575757576" y="-104.81818181818181" type="line"/>
      <point x="733.060606060606" y="-104.81818181818181" type="line" smooth="yes"/>
      <point x="577.4545454545455" y="-104.81818181818181"/>
      <point x="460.8787878787879" y="59.06060606060606"/>
      <point x="611.7575757575758" y="230.06060606060606" type="curve"/>
      <point x="617.5454545454545" y="226.06060606060606" type="line"/>
      <point x="571.8181818181819" y="142.06060606060606"/>
      <point x="599.2121212121212" y="-5.0"/>
      <point x="740.0909090909091" y="-5.0" type="curve" smooth="yes"/>
      <point x="838.6363636363636" y="-5.0"/>
      <point x="917.7575757575758" y="68.75757575757575"/>
      <point x="917.7575757575758" y="202.57575757575756" type="curve" smooth="yes"/>
      <point x="917.7575757575758" y="421.6666666666667"/>
      <point x="705.2424242424242" y="552.6969696969697"/>
      <point x="471.1515151515151" y="552.6969696969697" type="curve" smooth="yes"/>
      <point x="235.57575757575756" y="552.6969696969697"/>
      <point x="64.51515151515152" y="421.6666666666667"/>
      <point x="64.51515151515152" y="228.57575757575756" type="curve" smooth="yes"/>
      <point x="64.51515151515152" y="90.81818181818181"/>
      <point x="151.3939393939394" y="-4.212121212121212"/>
      <point x="263.030303030303" y="-4.212121212121212" type="curve" smooth="yes"/>
      <point x="357.8484848484849" y="-4.212121212121212"/>
      <point x="422.75757575757575" y="54.484848484848484"/>
      <point x="422.75757575757575" y="148.42424242424244" type="curve" smooth="yes"/>
      <point x="422.75757575757575" y="235.6969696969697"/>
      <point x="360.030303030303" y="287.45454545454544"/>
      <point x="282.57575757575756" y="287.45454545454544" type="curve" smooth="yes"/>
      <point x="184.57575757575756" y="287.45454545454544"/>
      <point x="121.48484848484848" y="214.03030303030303"/>
      <point x="101.0909090909091" y="131.87878787878788" type="curve"/>
      <point x="116.9090909090909" y="106.45454545454545" type="line"/>
      <point x="140.24242424242425" y="188.93939393939394"/>
      <point x="190.8181818181818" y="253.33333333333334"/>
      <point x="270.0" y="253.33333333333334" type="curve" smooth="yes"/>
      <point x="338.57575757575756" y="253.33333333333334"/>
      <point x="380.969696969697" y="211.4848484848485"/>
      <point x="380.969696969697" y="144.42424242424244" type="curve" smooth="yes"/>
      <point x="380.969696969697" y="69.93939393939394"/>
      <point x="330.1515151515151" y="26.93939393939394"/>
      <point x="257.8484848484849" y="26.93939393939394" type="curve" smooth="yes"/>
      <point x="169.87878787878788" y="26.93939393939394"/>
      <point x="98.87878787878788" y="104.12121212121212"/>
      <point x="98.87878787878788" y="226.57575757575756" type="curve" smooth="yes"/>
      <point x="98.87878787878788" y="404.3636363636364"/>
      <point x="260.3333333333333" y="522.3333333333334"/>
      <point x="468.42424242424244" y="522.3333333333334" type="curve" smooth="yes"/>
      <point x="678.2121212121212" y="522.3333333333334"/>
      <point x="873.969696969697" y="403.45454545454544"/>
      <point x="873.969696969697" y="208.63636363636363" type="curve" smooth="yes"/>
      <point x="873.969696969697" y="90.84848484848484"/>
      <point x="816.7878787878788" y="26.93939393939394"/>
      <point x="734.1818181818181" y="26.93939393939394" type="curve" smooth="yes"/>
      <point x="624.5757575757576" y="26.93939393939394"/>
      <point x="597.030303030303" y="161.12121212121212"/>
      <point x="663.0909090909091" y="256.8484848484849" type="curve"/>
      <point x="625.2121212121212" y="285.8787878787879" type="line"/>
      <point x="427.3939393939394" y="100.51515151515152"/>
      <point x="516.9090909090909" y="-78.57575757575758"/>
      <point x="652.969696969697" y="-119.72727272727272" type="curve"/>
      <point x="652.969696969697" y="-123.93939393939394" type="line"/>
      <point x="503.93939393939394" y="-145.03030303030303"/>
      <point x="485.030303030303" y="-287.5151515151515"/>
      <point x="341.1515151515151" y="-287.5151515151515" type="curve" smooth="yes"/>
      <point x="274.2121212121212" y="-287.5151515151515"/>
      <point x="233.8181818181818" y="-246.84848484848484"/>
      <point x="233.8181818181818" y="-195.54545454545456" type="curve" smooth="yes"/>
      <point x="233.8181818181818" y="-142.3030303030303"/>
      <point x="271.8181818181818" y="-109.84848484848484"/>
      <point x="320.6363636363636" y="-109.84848484848484" type="curve" smooth="yes"/>
      <point x="355.06060606060606" y="-109.84848484848484"/>
      <point x="383.75757575757575" y="-127.63636363636364"/>
      <point x="394.1818181818182" y="-152.1818181818182" type="curve"/>
      <point x="410.1515151515151" y="-143.33333333333334"/>
      <point x="420.90909090909093" y="-129.3030303030303"/>
      <point x="420.90909090909093" y="-110.81818181818181" type="curve" smooth="yes"/>
      <point x="420.90909090909093" y="-80.57575757575758"/>
      <point x="384.2121212121212" y="-61.72727272727273"/>
      <point x="341.3030303030303" y="-61.72727272727273" type="curve" smooth="yes"/>
      <point x="258.42424242424244" y="-61.72727272727273"/>
      <point x="200.03030303030303" y="-120.9090909090909"/>
      <point x="200.03030303030303" y="-193.9090909090909" type="curve" smooth="yes"/>
      <point x="200.03030303030303" y="-268.2121212121212"/>
      <point x="261.27272727272725" y="-322.7878787878788"/>
    </contour>
  </outline>
</glyph>
<glyph name="au-tamil" format="2">
  <advance width="2202.3333333333335"/>
  <unicode hex="0B94"/>
  <note>
uni0B94
</note>
  <anchor x="1108.7878787878788" y="0.0" name="bottom"/>
  <anchor x="1177.1818181818182" y="0.0" name="nukta"/>
  <anchor x="1101.7878787878788" y="544.5454545454545" name="top"/>
  <anchor x="1101.7878787878788" y="544.5454545454545" name="vedic"/>
  <outline>
    <contour>
      <point x="1244.5454545454545" y="-4.0" type="curve" smooth="yes"/>
      <point x="1338.3636363636363" y="-4.0"/>
      <point x="1402.6969696969697" y="54.484848484848484"/>
      <point x="1402.6969696969697" y="148.42424242424244" type="curve" smooth="yes"/>
      <point x="1402.6969696969697" y="235.6969696969697"/>
      <point x="1339.7575757575758" y="287.45454545454544"/>
      <point x="1262.3030303030303" y="287.45454545454544" type="curve" smooth="yes"/>
      <point x="1166.878787878788" y="287.45454545454544"/>
      <point x="1105.3636363636363" y="214.8181818181818"/>
      <point x="1084.969696969697" y="131.87878787878788" type="curve"/>
      <point x="1101.5757575757575" y="105.66666666666667" type="line"/>
      <point x="1124.121212121212" y="188.15151515151516"/>
      <point x="1169.969696969697" y="253.33333333333334"/>
      <point x="1248.939393939394" y="253.33333333333334" type="curve" smooth="yes"/>
      <point x="1318.5151515151515" y="253.33333333333334"/>
      <point x="1360.909090909091" y="211.4848484848485"/>
      <point x="1360.909090909091" y="144.42424242424244" type="curve" smooth="yes"/>
      <point x="1360.909090909091" y="69.93939393939394"/>
      <point x="1310.090909090909" y="26.93939393939394"/>
      <point x="1237.7878787878788" y="26.93939393939394" type="curve" smooth="yes"/>
      <point x="1147.030303030303" y="26.93939393939394"/>
      <point x="1084.3333333333333" y="106.33333333333333"/>
      <point x="1084.3333333333333" y="229.3030303030303" type="curve" smooth="yes"/>
      <point x="1084.3333333333333" y="401.6060606060606"/>
      <point x="1188.3636363636363" y="522.3333333333334"/>
      <point x="1359.7878787878788" y="522.3333333333334" type="curve" smooth="yes"/>
      <point x="1500.0" y="522.3333333333334"/>
      <point x="1619.4848484848485" y="452.3030303030303"/>
      <point x="1619.4848484848485" y="273.72727272727275" type="curve"/>
      <point x="1649.2727272727273" y="275.3636363636364" type="line"/>
      <point x="1648.2121212121212" y="474.6969696969697"/>
      <point x="1518.3333333333333" y="552.6969696969697"/>
      <point x="1359.7878787878788" y="552.6969696969697" type="curve" smooth="yes"/>
      <point x="1168.3939393939395" y="552.6969696969697"/>
      <point x="1049.7575757575758" y="417.75757575757575"/>
      <point x="1049.7575757575758" y="231.0909090909091" type="curve" smooth="yes"/>
      <point x="1049.7575757575758" y="88.51515151515152"/>
      <point x="1128.5454545454545" y="-4.0"/>
    </contour>
    <contour>
      <point x="1619.4848484848485" y="0.0" type="line"/>
      <point x="1661.4848484848485" y="0.0" type="line"/>
      <point x="1661.4848484848485" y="514.969696969697" type="line"/>
      <point x="1933.6060606060605" y="514.969696969697" type="line"/>
      <point x="1933.6060606060605" y="0.0" type="line"/>
      <point x="1975.8181818181818" y="0.0" type="line"/>
      <point x="1975.8181818181818" y="514.969696969697" type="line"/>
      <point x="2177.030303030303" y="514.969696969697" type="line"/>
      <point x="2177.030303030303" y="544.5454545454545" type="line"/>
      <point x="1620.3333333333333" y="544.5454545454545" type="line"/>
      <point x="1620.3333333333333" y="383.8484848484849" type="line"/>
      <point x="1619.4848484848485" y="362.3030303030303" type="line"/>
    </contour>
    <component base="o-tamil"/>
  </outline>
</glyph>
<glyph name="ka-tamil" format="2">
  <advance width="798.8484848484849"/>
  <unicode hex="0B95"/>
  <note>
uni0B95
</note>
  <anchor x="419.1212121212121" y="0.0" name="bottom"/>
  <anchor x="533.6969696969697" y="544.5454545454545" name="imatra"/>
  <anchor x="423.06060606060606" y="0.0" name="nukta"/>
  <anchor x="431.24242424242425" y="544.5454545454545" name="top"/>
  <anchor x="437.57575757575756" y="544.5454545454545" name="vedic"/>
  <outline>
    <contour>
      <point x="255.15151515151516" y="-4.0" type="curve" smooth="yes"/>
      <point x="386.030303030303" y="-4.0"/>
      <point x="459.6363636363636" y="74.48484848484848"/>
      <point x="459.6363636363636" y="193.6969696969697" type="curve" smooth="yes"/>
      <point x="459.6363636363636" y="272.45454545454544" type="line"/>
      <point x="524.5454545454545" y="272.45454545454544" type="line" smooth="yes"/>
      <point x="641.4242424242424" y="272.45454545454544"/>
      <point x="692.1212121212121" y="225.06060606060606"/>
      <point x="692.1212121212121" y="149.27272727272728" type="curve" smooth="yes"/>
      <point x="692.1212121212121" y="90.27272727272728"/>
      <point x="653.2727272727273" y="27.363636363636363"/>
      <point x="566.2121212121212" y="27.363636363636363" type="curve" smooth="yes"/>
      <point x="519.5454545454545" y="27.363636363636363" type="line"/>
      <point x="519.5454545454545" y="-2.0" type="line"/>
      <point x="574.7575757575758" y="-2.0" type="line" smooth="yes"/>
      <point x="664.3636363636364" y="-2.0"/>
      <point x="734.3333333333334" y="49.63636363636364"/>
      <point x="734.3333333333334" y="147.84848484848484" type="curve" smooth="yes"/>
      <point x="734.3333333333334" y="248.75757575757575"/>
      <point x="668.5454545454545" y="302.8181818181818"/>
      <point x="523.5454545454545" y="302.8181818181818" type="curve" smooth="yes"/>
      <point x="459.6363636363636" y="302.8181818181818" type="line"/>
      <point x="459.6363636363636" y="514.969696969697" type="line"/>
      <point x="638.5757575757576" y="514.969696969697" type="line"/>
      <point x="638.5757575757576" y="544.5454545454545" type="line"/>
      <point x="190.27272727272728" y="544.5454545454545" type="line"/>
      <point x="190.27272727272728" y="284.42424242424244" type="line"/>
      <point x="223.6969696969697" y="284.42424242424244" type="line"/>
      <point x="223.6969696969697" y="514.969696969697" type="line"/>
      <point x="417.42424242424244" y="514.969696969697" type="line"/>
      <point x="417.42424242424244" y="302.8181818181818" type="line"/>
      <point x="247.84848484848484" y="302.8181818181818" type="line" smooth="yes"/>
      <point x="138.36363636363637" y="302.8181818181818"/>
      <point x="69.3030303030303" y="235.5151515151515"/>
      <point x="69.3030303030303" y="149.3939393939394" type="curve" smooth="yes"/>
      <point x="69.3030303030303" y="61.36363636363636"/>
      <point x="141.66666666666666" y="-4.0"/>
    </contour>
    <contour>
      <point x="255.03030303030303" y="26.93939393939394" type="curve" smooth="yes"/>
      <point x="167.0" y="26.93939393939394"/>
      <point x="109.0909090909091" y="77.33333333333333"/>
      <point x="109.0909090909091" y="150.54545454545456" type="curve" smooth="yes"/>
      <point x="109.0909090909091" y="215.9090909090909"/>
      <point x="157.3030303030303" y="272.45454545454544"/>
      <point x="251.9090909090909" y="272.45454545454544" type="curve" smooth="yes"/>
      <point x="417.42424242424244" y="272.45454545454544" type="line"/>
      <point x="417.42424242424244" y="189.0" type="line" smooth="yes"/>
      <point x="417.42424242424244" y="92.0"/>
      <point x="351.7878787878788" y="26.93939393939394"/>
    </contour>
  </outline>
</glyph>
<glyph name="nga-tamil" format="2">
  <advance width="1025.5757575757575"/>
  <unicode hex="0B99"/>
  <note>
uni0B99
</note>
  <anchor x="516.7272727272727" y="0.0" name="bottom"/>
  <anchor x="579.5757575757576" y="544.5454545454545" name="imatra"/>
  <anchor x="516.7272727272727" y="0.0" name="nukta"/>
  <anchor x="518.3030303030303" y="544.5454545454545" name="top"/>
  <anchor x="514.3636363636364" y="544.5454545454545" name="vedic"/>
  <outline>
    <contour>
      <point x="120.84848484848484" y="0.0" type="line"/>
      <point x="154.27272727272728" y="0.0" type="line"/>
      <point x="154.27272727272728" y="514.969696969697" type="line"/>
      <point x="375.3939393939394" y="514.969696969697" type="line"/>
      <point x="375.3939393939394" y="189.6969696969697" type="line"/>
      <point x="418.3939393939394" y="189.6969696969697" type="line"/>
      <point x="418.3939393939394" y="207.24242424242425" type="line" smooth="yes"/>
      <point x="418.3939393939394" y="258.8787878787879"/>
      <point x="451.3939393939394" y="328.6060606060606"/>
      <point x="539.6363636363636" y="328.6060606060606" type="curve" smooth="yes"/>
      <point x="607.2424242424242" y="328.6060606060606"/>
      <point x="650.969696969697" y="285.6060606060606"/>
      <point x="650.969696969697" y="208.42424242424244" type="curve" smooth="yes"/>
      <point x="650.969696969697" y="75.75757575757575"/>
      <point x="514.969696969697" y="29.575757575757578"/>
      <point x="454.1818181818182" y="29.575757575757578" type="curve" smooth="yes"/>
      <point x="375.3939393939394" y="29.575757575757578" type="line"/>
      <point x="375.3939393939394" y="0.0" type="line"/>
      <point x="904.939393939394" y="0.0" type="line"/>
      <point x="904.939393939394" y="544.5454545454545" type="line"/>
      <point x="861.939393939394" y="544.5454545454545" type="line"/>
      <point x="861.939393939394" y="29.575757575757578" type="line"/>
      <point x="552.1212121212121" y="29.575757575757578" type="line"/>
      <point x="630.4848484848485" y="56.60606060606061"/>
      <point x="694.3333333333334" y="114.36363636363636"/>
      <point x="694.3333333333334" y="216.54545454545456" type="curve" smooth="yes"/>
      <point x="694.3333333333334" y="307.90909090909093"/>
      <point x="631.8484848484849" y="360.0909090909091"/>
      <point x="550.3636363636364" y="360.0909090909091" type="curve" smooth="yes"/>
      <point x="472.90909090909093" y="360.0909090909091"/>
      <point x="435.4848484848485" y="320.6666666666667"/>
      <point x="418.3939393939394" y="287.3636363636364" type="curve"/>
      <point x="418.3939393939394" y="514.969696969697" type="line"/>
      <point x="618.6060606060606" y="514.969696969697" type="line"/>
      <point x="618.6060606060606" y="544.5454545454545" type="line"/>
      <point x="120.84848484848484" y="544.5454545454545" type="line"/>
    </contour>
  </outline>
</glyph>
<glyph name="ja-tamil" format="2">
  <advance width="965.3030303030303"/>
  <unicode hex="0B9C"/>
  <note>
uni0B9C
</note>
  <anchor x="500.42424242424244" y="0.0" name="bottom"/>
  <anchor x="498.5151515151515" y="-281.8181818181818" name="nukta"/>
  <anchor x="508.57575757575756" y="544.5454545454545" name="top"/>
  <anchor x="502.7878787878788" y="544.5454545454545" name="vedic"/>
  <outline>
    <contour>
      <point x="260.3030303030303" y="-281.8181818181818" type="curve" smooth="yes"/>
      <point x="485.3939393939394" y="-281.8181818181818"/>
      <point x="509.2121212121212" y="-2.030303030303031"/>
      <point x="724.8787878787879" y="-2.030303030303031" type="curve" smooth="yes"/>
      <point x="804.2424242424242" y="-2.030303030303031"/>
      <point x="857.2121212121212" y="-47.66666666666667"/>
      <point x="857.2121212121212" y="-127.48484848484848" type="curve" smooth="yes"/>
      <point x="857.2121212121212" y="-205.6060606060606"/>
      <point x="798.3030303030303" y="-252.5151515151515"/>
      <point x="726.6666666666666" y="-252.5151515151515" type="curve" smooth="yes"/>
      <point x="682.6969696969697" y="-252.5151515151515"/>
      <point x="648.1212121212121" y="-239.78787878787878"/>
      <point x="610.9090909090909" y="-218.21212121212122" type="curve"/>
      <point x="598.2121212121212" y="-243.8181818181818" type="line"/>
      <point x="639.2727272727273" y="-269.030303030303"/>
      <point x="677.030303030303" y="-281.8181818181818"/>
      <point x="734.6363636363636" y="-281.8181818181818" type="curve" smooth="yes"/>
      <point x="826.3939393939394" y="-281.8181818181818"/>
      <point x="901.0" y="-223.96969696969697"/>
      <point x="901.0" y="-130.9090909090909" type="curve" smooth="yes"/>
      <point x="901.0" y="-28.39393939393939"/>
      <point x="832.0" y="28.333333333333336"/>
      <point x="729.3636363636364" y="28.333333333333336" type="curve" smooth="yes"/>
      <point x="483.969696969697" y="28.333333333333336"/>
      <point x="461.5151515151515" y="-248.5151515151515"/>
      <point x="262.72727272727275" y="-248.5151515151515" type="curve" smooth="yes"/>
      <point x="176.93939393939394" y="-248.5151515151515"/>
      <point x="117.54545454545455" y="-198.66666666666666"/>
      <point x="117.54545454545455" y="-110.3030303030303" type="curve" smooth="yes"/>
      <point x="117.54545454545455" y="28.0"/>
      <point x="231.75757575757575" y="62.57575757575758"/>
      <point x="509.57575757575756" y="86.0909090909091" type="curve" smooth="yes"/>
      <point x="744.8787878787879" y="105.87878787878788"/>
      <point x="901.0" y="159.42424242424244"/>
      <point x="901.0" y="349.45454545454544" type="curve" smooth="yes"/>
      <point x="901.0" y="475.06060606060606"/>
      <point x="821.3636363636364" y="552.6969696969697"/>
      <point x="701.969696969697" y="552.6969696969697" type="curve" smooth="yes"/>
      <point x="596.4848484848485" y="552.6969696969697"/>
      <point x="536.8181818181819" y="496.5151515151515"/>
      <point x="508.1818181818182" y="427.1818181818182" type="curve"/>
      <point x="476.3333333333333" y="498.3030303030303"/>
      <point x="410.45454545454544" y="552.6969696969697"/>
      <point x="299.8181818181818" y="552.6969696969697" type="curve" smooth="yes"/>
      <point x="154.87878787878788" y="552.6969696969697"/>
      <point x="65.36363636363636" y="462.6060606060606"/>
      <point x="65.36363636363636" y="350.57575757575756" type="curve" smooth="yes"/>
      <point x="65.36363636363636" y="238.78787878787878"/>
      <point x="122.54545454545455" y="162.3030303030303"/>
      <point x="221.1818181818182" y="162.3030303030303" type="curve" smooth="yes"/>
      <point x="293.93939393939394" y="162.3030303030303"/>
      <point x="352.4848484848485" y="206.5151515151515"/>
      <point x="352.4848484848485" y="283.8787878787879" type="curve" smooth="yes"/>
      <point x="352.4848484848485" y="353.54545454545456"/>
      <point x="302.93939393939394" y="400.969696969697"/>
      <point x="237.03030303030303" y="400.969696969697" type="curve" smooth="yes"/>
      <point x="164.27272727272728" y="400.969696969697"/>
      <point x="111.27272727272728" y="345.6969696969697"/>
      <point x="94.75757575757575" y="266.72727272727275" type="curve"/>
      <point x="113.87878787878788" y="242.12121212121212" type="line"/>
      <point x="133.12121212121212" y="320.42424242424244"/>
      <point x="168.8181818181818" y="369.3333333333333"/>
      <point x="228.57575757575756" y="369.3333333333333" type="curve" smooth="yes"/>
      <point x="278.6060606060606" y="369.3333333333333"/>
      <point x="310.9090909090909" y="333.24242424242425"/>
      <point x="310.9090909090909" y="282.1515151515151" type="curve" smooth="yes"/>
      <point x="310.9090909090909" y="228.3939393939394"/>
      <point x="272.3636363636364" y="194.24242424242425"/>
      <point x="216.33333333333334" y="194.24242424242425" type="curve" smooth="yes"/>
      <point x="146.42424242424244" y="194.24242424242425"/>
      <point x="99.93939393939394" y="246.93939393939394"/>
      <point x="99.93939393939394" y="346.3636363636364" type="curve" smooth="yes"/>
      <point x="99.93939393939394" y="443.4848484848485"/>
      <point x="176.84848484848484" y="521.5454545454545"/>
      <point x="291.8484848484849" y="521.5454545454545" type="curve" smooth="yes"/>
      <point x="411.6060606060606" y="521.5454545454545"/>
      <point x="488.6969696969697" y="449.72727272727275"/>
      <point x="488.6969696969697" y="341.8181818181818" type="curve" smooth="yes"/>
      <point x="488.6969696969697" y="209.4848484848485" type="line"/>
      <point x="528.5454545454545" y="209.4848484848485" type="line"/>
      <point x="528.5454545454545" y="360.72727272727275" type="line" smooth="yes"/>
      <point x="528.5454545454545" y="437.42424242424244"/>
      <point x="588.0" y="522.3333333333334"/>
      <point x="696.8484848484849" y="522.3333333333334" type="curve" smooth="yes"/>
      <point x="803.030303030303" y="522.3333333333334"/>
      <point x="856.4242424242424" y="447.3636363636364"/>
      <point x="856.4242424242424" y="353.93939393939394" type="curve" smooth="yes"/>
      <point x="856.4242424242424" y="193.0909090909091"/>
      <point x="749.5757575757576" y="138.12121212121212"/>
      <point x="480.45454545454544" y="115.33333333333333" type="curve" smooth="yes"/>
      <point x="197.60606060606062" y="91.81818181818181"/>
      <point x="73.96969696969697" y="49.18181818181819"/>
      <point x="73.96969696969697" y="-107.51515151515152" type="curve" smooth="yes"/>
      <point x="73.96969696969697" y="-218.33333333333334"/>
      <point x="155.42424242424244" y="-281.8181818181818"/>
    </contour>
  </outline>
</glyph>
<glyph name="tta-tamil" format="2">
  <advance width="878.0"/>
  <unicode hex="0B9F"/>
  <note>
uni0B9F
</note>
  <anchor x="494.0" y="0.0" name="bottom"/>
  <anchor x="494.0" y="0.0" name="nukta"/>
  <anchor x="511.3636363636364" y="544.5454545454545" name="top"/>
  <anchor x="490.06060606060606" y="544.5454545454545" name="vedic"/>
  <outline>
    <contour>
      <point x="120.84848484848484" y="0.0" type="line"/>
      <point x="859.2727272727273" y="0.0" type="line"/>
      <point x="859.2727272727273" y="29.575757575757578" type="line"/>
      <point x="163.63636363636363" y="29.575757575757578" type="line"/>
      <point x="163.63636363636363" y="544.5454545454545" type="line"/>
      <point x="120.84848484848484" y="544.5454545454545" type="line"/>
    </contour>
  </outline>
</glyph>
<glyph name="ta-tamil" format="2">
  <advance width="800.4242424242424"/>
  <unicode hex="0BA4"/>
  <note>
uni0BA4
</note>
  <anchor x="398.6363636363636" y="0.0" name="bottom"/>
  <anchor x="578.3333333333334" y="544.5454545454545" name="imatra"/>
  <anchor x="398.6363636363636" y="-132.9090909090909" name="nukta"/>
  <anchor x="422.57575757575756" y="544.5454545454545" name="top"/>
  <anchor x="405.3636363636364" y="544.5454545454545" name="vedic"/>
  <outline>
    <contour>
      <point x="146.3939393939394" y="-212.75757575757575" type="curve"/>
      <point x="146.3939393939394" y="-169.75757575757575"/>
      <point x="167.1818181818182" y="-132.12121212121212"/>
      <point x="228.87878787878788" y="-132.12121212121212" type="curve" smooth="yes"/>
      <point x="429.030303030303" y="-132.12121212121212" type="line" smooth="yes"/>
      <point x="620.8484848484849" y="-132.12121212121212"/>
      <point x="735.9090909090909" y="-57.84848484848485"/>
      <point x="735.9090909090909" y="93.27272727272728" type="curve" smooth="yes"/>
      <point x="735.9090909090909" y="226.6969696969697"/>
      <point x="643.2424242424242" y="302.8181818181818"/>
      <point x="503.969696969697" y="302.8181818181818" type="curve" smooth="yes"/>
      <point x="459.6363636363636" y="302.8181818181818" type="line"/>
      <point x="459.6363636363636" y="514.969696969697" type="line"/>
      <point x="649.6060606060606" y="514.969696969697" type="line"/>
      <point x="649.6060606060606" y="544.5454545454545" type="line"/>
      <point x="190.27272727272728" y="544.5454545454545" type="line"/>
      <point x="190.27272727272728" y="284.42424242424244" type="line"/>
      <point x="223.6969696969697" y="284.42424242424244" type="line"/>
      <point x="223.6969696969697" y="514.969696969697" type="line"/>
      <point x="417.42424242424244" y="514.969696969697" type="line"/>
      <point x="417.42424242424244" y="302.8181818181818" type="line"/>
      <point x="247.84848484848484" y="302.8181818181818" type="line" smooth="yes"/>
      <point x="138.36363636363637" y="302.8181818181818"/>
      <point x="69.3030303030303" y="235.5151515151515"/>
      <point x="69.3030303030303" y="149.3939393939394" type="curve" smooth="yes"/>
      <point x="69.3030303030303" y="61.36363636363636"/>
      <point x="141.66666666666666" y="-4.0"/>
      <point x="255.15151515151516" y="-4.0" type="curve" smooth="yes"/>
      <point x="378.1515151515151" y="-4.0"/>
      <point x="459.6363636363636" y="74.48484848484848"/>
      <point x="459.6363636363636" y="193.6969696969697" type="curve" smooth="yes"/>
      <point x="459.6363636363636" y="272.45454545454544" type="line"/>
      <point x="504.75757575757575" y="272.45454545454544" type="line" smooth="yes"/>
      <point x="621.6666666666666" y="272.45454545454544"/>
      <point x="694.1212121212121" y="201.0909090909091"/>
      <point x="694.1212121212121" y="94.6969696969697" type="curve" smooth="yes"/>
      <point x="694.1212121212121" y="-36.57575757575758"/>
      <point x="588.8181818181819" y="-103.60606060606061"/>
      <point x="420.1515151515151" y="-103.60606060606061" type="curve" smooth="yes"/>
      <point x="193.0909090909091" y="-103.60606060606061" type="line" smooth="yes"/>
      <point x="133.45454545454547" y="-103.60606060606061"/>
      <point x="92.06060606060606" y="-125.33333333333333"/>
      <point x="92.06060606060606" y="-166.3939393939394" type="curve" smooth="yes"/>
      <point x="92.06060606060606" y="-194.9090909090909"/>
      <point x="111.24242424242425" y="-212.75757575757575"/>
    </contour>
    <contour>
      <point x="251.0909090909091" y="26.93939393939394" type="curve" smooth="yes"/>
      <point x="162.21212121212122" y="26.93939393939394"/>
      <point x="108.45454545454545" y="76.9090909090909"/>
      <point x="108.45454545454545" y="150.54545454545456" type="curve" smooth="yes"/>
      <point x="108.45454545454545" y="215.9090909090909"/>
      <point x="156.45454545454547" y="272.45454545454544"/>
      <point x="251.9090909090909" y="272.45454545454544" type="curve" smooth="yes"/>
      <point x="417.42424242424244" y="272.45454545454544" type="line"/>
      <point x="417.42424242424244" y="189.0" type="line" smooth="yes"/>
      <point x="417.42424242424244" y="91.57575757575758"/>
      <point x="347.8484848484849" y="26.93939393939394"/>
    </contour>
  </outline>
</glyph>
<glyph name="pa-tamil" format="2">
  <advance width="890.1212121212121"/>
  <unicode hex="0BAA"/>
  <note>
uni0BAA
</note>
  <anchor x="449.0" y="0.0" name="bottom"/>
  <anchor x="759.4848484848485" y="544.5454545454545" name="imatra"/>
  <anchor x="449.0" y="0.0" name="nukta"/>
  <anchor x="449.7878787878788" y="544.5454545454545" name="top"/>
  <anchor x="445.06060606060606" y="544.5454545454545" name="vedic"/>
  <outline>
    <contour>
      <point x="120.84848484848484" y="0.0" type="line"/>
      <point x="769.4848484848485" y="0.0" type="line"/>
      <point x="769.4848484848485" y="544.5454545454545" type="line"/>
      <point x="726.4848484848485" y="544.5454545454545" type="line"/>
      <point x="726.4848484848485" y="29.575757575757578" type="line"/>
      <point x="163.63636363636363" y="29.575757575757578" type="line"/>
      <point x="163.63636363636363" y="544.5454545454545" type="line"/>
      <point x="120.84848484848484" y="544.5454545454545" type="line"/>
    </contour>
  </outline>
</glyph>
<glyph name="ya-tamil" format="2">
  <advance width="946.8484848484849"/>
  <unicode hex="0BAF"/>
  <note>
uni0BAF
</note>
  <anchor x="489.24242424242425" y="0.0" name="bottom"/>
  <anchor x="816.2121212121212" y="544.5454545454545" name="imatra"/>
  <anchor x="489.24242424242425" y="0.0" name="nukta"/>
  <anchor x="490.3030303030303" y="544.5454545454545" name="top"/>
  <anchor x="472.6060606060606" y="544.5454545454545" name="vedic"/>
  <outline>
    <contour>
      <point x="255.66666666666666" y="-5.0" type="curve" smooth="yes"/>
      <point x="318.42424242424244" y="-5.0"/>
      <point x="359.2121212121212" y="33.24242424242424"/>
      <point x="379.24242424242425" y="71.0" type="curve"/>
      <point x="379.24242424242425" y="0.0" type="line"/>
      <point x="826.2121212121212" y="0.0" type="line"/>
      <point x="826.2121212121212" y="544.5454545454545" type="line"/>
      <point x="782.4242424242424" y="544.5454545454545" type="line"/>
      <point x="782.4242424242424" y="29.575757575757578" type="line"/>
      <point x="418.969696969697" y="29.575757575757578" type="line"/>
      <point x="418.969696969697" y="544.5454545454545" type="line"/>
      <point x="376.3939393939394" y="544.5454545454545" type="line"/>
      <point x="376.3939393939394" y="145.03030303030303" type="line" smooth="yes"/>
      <point x="376.3939393939394" y="84.24242424242425"/>
      <point x="328.2121212121212" y="28.424242424242426"/>
      <point x="261.3333333333333" y="28.424242424242426" type="curve" smooth="yes"/>
      <point x="199.93939393939394" y="28.424242424242426"/>
      <point x="162.36363636363637" y="68.72727272727272"/>
      <point x="162.36363636363637" y="138.3939393939394" type="curve" smooth="yes"/>
      <point x="162.36363636363637" y="544.5454545454545" type="line"/>
      <point x="119.78787878787878" y="544.5454545454545" type="line"/>
      <point x="119.78787878787878" y="145.93939393939394" type="line" smooth="yes"/>
      <point x="119.78787878787878" y="47.27272727272727"/>
      <point x="175.42424242424244" y="-5.0"/>
    </contour>
  </outline>
</glyph>
<glyph name="ra-tamil" format="2">
  <advance width="683.2121212121212"/>
  <unicode hex="0BB0"/>
  <note>
uni0BB0
</note>
  <anchor x="361.3030303030303" y="0.0" name="bottom"/>
  <anchor x="592.9090909090909" y="544.5454545454545" name="imatra"/>
  <anchor x="358.93939393939394" y="-172.21212121212122" name="nukta"/>
  <anchor x="380.6969696969697" y="544.5454545454545" name="top"/>
  <anchor x="385.3333333333333" y="544.5454545454545" name="vedic"/>
  <outline>
    <contour>
      <point x="253.0" y="-214.78787878787878" type="line"/>
      <point x="457.4848484848485" y="0.6060606060606073" type="line"/>
      <point x="457.4848484848485" y="514.969696969697" type="line"/>
      <point x="657.9090909090909" y="514.969696969697" type="line"/>
      <point x="657.9090909090909" y="544.5454545454545" type="line"/>
      <point x="120.84848484848484" y="544.5454545454545" type="line"/>
      <point x="120.84848484848484" y="0.0" type="line"/>
      <point x="154.27272727272728" y="0.0" type="line"/>
      <point x="154.27272727272728" y="514.969696969697" type="line"/>
      <point x="414.6969696969697" y="514.969696969697" type="line"/>
      <point x="414.6969696969697" y="3.5151515151515147" type="line"/>
      <point x="229.9090909090909" y="-191.12121212121212" type="line"/>
    </contour>
  </outline>
</glyph>
<glyph name="la-tamil" format="2">
  <advance width="1017.7575757575758"/>
  <unicode hex="0BB2"/>
  <note>
uni0BB2
</note>
  <anchor x="511.24242424242425" y="0.0" name="bottom"/>
  <anchor x="511.24242424242425" y="0.0" name="nukta"/>
  <anchor x="527.1515151515151" y="544.5454545454545" name="top"/>
  <anchor x="511.3939393939394" y="544.5454545454545" name="vedic"/>
  <outline>
    <contour>
      <point x="257.72727272727275" y="-4.0" type="curve" smooth="yes"/>
      <point x="351.54545454545456" y="-4.0"/>
      <point x="417.24242424242425" y="52.90909090909091"/>
      <point x="417.24242424242425" y="146.84848484848484" type="curve" smooth="yes"/>
      <point x="417.24242424242425" y="234.9090909090909"/>
      <point x="354.5151515151515" y="287.45454545454544"/>
      <point x="276.27272727272725" y="287.45454545454544" type="curve" smooth="yes"/>
      <point x="179.27272727272728" y="287.45454545454544"/>
      <point x="120.12121212121212" y="212.45454545454547"/>
      <point x="99.72727272727272" y="131.0909090909091" type="curve"/>
      <point x="115.54545454545455" y="105.66666666666667" type="line"/>
      <point x="138.87878787878788" y="187.36363636363637"/>
      <point x="184.72727272727272" y="253.33333333333334"/>
      <point x="263.6969696969697" y="253.33333333333334" type="curve" smooth="yes"/>
      <point x="333.27272727272725" y="253.33333333333334"/>
      <point x="375.6666666666667" y="209.9090909090909"/>
      <point x="375.6666666666667" y="142.84848484848484" type="curve" smooth="yes"/>
      <point x="375.6666666666667" y="68.36363636363636"/>
      <point x="323.27272727272725" y="26.93939393939394"/>
      <point x="250.96969696969697" y="26.93939393939394" type="curve" smooth="yes"/>
      <point x="159.27272727272728" y="26.93939393939394"/>
      <point x="98.87878787878788" y="108.21212121212122"/>
      <point x="98.87878787878788" y="229.42424242424244" type="curve" smooth="yes"/>
      <point x="98.87878787878788" y="397.4848484848485"/>
      <point x="192.42424242424244" y="522.3333333333334"/>
      <point x="356.6666666666667" y="522.3333333333334" type="curve" smooth="yes"/>
      <point x="481.6666666666667" y="522.3333333333334"/>
      <point x="568.5454545454545" y="453.6363636363636"/>
      <point x="568.5454545454545" y="318.42424242424244" type="curve" smooth="yes"/>
      <point x="568.5454545454545" y="158.03030303030303" type="line" smooth="yes"/>
      <point x="568.5454545454545" y="58.78787878787879"/>
      <point x="622.3939393939394" y="-3.1515151515151514"/>
      <point x="721.969696969697" y="-3.1515151515151514" type="curve" smooth="yes"/>
      <point x="846.060606060606" y="-3.1515151515151514"/>
      <point x="950.8181818181819" y="117.60606060606061"/>
      <point x="950.8181818181819" y="282.93939393939394" type="curve" smooth="yes"/>
      <point x="950.8181818181819" y="382.09090909090907"/>
      <point x="922.2424242424242" y="467.54545454545456"/>
      <point x="840.1818181818182" y="549.5454545454545" type="curve"/>
      <point x="815.7878787878788" y="527.5151515151515" type="line"/>
      <point x="883.8484848484849" y="461.72727272727275"/>
      <point x="917.3030303030303" y="388.1212121212121"/>
      <point x="917.3030303030303" y="285.06060606060606" type="curve" smooth="yes"/>
      <point x="917.3030303030303" y="135.42424242424244"/>
      <point x="824.3030303030303" y="28.272727272727273"/>
      <point x="725.0909090909091" y="28.272727272727273" type="curve" smooth="yes"/>
      <point x="642.3333333333334" y="28.272727272727273"/>
      <point x="611.5454545454545" y="79.03030303030303"/>
      <point x="611.5454545454545" y="156.24242424242425" type="curve" smooth="yes"/>
      <point x="611.5454545454545" y="316.42424242424244" type="line" smooth="yes"/>
      <point x="611.5454545454545" y="477.75757575757575"/>
      <point x="503.8787878787879" y="552.6969696969697"/>
      <point x="358.57575757575756" y="552.6969696969697" type="curve" smooth="yes"/>
      <point x="175.5151515151515" y="552.6969696969697"/>
      <point x="64.51515151515152" y="414.0"/>
      <point x="64.51515151515152" y="230.84848484848484" type="curve" smooth="yes"/>
      <point x="64.51515151515152" y="91.18181818181819"/>
      <point x="142.57575757575756" y="-4.0"/>
    </contour>
  </outline>
</glyph>
<glyph name="sha-tamil" format="2">
  <advance width="1132.4848484848485"/>
  <unicode hex="0BB6"/>
  <note>
uni0BB6
</note>
  <anchor x="583.8787878787879" y="0.0" name="bottom"/>
  <anchor x="881.4545454545455" y="544.5454545454545" name="imatra"/>
  <anchor x="583.8787878787879" y="0.0" name="nukta"/>
  <anchor x="586.0909090909091" y="544.5454545454545" name="top"/>
  <anchor x="592.4545454545455" y="544.5454545454545" name="vedic"/>
  <outline>
    <contour>
      <point x="302.2121212121212" y="-8.151515151515152" type="curve" smooth="yes"/>
      <point x="411.8484848484849" y="-8.151515151515152"/>
      <point x="492.75757575757575" y="47.78787878787879"/>
      <point x="492.75757575757575" y="192.66666666666666" type="curve" smooth="yes"/>
      <point x="492.75757575757575" y="514.969696969697" type="line"/>
      <point x="674.2121212121212" y="514.969696969697" type="line"/>
      <point x="674.2121212121212" y="166.93939393939394" type="line" smooth="yes"/>
      <point x="674.2121212121212" y="57.515151515151516"/>
      <point x="718.3333333333334" y="-8.151515151515152"/>
      <point x="820.2727272727273" y="-8.151515151515152" type="curve" smooth="yes"/>
      <point x="958.3030303030303" y="-8.151515151515152"/>
      <point x="1065.3333333333333" y="133.03030303030303"/>
      <point x="1065.3333333333333" y="324.7878787878788" type="curve" smooth="yes"/>
      <point x="1065.3333333333333" y="477.93939393939394"/>
      <point x="1011.3030303030303" y="544.5454545454545"/>
      <point x="898.2121212121212" y="544.5454545454545" type="curve" smooth="yes"/>
      <point x="459.75757575757575" y="544.5454545454545" type="line"/>
      <point x="459.75757575757575" y="192.66666666666666" type="line" smooth="yes"/>
      <point x="459.75757575757575" y="64.96969696969697"/>
      <point x="390.8787878787879" y="23.272727272727273"/>
      <point x="302.75757575757575" y="23.272727272727273" type="curve" smooth="yes"/>
      <point x="217.63636363636363" y="23.272727272727273"/>
      <point x="162.78787878787878" y="65.72727272727272"/>
      <point x="162.78787878787878" y="185.75757575757575" type="curve" smooth="yes"/>
      <point x="162.78787878787878" y="544.5454545454545" type="line"/>
      <point x="119.78787878787878" y="544.5454545454545" type="line"/>
      <point x="119.78787878787878" y="185.54545454545456" type="line" smooth="yes"/>
      <point x="119.78787878787878" y="49.21212121212121"/>
      <point x="192.36363636363637" y="-8.151515151515152"/>
    </contour>
    <contour>
      <point x="821.8181818181819" y="23.272727272727273" type="curve" smooth="yes"/>
      <point x="747.1818181818182" y="23.272727272727273"/>
      <point x="716.4242424242424" y="71.18181818181819"/>
      <point x="716.4242424242424" y="165.93939393939394" type="curve" smooth="yes"/>
      <point x="716.4242424242424" y="514.969696969697" type="line"/>
      <point x="893.939393939394" y="514.969696969697" type="line" smooth="yes"/>
      <point x="985.6060606060606" y="514.969696969697"/>
      <point x="1031.121212121212" y="458.3636363636364"/>
      <point x="1031.121212121212" y="326.7878787878788" type="curve" smooth="yes"/>
      <point x="1031.121212121212" y="147.93939393939394"/>
      <point x="932.4848484848485" y="23.272727272727273"/>
    </contour>
  </outline>
</glyph>
<glyph name="sa-tamil" format="2">
  <advance width="1287.6363636363637"/>
  <unicode hex="0BB8"/>
  <note>
uni0BB8
</note>
  <anchor x="662.5757575757576" y="0.0" name="bottom"/>
  <anchor x="662.5757575757576" y="0.0" name="nukta"/>
  <anchor x="651.4545454545455" y="544.5454545454545" name="top"/>
  <anchor x="644.6060606060606" y="544.5454545454545" name="vedic"/>
  <outline>
    <contour>
      <point x="588.6060606060606" y="0.0" type="line"/>
      <point x="630.8181818181819" y="0.0" type="line"/>
      <point x="630.8181818181819" y="409.5151515151515" type="line" smooth="yes"/>
      <point x="630.8181818181819" y="477.1818181818182"/>
      <point x="668.9090909090909" y="522.1212121212121"/>
      <point x="735.4848484848485" y="522.1212121212121" type="curve" smooth="yes"/>
      <point x="801.7272727272727" y="522.1212121212121"/>
      <point x="836.3030303030303" y="475.72727272727275"/>
      <point x="836.3030303030303" y="409.90909090909093" type="curve" smooth="yes"/>
      <point x="836.3030303030303" y="159.0909090909091" type="line" smooth="yes"/>
      <point x="836.3030303030303" y="59.84848484848485"/>
      <point x="890.1515151515151" y="-3.1515151515151514"/>
      <point x="990.5151515151515" y="-3.1515151515151514" type="curve" smooth="yes"/>
      <point x="1116.1515151515152" y="-3.1515151515151514"/>
      <point x="1220.6969696969697" y="117.60606060606061"/>
      <point x="1220.6969696969697" y="282.93939393939394" type="curve" smooth="yes"/>
      <point x="1220.6969696969697" y="382.8787878787879"/>
      <point x="1191.060606060606" y="467.75757575757575"/>
      <point x="1108.5757575757575" y="549.5454545454545" type="curve"/>
      <point x="1083.121212121212" y="526.8787878787879" type="line"/>
      <point x="1152.6060606060605" y="460.24242424242425"/>
      <point x="1185.060606060606" y="388.9090909090909"/>
      <point x="1185.060606060606" y="285.06060606060606" type="curve" smooth="yes"/>
      <point x="1185.060606060606" y="135.42424242424244"/>
      <point x="1092.060606060606" y="28.272727272727273"/>
      <point x="993.4242424242425" y="28.272727272727273" type="curve" smooth="yes"/>
      <point x="914.6969696969697" y="28.272727272727273"/>
      <point x="879.3030303030303" y="79.03030303030303"/>
      <point x="879.3030303030303" y="157.3030303030303" type="curve" smooth="yes"/>
      <point x="879.3030303030303" y="404.1515151515151" type="line" smooth="yes"/>
      <point x="879.3030303030303" y="496.42424242424244"/>
      <point x="825.2121212121212" y="552.6969696969697"/>
      <point x="738.4545454545455" y="552.6969696969697" type="curve" smooth="yes"/>
      <point x="650.1515151515151" y="552.6969696969697"/>
      <point x="599.5151515151515" y="489.7878787878788"/>
      <point x="599.5151515151515" y="415.5151515151515" type="curve" smooth="yes"/>
      <point x="599.5151515151515" y="363.8787878787879" type="line"/>
      <point x="588.6060606060606" y="363.8787878787879" type="line"/>
    </contour>
    <contour>
      <point x="262.5151515151515" y="-4.0" type="curve" smooth="yes"/>
      <point x="356.54545454545456" y="-4.0"/>
      <point x="422.24242424242425" y="52.90909090909091"/>
      <point x="422.24242424242425" y="146.84848484848484" type="curve" smooth="yes"/>
      <point x="422.24242424242425" y="234.9090909090909"/>
      <point x="359.5151515151515" y="287.45454545454544"/>
      <point x="280.4848484848485" y="287.45454545454544" type="curve" smooth="yes"/>
      <point x="184.06060606060606" y="287.45454545454544"/>
      <point x="124.9090909090909" y="212.45454545454547"/>
      <point x="104.51515151515152" y="131.0909090909091" type="curve"/>
      <point x="120.33333333333334" y="105.66666666666667" type="line"/>
      <point x="143.66666666666666" y="187.36363636363637"/>
      <point x="189.5151515151515" y="253.33333333333334"/>
      <point x="268.4848484848485" y="253.33333333333334" type="curve" smooth="yes"/>
      <point x="338.06060606060606" y="253.33333333333334"/>
      <point x="380.45454545454544" y="209.9090909090909"/>
      <point x="380.45454545454544" y="142.84848484848484" type="curve" smooth="yes"/>
      <point x="380.45454545454544" y="68.36363636363636"/>
      <point x="328.06060606060606" y="26.93939393939394"/>
      <point x="255.75757575757575" y="26.93939393939394" type="curve" smooth="yes"/>
      <point x="163.42424242424244" y="26.93939393939394"/>
      <point x="103.87878787878788" y="109.48484848484848"/>
      <point x="103.87878787878788" y="233.24242424242425" type="curve" smooth="yes"/>
      <point x="103.87878787878788" y="398.75757575757575"/>
      <point x="199.1818181818182" y="522.3333333333334"/>
      <point x="366.1212121212121" y="522.3333333333334" type="curve" smooth="yes"/>
      <point x="491.1818181818182" y="522.3333333333334"/>
      <point x="588.6060606060606" y="454.9090909090909"/>
      <point x="588.6060606060606" y="311.6363636363636" type="curve"/>
      <point x="622.6060606060606" y="311.1212121212121" type="line"/>
      <point x="621.5454545454545" y="479.45454545454544"/>
      <point x="510.57575757575756" y="552.6969696969697"/>
      <point x="365.3333333333333" y="552.6969696969697" type="curve" smooth="yes"/>
      <point x="180.93939393939394" y="552.6969696969697"/>
      <point x="69.3030303030303" y="415.06060606060606"/>
      <point x="69.3030303030303" y="234.24242424242425" type="curve" smooth="yes"/>
      <point x="69.3030303030303" y="92.45454545454545"/>
      <point x="146.5151515151515" y="-4.0"/>
    </contour>
  </outline>
</glyph>
<glyph name="aaMatra-tamil" format="2">
  <advance width="700.4242424242424"/>
  <unicode hex="0BBE"/>
  <note>
uni0BBE
</note>
  <anchor x="382.45454545454544" y="0.0" name="bottom"/>
  <anchor x="381.45454545454544" y="0.0" name="nukta"/>
  <anchor x="375.45454545454544" y="544.5454545454545" name="top"/>
  <anchor x="375.45454545454544" y="544.5454545454545" name="vedic"/>
  <outline>
    <contour>
      <point x="120.84848484848484" y="0.0" type="line"/>
      <point x="154.27272727272728" y="0.0" type="line"/>
      <point x="154.27272727272728" y="514.969696969697" type="line"/>
      <point x="431.9090909090909" y="514.969696969697" type="line"/>
      <point x="431.9090909090909" y="0.0" type="line"/>
      <point x="474.6969696969697" y="0.0" type="line"/>
      <point x="474.6969696969697" y="514.969696969697" type="line"/>
      <point x="675.1212121212121" y="514.969696969697" type="line"/>
      <point x="675.1212121212121" y="544.5454545454545" type="line"/>
      <point x="120.84848484848484" y="544.5454545454545" type="line"/>
    </contour>
  </outline>
</glyph>
<glyph name="iMatra-tamil" format="2">
  <advance width="233.57575757575756"/>
  <unicode hex="0BBF"/>
  <note>
uni0BBF
</note>
  <anchor x="-113.15151515151516" y="807.2121212121212" name="top"/>
  <outline>
    <contour>
      <point x="92.69696969696969" y="0.0" type="line"/>
      <point x="128.4848484848485" y="0.0" type="line"/>
      <point x="128.4848484848485" y="553.4545454545455" type="line" smooth="yes"/>
      <point x="128.4848484848485" y="711.5757575757576"/>
      <point x="30.393939393939394" y="807.2121212121212"/>
      <point x="-113.15151515151516" y="807.2121212121212" type="curve" smooth="yes"/>
      <point x="-227.27272727272728" y="807.2121212121212"/>
      <point x="-296.06060606060606" y="739.5151515151515"/>
      <point x="-296.06060606060606" y="649.6363636363636" type="curve" smooth="yes"/>
      <point x="-296.06060606060606" y="564.5757575757576"/>
      <point x="-230.42424242424244" y="514.969696969697"/>
      <point x="-161.8181818181818" y="514.969696969697" type="curve" smooth="yes"/>
      <point x="-154.45454545454547" y="514.969696969697" type="line"/>
      <point x="-154.45454545454547" y="544.5454545454545" type="line"/>
      <point x="-159.45454545454547" y="544.5454545454545" type="line" smooth="yes"/>
      <point x="-216.54545454545456" y="544.5454545454545"/>
      <point x="-260.2121212121212" y="583.060606060606"/>
      <point x="-260.2121212121212" y="642.939393939394" type="curve" smooth="yes"/>
      <point x="-260.2121212121212" y="717.6666666666666"/>
      <point x="-207.0909090909091" y="764.9090909090909"/>
      <point x="-115.42424242424242" y="764.9090909090909" type="curve" smooth="yes"/>
      <point x="8.636363636363637" y="764.9090909090909"/>
      <point x="92.69696969696969" y="685.8787878787879"/>
      <point x="92.69696969696969" y="537.6363636363636" type="curve" smooth="yes"/>
    </contour>
  </outline>
</glyph>
<glyph name="iiMatra-tamil" format="2">
  <unicode hex="0BC0"/>
  <note>
uni0BC0
</note>
  <anchor x="0.0" y="544.5454545454545" name="_imatra"/>
  <anchor x="12.787878787878787" y="874.1212121212121" name="top"/>
  <outline>
    <contour>
      <point x="-18.484848484848484" y="517.6060606060606" type="curve" smooth="yes"/>
      <point x="0.0" y="517.6060606060606" type="line"/>
      <point x="0.0" y="544.5454545454545" type="line"/>
      <point x="-18.484848484848484" y="544.5454545454545" type="line" smooth="yes"/>
      <point x="-107.81818181818181" y="544.5454545454545"/>
      <point x="-161.15151515151516" y="600.060606060606"/>
      <point x="-161.15151515151516" y="687.1515151515151" type="curve" smooth="yes"/>
      <point x="-161.15151515151516" y="778.6666666666666"/>
      <point x="-99.63636363636364" y="845.3333333333334"/>
      <point x="10.363636363636363" y="845.3333333333334" type="curve" smooth="yes"/>
      <point x="94.81818181818181" y="845.3333333333334"/>
      <point x="156.84848484848484" y="805.3939393939394"/>
      <point x="156.84848484848484" y="734.7272727272727" type="curve" smooth="yes"/>
      <point x="156.84848484848484" y="685.4242424242424"/>
      <point x="121.48484848484848" y="647.3333333333334"/>
      <point x="62.303030303030305" y="647.3333333333334" type="curve" smooth="yes"/>
      <point x="-35.84848484848485" y="647.3333333333334"/>
      <point x="-60.21212121212121" y="759.939393939394"/>
      <point x="-9.212121212121213" y="854.1515151515151" type="curve"/>
      <point x="-34.09090909090909" y="858.1515151515151" type="line"/>
      <point x="-101.0" y="747.1212121212121"/>
      <point x="-60.81818181818182" y="617.7575757575758"/>
      <point x="67.63636363636364" y="617.7575757575758" type="curve" smooth="yes"/>
      <point x="144.96969696969697" y="617.7575757575758"/>
      <point x="197.3030303030303" y="664.6666666666666"/>
      <point x="197.3030303030303" y="732.0909090909091" type="curve" smooth="yes"/>
      <point x="197.3030303030303" y="819.5757575757576"/>
      <point x="122.24242424242425" y="874.1212121212121"/>
      <point x="12.787878787878787" y="874.1212121212121" type="curve" smooth="yes"/>
      <point x="-116.9090909090909" y="874.1212121212121"/>
      <point x="-197.0909090909091" y="792.1212121212121"/>
      <point x="-197.0909090909091" y="687.3636363636364" type="curve" smooth="yes"/>
      <point x="-197.0909090909091" y="583.8787878787879"/>
      <point x="-126.21212121212122" y="517.6060606060606"/>
    </contour>
  </outline>
</glyph>
<glyph name="uuMatra-tamil" format="2">
  <advance width="880.1212121212121"/>
  <unicode hex="0BC2"/>
  <note>
uni0BC2
</note>
  <anchor x="483.45454545454544" y="780.0" name="top"/>
  <outline>
    <contour>
      <point x="422.3939393939394" y="0.7878787878787878" type="curve" smooth="yes"/>
      <point x="674.7272727272727" y="0.7878787878787878"/>
      <point x="831.1212121212121" y="168.21212121212122"/>
      <point x="831.1212121212121" y="407.8484848484849" type="curve" smooth="yes"/>
      <point x="831.1212121212121" y="627.030303030303"/>
      <point x="690.969696969697" y="780.0"/>
      <point x="483.45454545454544" y="780.0" type="curve" smooth="yes"/>
      <point x="276.27272727272725" y="780.0"/>
      <point x="192.45454545454544" y="649.5757575757576"/>
      <point x="192.45454545454544" y="522.2121212121212" type="curve" smooth="yes"/>
      <point x="192.45454545454544" y="406.93939393939394" type="line" smooth="yes"/>
      <point x="192.45454545454544" y="298.969696969697"/>
      <point x="246.12121212121212" y="225.8181818181818"/>
      <point x="355.030303030303" y="225.8181818181818" type="curve" smooth="yes"/>
      <point x="451.5151515151515" y="225.8181818181818"/>
      <point x="524.5757575757576" y="290.8181818181818"/>
      <point x="524.5757575757576" y="399.54545454545456" type="curve" smooth="yes"/>
      <point x="524.5757575757576" y="544.5454545454545" type="line"/>
      <point x="-243.72727272727272" y="544.5454545454545" type="line"/>
      <point x="-222.84848484848484" y="514.969696969697" type="line"/>
      <point x="481.7878787878788" y="514.969696969697" type="line"/>
      <point x="481.7878787878788" y="392.9090909090909" type="line" smooth="yes"/>
      <point x="481.7878787878788" y="311.42424242424244"/>
      <point x="426.969696969697" y="257.75757575757575"/>
      <point x="348.6363636363636" y="257.75757575757575" type="curve" smooth="yes"/>
      <point x="265.6060606060606" y="257.75757575757575"/>
      <point x="225.87878787878788" y="318.0"/>
      <point x="225.87878787878788" y="403.5151515151515" type="curve" smooth="yes"/>
      <point x="225.87878787878788" y="522.2121212121212" type="line" smooth="yes"/>
      <point x="225.87878787878788" y="637.0909090909091"/>
      <point x="303.7878787878788" y="749.8484848484849"/>
      <point x="475.6969696969697" y="749.8484848484849" type="curve" smooth="yes"/>
      <point x="670.0" y="749.8484848484849"/>
      <point x="788.9090909090909" y="607.8181818181818"/>
      <point x="788.9090909090909" y="413.969696969697" type="curve" smooth="yes"/>
      <point x="788.9090909090909" y="197.3030303030303"/>
      <point x="657.2424242424242" y="31.151515151515152"/>
      <point x="421.8181818181818" y="31.151515151515152" type="curve" smooth="yes"/>
      <point x="290.57575757575756" y="31.151515151515152"/>
      <point x="206.96969696969697" y="71.63636363636364"/>
      <point x="122.03030303030303" y="166.57575757575756" type="curve"/>
      <point x="97.21212121212122" y="145.8181818181818" type="line"/>
      <point x="187.36363636363637" y="47.09090909090909"/>
      <point x="274.75757575757575" y="0.7878787878787878"/>
    </contour>
  </outline>
</glyph>
<glyph name="eMatra-tamil" format="2">
  <advance width="825.2121212121212"/>
  <unicode hex="0BC6"/>
  <note>
uni0BC6
</note>
  <outline>
    <contour>
      <point x="308.6666666666667" y="-4.0" type="curve" smooth="yes"/>
      <point x="404.06060606060606" y="-4.0"/>
      <point x="473.6969696969697" y="54.484848484848484"/>
      <point x="473.6969696969697" y="150.0" type="curve" smooth="yes"/>
      <point x="473.6969696969697" y="239.12121212121212"/>
      <point x="411.75757575757575" y="294.030303030303"/>
      <point x="326.93939393939394" y="294.030303030303" type="curve" smooth="yes"/>
      <point x="232.03030303030303" y="294.030303030303"/>
      <point x="159.21212121212122" y="229.0"/>
      <point x="132.78787878787878" y="121.84848484848484" type="curve"/>
      <point x="150.96969696969697" y="97.21212121212122" type="line"/>
      <point x="177.1818181818182" y="198.3939393939394"/>
      <point x="235.12121212121212" y="259.9090909090909"/>
      <point x="315.1515151515151" y="259.9090909090909" type="curve" smooth="yes"/>
      <point x="386.57575757575756" y="259.9090909090909"/>
      <point x="432.6969696969697" y="214.9090909090909"/>
      <point x="432.6969696969697" y="146.78787878787878" type="curve" smooth="yes"/>
      <point x="432.6969696969697" y="72.30303030303031"/>
      <point x="375.57575757575756" y="26.93939393939394"/>
      <point x="301.6969696969697" y="26.93939393939394" type="curve" smooth="yes"/>
      <point x="173.84848484848484" y="26.93939393939394"/>
      <point x="92.06060606060606" y="160.0909090909091"/>
      <point x="92.06060606060606" y="356.3030303030303" type="curve" smooth="yes"/>
      <point x="92.06060606060606" y="587.969696969697"/>
      <point x="217.5151515151515" y="763.4242424242424"/>
      <point x="429.3030303030303" y="763.4242424242424" type="curve" smooth="yes"/>
      <point x="583.2727272727273" y="763.4242424242424"/>
      <point x="684.3333333333334" y="683.8787878787879"/>
      <point x="684.3333333333334" y="486.969696969697" type="curve" smooth="yes"/>
      <point x="684.3333333333334" y="0.0" type="line"/>
      <point x="720.1212121212121" y="0.0" type="line"/>
      <point x="720.1212121212121" y="498.0" type="line" smooth="yes"/>
      <point x="720.1212121212121" y="708.2424242424242"/>
      <point x="605.4545454545455" y="806.1515151515151"/>
      <point x="431.72727272727275" y="806.1515151515151" type="curve" smooth="yes"/>
      <point x="194.66666666666666" y="806.1515151515151"/>
      <point x="57.484848484848484" y="603.1212121212121"/>
      <point x="57.484848484848484" y="360.42424242424244" type="curve" smooth="yes"/>
      <point x="57.484848484848484" y="146.45454545454544"/>
      <point x="155.39393939393938" y="-4.0"/>
    </contour>
  </outline>
</glyph>
<glyph name="eeMatra-tamil" format="2">
  <advance width="604.8181818181819"/>
  <unicode hex="0BC7"/>
  <note>
uni0BC7
</note>
  <outline>
    <contour>
      <point x="383.2121212121212" y="-4.212121212121212" type="curve" smooth="yes"/>
      <point x="478.030303030303" y="-4.212121212121212"/>
      <point x="546.8787878787879" y="50.333333333333336"/>
      <point x="546.8787878787879" y="145.27272727272728" type="curve" smooth="yes"/>
      <point x="546.8787878787879" y="236.45454545454547"/>
      <point x="485.3030303030303" y="288.93939393939394"/>
      <point x="407.2121212121212" y="288.93939393939394" type="curve" smooth="yes"/>
      <point x="305.4848484848485" y="288.93939393939394"/>
      <point x="238.6969696969697" y="209.21212121212122"/>
      <point x="229.1818181818182" y="70.0" type="curve"/>
      <point x="249.93939393939394" y="44.63636363636364" type="line"/>
      <point x="263.030303030303" y="185.8181818181818"/>
      <point x="311.93939393939394" y="254.8181818181818"/>
      <point x="394.6969696969697" y="254.8181818181818" type="curve" smooth="yes"/>
      <point x="464.27272727272725" y="254.8181818181818"/>
      <point x="505.09090909090907" y="210.6060606060606"/>
      <point x="505.09090909090907" y="141.27272727272728" type="curve" smooth="yes"/>
      <point x="505.09090909090907" y="66.57575757575758"/>
      <point x="450.3333333333333" y="26.93939393939394"/>
      <point x="378.8181818181818" y="26.93939393939394" type="curve" smooth="yes"/>
      <point x="225.96969696969697" y="26.93939393939394"/>
      <point x="101.51515151515152" y="171.1818181818182"/>
      <point x="101.51515151515152" y="391.5151515151515" type="curve" smooth="yes"/>
      <point x="101.51515151515152" y="612.8484848484849"/>
      <point x="225.96969696969697" y="775.0"/>
      <point x="378.030303030303" y="775.0" type="curve" smooth="yes"/>
      <point x="450.3333333333333" y="775.0"/>
      <point x="505.09090909090907" y="735.3636363636364"/>
      <point x="505.09090909090907" y="660.6666666666666" type="curve" smooth="yes"/>
      <point x="505.09090909090907" y="591.3333333333334"/>
      <point x="464.27272727272725" y="547.1212121212121"/>
      <point x="394.6969696969697" y="547.1212121212121" type="curve" smooth="yes"/>
      <point x="312.72727272727275" y="547.1212121212121"/>
      <point x="266.1818181818182" y="611.6060606060606"/>
      <point x="253.0909090909091" y="755.7272727272727" type="curve"/>
      <point x="231.54545454545456" y="731.3636363636364" type="line"/>
      <point x="241.84848484848484" y="588.0"/>
      <point x="306.27272727272725" y="513.2121212121212"/>
      <point x="407.2121212121212" y="513.2121212121212" type="curve" smooth="yes"/>
      <point x="485.3030303030303" y="513.2121212121212"/>
      <point x="546.8787878787879" y="565.4848484848485"/>
      <point x="546.8787878787879" y="656.6666666666666" type="curve" smooth="yes"/>
      <point x="546.8787878787879" y="751.6060606060606"/>
      <point x="477.24242424242425" y="806.1515151515151"/>
      <point x="383.2121212121212" y="806.1515151515151" type="curve" smooth="yes"/>
      <point x="207.27272727272728" y="806.1515151515151"/>
      <point x="66.93939393939394" y="627.939393939394"/>
      <point x="66.93939393939394" y="391.5151515151515" type="curve" smooth="yes"/>
      <point x="66.93939393939394" y="155.87878787878788"/>
      <point x="208.06060606060606" y="-4.212121212121212"/>
    </contour>
  </outline>
</glyph>
<glyph name="halant-tamil" format="2">
  <unicode hex="0BCD"/>
  <note>
uni0BCD
</note>
  <anchor x="0.0" y="544.5454545454545" name="_top"/>
  <outline>
    <contour>
      <point x="0.0" y="635.4242424242424" type="curve" smooth="yes"/>
      <point x="23.757575757575758" y="635.4242424242424"/>
      <point x="42.878787878787875" y="654.7575757575758"/>
      <point x="42.878787878787875" y="677.3030303030303" type="curve" smooth="yes"/>
      <point x="42.878787878787875" y="699.8484848484849"/>
      <point x="23.757575757575758" y="719.1818181818182"/>
      <point x="0.0" y="719.1818181818182" type="curve" smooth="yes"/>
      <point x="-23.757575757575758" y="719.1818181818182"/>
      <point x="-42.878787878787875" y="699.8484848484849"/>
      <point x="-42.878787878787875" y="677.3030303030303" type="curve" smooth="yes"/>
      <point x="-42.878787878787875" y="654.7575757575758"/>
      <point x="-23.757575757575758" y="635.4242424242424"/>
    </contour>
  </outline>
</glyph>
<glyph name="om-tamil" format="2">
  <advance width="982.060606060606"/>
  <unicode hex="0BD0"/>
  <note>
uni0BD0
</note>
  <outline>
    <contour>
      <point x="318.3636363636364" y="-373.030303030303" type="curve" smooth="yes"/>
      <point x="536.8787878787879" y="-373.030303030303"/>
      <point x="570.7878787878788" y="-134.96969696969697"/>
      <point x="756.5151515151515" y="-134.96969696969697" type="curve" smooth="yes"/>
      <point x="785.6363636363636" y="-134.96969696969697" type="line"/>
      <point x="785.6363636363636" y="-104.81818181818181" type="line"/>
      <point x="747.8484848484849" y="-104.81818181818181" type="line" smooth="yes"/>
      <point x="592.2424242424242" y="-104.81818181818181"/>
      <point x="460.8787878787879" y="59.06060606060606"/>
      <point x="611.7575757575758" y="230.06060606060606" type="curve"/>
      <point x="617.5454545454545" y="226.06060606060606" type="line"/>
      <point x="571.8181818181819" y="142.06060606060606"/>
      <point x="599.2121212121212" y="-5.0"/>
      <point x="740.0909090909091" y="-5.0" type="curve" smooth="yes"/>
      <point x="838.6363636363636" y="-5.0"/>
      <point x="917.7575757575758" y="68.75757575757575"/>
      <point x="917.7575757575758" y="202.57575757575756" type="curve" smooth="yes"/>
      <point x="917.7575757575758" y="423.7878787878788"/>
      <point x="701.4242424242424" y="552.6969696969697"/>
      <point x="468.1818181818182" y="552.6969696969697" type="curve" smooth="yes"/>
      <point x="233.87878787878788" y="552.6969696969697"/>
      <point x="64.51515151515152" y="421.030303030303"/>
      <point x="64.51515151515152" y="237.78787878787878" type="curve" smooth="yes"/>
      <point x="64.51515151515152" y="100.03030303030303"/>
      <point x="151.3939393939394" y="4.212121212121212"/>
      <point x="263.030303030303" y="4.212121212121212" type="curve" smooth="yes"/>
      <point x="357.8484848484849" y="4.212121212121212"/>
      <point x="422.75757575757575" y="63.484848484848484"/>
      <point x="422.75757575757575" y="157.63636363636363" type="curve" smooth="yes"/>
      <point x="422.75757575757575" y="244.9090909090909"/>
      <point x="360.030303030303" y="296.45454545454544"/>
      <point x="282.57575757575756" y="296.45454545454544" type="curve" smooth="yes"/>
      <point x="184.57575757575756" y="296.45454545454544"/>
      <point x="121.48484848484848" y="223.24242424242425"/>
      <point x="101.0909090909091" y="140.87878787878788" type="curve"/>
      <point x="116.9090909090909" y="115.45454545454545" type="line"/>
      <point x="140.24242424242425" y="197.93939393939394"/>
      <point x="190.8181818181818" y="262.54545454545456"/>
      <point x="270.0" y="262.54545454545456" type="curve" smooth="yes"/>
      <point x="338.57575757575756" y="262.54545454545456"/>
      <point x="380.969696969697" y="220.6969696969697"/>
      <point x="380.969696969697" y="153.63636363636363" type="curve" smooth="yes"/>
      <point x="380.969696969697" y="79.15151515151516"/>
      <point x="330.1515151515151" y="36.151515151515156"/>
      <point x="257.8484848484849" y="36.151515151515156" type="curve" smooth="yes"/>
      <point x="169.87878787878788" y="36.151515151515156"/>
      <point x="98.87878787878788" y="113.33333333333333"/>
      <point x="98.87878787878788" y="235.57575757575756" type="curve" smooth="yes"/>
      <point x="98.87878787878788" y="404.3030303030303"/>
      <point x="258.6363636363636" y="522.3333333333334"/>
      <point x="465.6666666666667" y="522.3333333333334" type="curve" smooth="yes"/>
      <point x="675.2424242424242" y="522.3333333333334"/>
      <point x="873.969696969697" y="405.1515151515151"/>
      <point x="873.969696969697" y="208.63636363636363" type="curve" smooth="yes"/>
      <point x="873.969696969697" y="90.84848484848484"/>
      <point x="816.7878787878788" y="26.727272727272727"/>
      <point x="734.1818181818181" y="26.727272727272727" type="curve" smooth="yes"/>
      <point x="624.5757575757576" y="26.727272727272727"/>
      <point x="597.030303030303" y="161.12121212121212"/>
      <point x="663.0909090909091" y="256.8484848484849" type="curve"/>
      <point x="625.2121212121212" y="285.8787878787879" type="line"/>
      <point x="425.6060606060606" y="100.72727272727273"/>
      <point x="530.6363636363636" y="-80.66666666666666"/>
      <point x="670.8787878787879" y="-119.72727272727272" type="curve"/>
      <point x="670.8787878787879" y="-123.93939393939394" type="line"/>
      <point x="528.1515151515151" y="-155.1818181818182"/>
      <point x="490.6666666666667" y="-337.969696969697"/>
      <point x="309.57575757575756" y="-337.969696969697" type="curve" smooth="yes"/>
      <point x="206.21212121212122" y="-337.969696969697"/>
      <point x="144.0909090909091" y="-271.6363636363636"/>
      <point x="165.3030303030303" y="-181.8181818181818" type="curve"/>
      <point x="131.93939393939394" y="-175.33333333333334" type="line"/>
      <point x="107.03030303030303" y="-289.90909090909093"/>
      <point x="195.36363636363637" y="-373.030303030303"/>
    </contour>
    <contour>
      <point x="228.3939393939394" y="-251.0" type="line"/>
      <point x="256.6363636363636" y="-251.0" type="line"/>
      <point x="256.6363636363636" y="-106.0909090909091" type="line"/>
      <point x="228.3939393939394" y="-106.0909090909091" type="line"/>
    </contour>
    <contour>
      <point x="238.72727272727272" y="-251.0" type="line"/>
      <point x="423.42424242424244" y="-251.0" type="line"/>
      <point x="423.42424242424244" y="-225.1818181818182" type="line"/>
      <point x="238.72727272727272" y="-225.1818181818182" type="line"/>
    </contour>
    <contour>
      <point x="317.8787878787879" y="-251.0" type="line"/>
      <point x="344.6969696969697" y="-251.0" type="line"/>
      <point x="344.6969696969697" y="-169.3030303030303" type="line" smooth="yes"/>
      <point x="344.6969696969697" y="-146.78787878787878"/>
      <point x="356.6363636363636" y="-131.27272727272728"/>
      <point x="378.7878787878788" y="-131.27272727272728" type="curve" smooth="yes"/>
      <point x="400.3636363636364" y="-131.27272727272728"/>
      <point x="411.3030303030303" y="-146.78787878787878"/>
      <point x="411.3030303030303" y="-169.3030303030303" type="curve" smooth="yes"/>
      <point x="411.3030303030303" y="-251.0" type="line"/>
      <point x="439.54545454545456" y="-251.0" type="line"/>
      <point x="439.54545454545456" y="-173.15151515151516" type="line" smooth="yes"/>
      <point x="439.54545454545456" y="-125.18181818181819"/>
      <point x="412.7878787878788" y="-103.3030303030303"/>
      <point x="378.7878787878788" y="-103.3030303030303" type="curve" smooth="yes"/>
      <point x="344.0" y="-103.3030303030303"/>
      <point x="317.8787878787879" y="-125.18181818181819"/>
      <point x="317.8787878787879" y="-173.15151515151516" type="curve" smooth="yes"/>
    </contour>
    <contour>
      <point x="329.3636363636364" y="-74.6969696969697" type="curve" smooth="yes"/>
      <point x="343.6363636363636" y="-74.6969696969697"/>
      <point x="354.6969696969697" y="-62.63636363636364"/>
      <point x="354.6969696969697" y="-49.57575757575758" type="curve" smooth="yes"/>
      <point x="354.6969696969697" y="-37.515151515151516"/>
      <point x="343.6363636363636" y="-25.454545454545453"/>
      <point x="329.3636363636364" y="-25.454545454545453" type="curve" smooth="yes"/>
      <point x="315.0909090909091" y="-25.454545454545453"/>
      <point x="303.24242424242425" y="-37.515151515151516"/>
      <point x="303.24242424242425" y="-49.57575757575758" type="curve" smooth="yes"/>
      <point x="303.24242424242425" y="-62.63636363636364"/>
      <point x="315.0909090909091" y="-74.6969696969697"/>
    </contour>
  </outline>
</glyph>
<glyph name="zero-tamil" format="2">
  <advance width="590.8484848484849"/>
  <unicode hex="0BE6"/>
  <note>
uni0BE6
</note>
  <outline>
    <contour>
      <point x="295.5151515151515" y="-4.212121212121212" type="curve" smooth="yes"/>
      <point x="433.7878787878788" y="-4.212121212121212"/>
      <point x="527.3333333333334" y="111.72727272727272"/>
      <point x="527.3333333333334" y="273.8484848484849" type="curve" smooth="yes"/>
      <point x="527.3333333333334" y="430.969696969697"/>
      <point x="442.45454545454544" y="551.9090909090909"/>
      <point x="297.8787878787879" y="551.9090909090909" type="curve" smooth="yes"/>
      <point x="141.96969696969697" y="551.9090909090909"/>
      <point x="63.72727272727273" y="424.030303030303"/>
      <point x="63.72727272727273" y="273.8484848484849" type="curve" smooth="yes"/>
      <point x="63.72727272727273" y="118.15151515151516"/>
      <point x="141.96969696969697" y="-4.212121212121212"/>
    </contour>
    <contour>
      <point x="287.54545454545456" y="28.424242424242426" type="curve" smooth="yes"/>
      <point x="162.45454545454547" y="28.424242424242426"/>
      <point x="97.93939393939394" y="139.24242424242425"/>
      <point x="97.93939393939394" y="273.8484848484849" type="curve" smooth="yes"/>
      <point x="97.93939393939394" y="404.24242424242425"/>
      <point x="164.03030303030303" y="520.060606060606"/>
      <point x="291.4848484848485" y="520.060606060606" type="curve" smooth="yes"/>
      <point x="418.24242424242425" y="520.060606060606"/>
      <point x="484.9090909090909" y="411.6363636363636"/>
      <point x="484.9090909090909" y="273.8484848484849" type="curve" smooth="yes"/>
      <point x="484.9090909090909" y="128.6969696969697"/>
      <point x="409.57575757575756" y="28.424242424242426"/>
    </contour>
  </outline>
</glyph>
<glyph name="one-tamil" format="2">
  <advance width="799.6969696969697"/>
  <unicode hex="0BE7"/>
  <note>
uni0BE7
</note>
  <outline>
    <contour>
      <point x="255.15151515151516" y="-4.212121212121212" type="curve" smooth="yes"/>
      <point x="378.93939393939394" y="-4.212121212121212"/>
      <point x="459.6363636363636" y="74.48484848484848"/>
      <point x="459.6363636363636" y="193.6969696969697" type="curve" smooth="yes"/>
      <point x="459.6363636363636" y="272.45454545454544" type="line"/>
      <point x="524.5454545454545" y="272.45454545454544" type="line" smooth="yes"/>
      <point x="641.4242424242424" y="272.45454545454544"/>
      <point x="692.1212121212121" y="225.06060606060606"/>
      <point x="692.1212121212121" y="150.06060606060606" type="curve" smooth="yes"/>
      <point x="692.1212121212121" y="74.87878787878788"/>
      <point x="639.4545454545455" y="27.363636363636363"/>
      <point x="557.7575757575758" y="27.363636363636363" type="curve" smooth="yes"/>
      <point x="498.6666666666667" y="27.363636363636363"/>
      <point x="458.3939393939394" y="55.878787878787875"/>
      <point x="421.3939393939394" y="95.24242424242425" type="curve"/>
      <point x="401.42424242424244" y="70.42424242424242" type="line"/>
      <point x="443.1818181818182" y="28.09090909090909"/>
      <point x="490.0909090909091" y="-4.212121212121212"/>
      <point x="566.4545454545455" y="-4.212121212121212" type="curve" smooth="yes"/>
      <point x="660.2121212121212" y="-4.212121212121212"/>
      <point x="734.3333333333334" y="51.63636363636364"/>
      <point x="734.3333333333334" y="148.63636363636363" type="curve" smooth="yes"/>
      <point x="734.3333333333334" y="247.96969696969697"/>
      <point x="668.5454545454545" y="302.8181818181818"/>
      <point x="523.5454545454545" y="302.8181818181818" type="curve" smooth="yes"/>
      <point x="459.6363636363636" y="302.8181818181818" type="line"/>
      <point x="459.6363636363636" y="514.969696969697" type="line"/>
      <point x="638.5757575757576" y="514.969696969697" type="line"/>
      <point x="638.5757575757576" y="544.5454545454545" type="line"/>
      <point x="190.27272727272728" y="544.5454545454545" type="line"/>
      <point x="190.27272727272728" y="284.42424242424244" type="line"/>
      <point x="223.6969696969697" y="284.42424242424244" type="line"/>
      <point x="223.6969696969697" y="514.969696969697" type="line"/>
      <point x="417.42424242424244" y="514.969696969697" type="line"/>
      <point x="417.42424242424244" y="302.8181818181818" type="line"/>
      <point x="246.78787878787878" y="302.8181818181818" type="line" smooth="yes"/>
      <point x="138.57575757575756" y="302.8181818181818"/>
      <point x="69.3030303030303" y="236.57575757575756"/>
      <point x="69.3030303030303" y="149.1818181818182" type="curve" smooth="yes"/>
      <point x="69.3030303030303" y="61.78787878787879"/>
      <point x="141.45454545454547" y="-4.212121212121212"/>
    </contour>
    <contour>
      <point x="255.03030303030303" y="26.93939393939394" type="curve" smooth="yes"/>
      <point x="165.93939393939394" y="26.93939393939394"/>
      <point x="108.45454545454545" y="77.33333333333333"/>
      <point x="108.45454545454545" y="150.54545454545456" type="curve" smooth="yes"/>
      <point x="108.45454545454545" y="216.12121212121212"/>
      <point x="156.45454545454547" y="272.45454545454544"/>
      <point x="249.78787878787878" y="272.45454545454544" type="curve" smooth="yes"/>
      <point x="417.42424242424244" y="272.45454545454544" type="line"/>
      <point x="417.42424242424244" y="189.0" type="line" smooth="yes"/>
      <point x="417.42424242424244" y="92.0"/>
      <point x="351.7878787878788" y="26.93939393939394"/>
    </contour>
  </outline>
</glyph>
<glyph name="two-tamil" format="2">
  <advance width="919.1515151515151"/>
  <unicode hex="0BE8"/>
  <note>
uni0BE8
</note>
  <outline>
    <contour>
      <point x="157.93939393939394" y="0.0" type="curve" smooth="yes"/>
      <point x="902.1515151515151" y="0.0" type="line"/>
      <point x="902.1515151515151" y="29.575757575757578" type="line"/>
      <point x="154.66666666666666" y="29.575757575757578" type="line" smooth="yes"/>
      <point x="114.75757575757575" y="29.575757575757578"/>
      <point x="90.45454545454545" y="53.24242424242424"/>
      <point x="90.45454545454545" y="87.6969696969697" type="curve" smooth="yes"/>
      <point x="90.45454545454545" y="123.15151515151516"/>
      <point x="113.96969696969697" y="143.66666666666666"/>
      <point x="154.66666666666666" y="143.66666666666666" type="curve" smooth="yes"/>
      <point x="398.3636363636364" y="143.66666666666666" type="line" smooth="yes"/>
      <point x="538.0" y="143.66666666666666"/>
      <point x="646.5454545454545" y="211.21212121212122"/>
      <point x="646.5454545454545" y="341.5151515151515" type="curve" smooth="yes"/>
      <point x="646.5454545454545" y="484.57575757575756"/>
      <point x="529.030303030303" y="552.6969696969697"/>
      <point x="381.09090909090907" y="552.6969696969697" type="curve" smooth="yes"/>
      <point x="222.9090909090909" y="552.6969696969697"/>
      <point x="134.12121212121212" y="467.1515151515151"/>
      <point x="134.12121212121212" y="344.6363636363636" type="curve" smooth="yes"/>
      <point x="134.12121212121212" y="212.72727272727272"/>
      <point x="241.42424242424244" y="149.78787878787878"/>
      <point x="381.0" y="149.78787878787878" type="curve"/>
      <point x="381.0" y="173.8181818181818" type="line"/>
      <point x="257.09090909090907" y="173.8181818181818"/>
      <point x="168.6969696969697" y="229.66666666666666"/>
      <point x="168.6969696969697" y="343.8484848484849" type="curve" smooth="yes"/>
      <point x="168.6969696969697" y="453.93939393939394"/>
      <point x="244.54545454545456" y="522.3333333333334"/>
      <point x="376.6666666666667" y="522.3333333333334" type="curve" smooth="yes"/>
      <point x="506.3030303030303" y="522.3333333333334"/>
      <point x="602.7575757575758" y="464.969696969697"/>
      <point x="602.7575757575758" y="344.6363636363636" type="curve" smooth="yes"/>
      <point x="602.7575757575758" y="231.36363636363637"/>
      <point x="510.75757575757575" y="173.8181818181818"/>
      <point x="389.8787878787879" y="173.8181818181818" type="curve" smooth="yes"/>
      <point x="157.93939393939394" y="173.8181818181818" type="line" smooth="yes"/>
      <point x="93.93939393939394" y="173.8181818181818"/>
      <point x="56.878787878787875" y="141.3939393939394"/>
      <point x="56.878787878787875" y="87.6969696969697" type="curve" smooth="yes"/>
      <point x="56.878787878787875" y="35.0"/>
      <point x="93.93939393939394" y="0.0"/>
    </contour>
  </outline>
</glyph>
<glyph name="three-tamil" format="2">
  <advance width="912.4545454545455"/>
  <unicode hex="0BE9"/>
  <note>
uni0BE9
</note>
  <outline>
    <contour>
      <point x="120.84848484848484" y="0.0" type="line"/>
      <point x="154.27272727272728" y="0.0" type="line"/>
      <point x="154.27272727272728" y="514.969696969697" type="line"/>
      <point x="375.3939393939394" y="514.969696969697" type="line"/>
      <point x="375.3939393939394" y="189.6969696969697" type="line"/>
      <point x="418.3939393939394" y="189.6969696969697" type="line"/>
      <point x="418.3939393939394" y="207.24242424242425" type="line" smooth="yes"/>
      <point x="418.3939393939394" y="258.8787878787879"/>
      <point x="451.3939393939394" y="328.6060606060606"/>
      <point x="539.6363636363636" y="328.6060606060606" type="curve" smooth="yes"/>
      <point x="607.2424242424242" y="328.6060606060606"/>
      <point x="649.3939393939394" y="282.45454545454544"/>
      <point x="649.3939393939394" y="208.42424242424244" type="curve" smooth="yes"/>
      <point x="649.3939393939394" y="75.75757575757575"/>
      <point x="514.969696969697" y="29.575757575757578"/>
      <point x="454.1818181818182" y="29.575757575757578" type="curve" smooth="yes"/>
      <point x="375.3939393939394" y="29.575757575757578" type="line"/>
      <point x="375.3939393939394" y="0.0" type="line"/>
      <point x="888.7272727272727" y="0.0" type="line"/>
      <point x="888.7272727272727" y="29.575757575757578" type="line"/>
      <point x="552.1212121212121" y="29.575757575757578" type="line"/>
      <point x="630.4848484848485" y="56.60606060606061"/>
      <point x="694.3333333333334" y="114.36363636363636"/>
      <point x="694.3333333333334" y="216.54545454545456" type="curve" smooth="yes"/>
      <point x="694.3333333333334" y="304.75757575757575"/>
      <point x="631.8484848484849" y="360.0909090909091"/>
      <point x="550.3636363636364" y="360.0909090909091" type="curve" smooth="yes"/>
      <point x="472.90909090909093" y="360.0909090909091"/>
      <point x="435.4848484848485" y="320.6666666666667"/>
      <point x="418.3939393939394" y="287.3636363636364" type="curve"/>
      <point x="418.3939393939394" y="514.969696969697" type="line"/>
      <point x="618.6060606060606" y="514.969696969697" type="line"/>
      <point x="618.6060606060606" y="544.5454545454545" type="line"/>
      <point x="120.84848484848484" y="544.5454545454545" type="line"/>
    </contour>
  </outline>
</glyph>
